<?xml version="1.0" encoding="UTF-8"?>
<svg id="Calque_1" data-name="Calque 1" xmlns="http://www.w3.org/2000/svg" viewBox="0 0 300 300">
  <defs>
    <style>
      .cls-1 {
        fill: #191f23;
      }
    </style>
  </defs>
  <path class="cls-1" d="m116.52,257.73c-4.5,0-10.73-.51-17.76-3.1-20.29-7.46-32.78-26.66-34.25-37.05-1.57-11.09.21-84.15,1-90.39.52-4.11,13.18-22.78,23.56-20.97,5.22.91,9.07,6.51,9.49,9.2,3.82,24.78-14.55,70.16-7.9,93.19.46,1.59,14.33,20.45,23.25,20.17,7.24-.23,34.09-13.5,51.43-36.55,16.27-21.61,21.56-35.13,28.12-40.75,2.77-2.38,7.52-4.65,13.02-4.26,7.63.54,13.01,6.46,15.27,9.26,3.09,3.84,11.87,61.08,14.31,73.93.25,1.31-.53,2.56-1.81,2.92-3.77,1.06-8.72,1.75-14.08.59-18.95-4.07-19.59-21.35-24.96-21.35-7.91,0-19.33,45.15-78.69,45.15Z"/>
  <circle class="cls-1" cx="130.03" cy="58.78" r="16.52"/>
  <circle class="cls-1" cx="191.19" cy="69.02" r="16.52"/>
</svg>