<?xml version="1.0" encoding="UTF-8"?>
<svg id="Calque_1" data-name="Calque 1" xmlns="http://www.w3.org/2000/svg" viewBox="0 0 300 300">
  <defs>
    <style>
      .cls-1 {
        fill: #f5eb69;
      }

      .cls-2 {
        fill: #191f23;
      }
    </style>
  </defs>
  <circle class="cls-2" cx="150" cy="150" r="150"/>
  <g>
    <path class="cls-1" d="m126.18,226.66c-3.2,0-7.63-.36-12.64-2.2-14.44-5.31-23.33-18.97-24.37-26.36-1.12-7.89.15-59.88.71-64.32.37-2.92,9.38-16.21,16.77-14.92,3.71.65,6.46,4.63,6.75,6.55,2.72,17.63-10.35,49.93-5.62,66.31.33,1.13,10.2,14.55,16.54,14.35,5.15-.16,24.25-9.61,36.6-26.01,11.57-15.38,15.34-25,20.01-29,1.97-1.69,5.35-3.31,9.26-3.03,5.43.39,9.26,4.6,10.87,6.59,2.2,2.73,8.44,43.46,10.18,52.6.18.93-.38,1.82-1.29,2.08-2.68.76-6.2,1.24-10.02.42-13.49-2.9-13.94-15.19-17.76-15.19-5.63,0-13.75,32.13-56,32.13Z"/>
    <circle class="cls-1" cx="135.79" cy="85.09" r="11.75"/>
    <circle class="cls-1" cx="179.31" cy="92.38" r="11.75"/>
  </g>
</svg>