<?xml version="1.0" encoding="UTF-8"?>
<svg id="Calque_1" data-name="Calque 1" xmlns="http://www.w3.org/2000/svg" viewBox="0 0 300 198.94">
  <defs>
    <style>
      .cls-1 {
        fill: #fff;
      }
    </style>
  </defs>
  <g>
    <path class="cls-1" d="m41.11,173.74c-.03-.06-.02-.15-.02-.22,0-2.01,0-4.02.02-6.03,0-.32.19-.55.45-.73.06-.04.15-.08.22-.07.05,0,.13.08.14.14.04.36.09.73.1,1.09.01.89,0,1.79,0,2.68h-.02c.02,1.12.05,2.23.07,3.35,0,.25.14.43.35.52.29.12.6.12.88-.07.06-.04.13-.08.18-.14.34-.3.62-.64.87-1.03.41-.65.5-1.4.79-2.08.17-.39.11-.88.14-1.32.03-.59-.04-1.2.29-1.74-.53-.68.13-1.27.15-1.91,0-.15.02-.3.04-.44.01-.07.03-.14.07-.21.03-.06.09-.11.14-.16.06.05.14.1.16.16.12.43.24.85.44,1.26.13.27.13.59-.01.87-.15.28-.19.55-.02.84.16.28.16.6.04.87-.18.42-.33.83-.34,1.28-.03,1.06-.51,2-.92,2.96-.42.98-1.28,1.45-2.25,1.78-.13.04-.3-.02-.44-.07-.15-.05-.27-.16-.41-.2-.72-.2-.8-.85-1.08-1.36Z"/>
    <path class="cls-1" d="m50.59,171.89c-.48,1.15-.95,2.31-1.44,3.45-.11.25-.33.45-.73.57.05-.33.09-.66.15-.98.26-1.41.52-2.82.78-4.23.47-2.5,1.47-4.8,2.76-7.01.41-.7.75-1.43,1.16-2.24.2.15.33.24.46.34-.05.04-.11.07-.1.06,0,.01.03-.04.07-.09.18-.3.35-.61.53-.93.34-.04.68-.08,1.17-.14,1.93,2.85,2.82,6.1,3.56,9.6,1.36-2.87,1.66-5.86,2.6-8.67,1.09,0,1.11.82,1.48,1.37-.85,4.01-2.07,7.92-3.42,11.76-1.04.47-1.55-.78-2.37-.45-.91-.79-1.4-1.66-1.65-2.73-.35-1.49-.86-2.95-1.3-4.43-.06-.21-.17-.4-.4-.9-.6,2.53-1.79,4.57-2.27,6.84-.11.53-.31,1.04-.53,1.54-.09.22-.33.39-.66.75-.39-1.35.35-2.43.12-3.52.08-.19.16-.37.23-.56-.06-.02-.11-.03-.17-.05-.02.21-.04.41-.05.62Zm4.65-10.63c-.13.32-.23.56-.32.78.32.37.6.69.89,1.02.04-.02.09-.04.13-.06-.22-.55-.44-1.09-.7-1.73Zm2.75,10.88c.03.14.06.27.09.41.06-.03.11-.06.17-.09-.09-.1-.18-.2-.27-.3.04-.35.09-.7.13-1.05-.35-.73-.53-1.51-.77-2.26-.25-.79-.57-1.55-.86-2.33-.15.44-.15.85-.05,1.23.31,1.17.65,2.34,1.02,3.49.1.32.36.6.54.91Zm-.86,1.09s.08.09.08.08c.01,0-.04-.03-.09-.07-.03-.14-.06-.27-.09-.4-.05.02-.1.05-.14.07.08.11.16.22.24.32Zm1.59,1.08v-.47c-.06.07-.11.11-.11.13,0,.07.04.15.11.34Z"/>
    <path class="cls-1" d="m65,170.94c-.22-.35-.2-.66,0-1.04.31-.59.71-1.16.74-1.85.55-1.19,1.31-2.19,2.6-2.73.21-.09.42-.19.62-.3.62-.34,1.3-.48,2.01-.45.61.03,1.24-.1,1.84.11.17.06.22.19.21.35,0,.16-.05.3-.23.35-.68.19-1.38.12-2.07.11-.82,0-1.5.27-2.13.72-.05.03-.06.11-.09.17.53.01,1.05-.03,1.54-.28.41-.22.73.04.99.34.05.06.09.14.08.2,0,.05-.1.11-.17.12-.23.03-.45.07-.68.07-.41,0-.75.17-1.02.45-.21.22-.38.46-.57.69.07.04.13.1.2.11.4.08.76-.03,1.11-.2.44-.22.9-.19,1.36-.09.11.03.21.19.27.3.08.16.02.31-.14.39-.89.43-1.72.99-2.74,1.15-.44.31-1.16.16-1.45.61-.31.49-.44,1.09-.62,1.65-.12.37.27.96.66,1.04.47-.3.88.09,1.33.1.7.02,1.4,0,2.09.06.66.06,1.15-.46,1.78-.43.14,0,.28.1.41.15-.06.12-.1.26-.19.36-.1.11-.23.21-.36.27-.42.19-.83.41-1.27.53-.38.1-.72.26-1.07.41-1.19.5-1.2.5-2.46.47-.86-.01-1.63-.54-1.85-1.4-.11-.44-.37-.82-.48-1.24-.11-.43,0-.9-.24-1.3Zm1.88,2.78c.09.07.16.18.26.21.14.05.3.03.22.03.39,0,.54.01.69,0,.07,0,.13-.08.19-.12-.09-.08-.17-.21-.26-.22-.3-.03-.61-.03-.91-.02-.06,0-.12.08-.19.12Zm1.4-7c.08-.06.11-.17.16-.27.02,0,.04-.02.05-.03l-.03-.03s-.02.03-.02.05c-.1.05-.22.09-.28.17-.13.15-.04.23.12.1Z"/>
    <path class="cls-1" d="m92.7,166.63c-.11,2.63-1.03,4.99-2.67,7.09-.73.93-3.31,1.69-4.43,1.24-.39-.16-.92-.87-.82-1.13.27-.73.09-1.12-.42-1.67-.36-.39-.58-1.06-.55-1.6.09-1.83.21-3.68.53-5.48.26-1.47.84-2.89.47-4.42-.02-.1.13-.34.2-.34.21,0,.49.02.63.15.72.64,1.02,1.45,1,2.39,0,.13.11.26.17.4.13-.08.3-.14.38-.25.26-.36.44-.78.73-1.11,1.01-1.16,2.67-1.15,3.53.13.93,1.38,1.45,2.92,1.26,4.62Zm-1.92-1.4c0-.15,0-.3,0-.45.05-.81-.09-1.56-.75-2.15-.36.7-.95,1.37-1.04,2.1-.33,2.47-.73,4.89-2.31,6.97-.06.08.03.27.05.41.12-.03.28-.01.36-.08,2.23-1.76,3.59-3.97,3.69-6.8Z"/>
    <path class="cls-1" d="m102.83,167.61c-.06.23-.21.43-.42.55-.03.02-.06.04-.1.06-.14.11-.31.19-.48.24-1.64.38-3.01.69-4.4.98-.32.07-.36.14-.38.31-.04.31-.06.63-.09.94-.04.95-.2,1.9-.48,2.81-.06.21-.07.43-.06.65v.03s.03,0,.04,0c.25-.03.51-.08.75-.15l.29-.09c1.06-.33,2.05-.64,2.94-1.21.19-.15.44-.21.69-.16.21.06.39.21.48.41.06.04.12.07.19.09.04.01.08.02.11.02.31,0,.57.24.58.54.09.47-.19.92-.66,1.07-.25.09-.51.16-.77.24-.14.04-.29.08-.43.13-.47.14-.94.24-1.43.3-.63.08-1.25.23-1.83.47-.06.03-.11.05-.17.08-.29.1-.54.26-.75.48-.26.26-.6.42-.97.46-.04,0-.09,0-.13,0-.19,0-.38-.06-.53-.17-.2-.18-.31-.43-.31-.69,0-.13,0-.27.03-.4.08-.41.14-.83.18-1.25.04-.52.12-1.04.24-1.55.15-.69.24-1.39.26-2.1.02-.28.03-.55.06-.83,0-.06,0-.12-.02-.17-.28-.18-.47-.47-.51-.79.01-.34.19-.66.47-.86.03-.1.04-.2.04-.3,0-.06,0-.11.01-.16.03-.23.04-.47.06-.71.03-.31.05-.64.09-.96.05-.42.08-.79-.12-1.11-.36-.56-.04-.89.18-1.03.19-.12.22-.18.22-.19,0,0,0-.04-.13-.14-.17-.14-.11-.35-.03-.54.04-.1.12-.32.36-.3.12,0,.24-.04.36-.09.3-.16.67-.17.98-.02.03,0,.06.01.09.01.14-.14.35-.2.55-.16.14.05.25.17.3.31l.35-.1c.58-.17,1.18-.34,1.75-.56l.12-.05c.41-.18.85-.29,1.3-.3.62.01,1.02.27,1.1.69.14.73-.19,1.04-.5,1.16-1.03.42-2.04.8-2.99,1.14-.3.09-.62.05-.9-.09-.08-.05-.1-.04-.27,0h-.04c-.42.14-.67.22-.76.32-.09.11-.11.38-.15.82l-.03.29v.27c-.01.08-.02.16-.03.23,0,.19-.03.38-.06.56-.02.08-.03.17-.03.26.13.03.26.04.39.03.51.02,1.02-.04,1.51-.18.52-.17,1.07-.26,1.62-.26.4,0,.8-.05,1.19-.14.38-.1.78.06.97.38.1.14.14.32.11.48Zm-5.87-8.07c-.15-.24-.19-.53-.13-.8.08-.26.23-.49.44-.67.33-.32.67-.62,1.01-.93.3-.27.6-.54.89-.82.31-.33.8-.45,1.23-.29.11.04.2.11.28.2.01.01.03.03.04.04l.16.14-.1.18c-.09.17-.18.34-.27.51-.19.38-.38.73-.59,1.08-.38.62-.97,1-1.54,1.37-.1.07-.21.13-.31.2-.14.1-.31.15-.48.15-.05,0-.1,0-.15-.02-.2-.04-.38-.17-.48-.34Z"/>
    <path class="cls-1" d="m111.1,170.78c1.41-2.99,2.8-5.83,4.52-8.55,1.29.53,1.41,1.54,1.38,2.54-.08,2.56-.4,5.08-1.1,7.56-.42,1.49-.55,3.06-.82,4.66q-.45.28-1.02-.08c-.27-1.32.1-2.62.26-3.91.23-1.81.64-3.61.96-5.41.12-.66.2-1.32.21-2.01-1.29,3.04-2.74,5.96-4.84,8.58-.37-.17-.59-.27-.93-.42-.04-3.03.03-6.1-.07-9.2-.3.65-.64,1.29-.88,1.97-.63,1.77-1.18,3.56-1.85,5.31-.32.84-.83,1.62-1.27,2.41-.18.32-.45.47-.9.23-.2-.62-.17-1.32,0-1.96.52-1.92,1.14-3.82,1.74-5.72.48-1.49.98-2.96,1.5-4.44.32-.91.78-1.75,1.44-2.48.15.04.27.08.39.11.3-.3.61-.61.95-.96.22.12.5.18.54.31.15.48.34,1,.29,1.48-.12,1.06-.33,2.12-.52,3.17-.22,1.21-.19,2.5,0,3.72.13.89.13,1.72-.03,2.58-.02.11.02.23.05.49Z"/>
    <path class="cls-1" d="m118.82,173.68c.34-.85.39-1.73.39-2.62,0-.59.07-1.18.34-1.74.12-.26.11-.58.13-.87.05-.59.13-1.16.29-1.75.28-1,.3-2.05-.08-3.06-.19-.5-.09-.65.44-.76.31-.06.6-.12.74-.44.06-.14.14-.27.22-.39.33-.51.85-.63,1.41-.57.21.02.51.15.58.31.31.76.63,1.51,1.01,2.24.06.82.37,1.58.59,2.36.06.21.03.46.11.66.32.76.6,1.53.74,2.32.13.72.1,1.49.06,2.23-.05.86.23,1.61.61,2.34.1.19.17.4.18.42.08.37-.35.85-.53.84-.07,0-.15-.03-.2-.06-.26-.17-.44-.4-.58-.67-.69-1.33-1.39-2.65-2.1-3.97-.06-.12-.22-.2-.35-.28-.04-.03-.14,0-.19.03-.12.09-.26.18-.34.3-.34.5-.66,1.01-.68,1.63-.03.7-.42,1.26-.72,1.86-.09.19-.3.33-.46.49-.24.24-.51.28-.83.12-.14-.07-.28-.13-.41-.2-.28-.16-.47-.47-.35-.75Z"/>
    <path class="cls-1" d="m128.7,174.56c-.05-.81-.01-1.63-.01-2.45h0c0-.67,0-1.33,0-2,0-.3-.05-.64.08-.88.41-.77.31-1.59.35-2.4.03-.56.14-1,.76-1.22.19-.07.35-.28.48-.47.39-.55.77-1.11,1.11-1.68.53-.89,1.39-1.36,2.34-1.69.19-.07.48-.04.67.05.51.23.85.63,1.08,1.12.06.13.08.3.05.43-.34,1.37-.89,2.66-1.7,3.84-.34.49-.67,1-1.05,1.45-.34.4-.75.74-1.13,1.12-.16.16-.3.34-.43.51-.04.05-.07.15-.04.19.03.05.13.1.2.1.38.03.77.05,1.15.06.47.01.9.13,1.34.3.42.16.9.16,1.35.27.11.03.19.2.25.33.08.16-.15.44-.36.46-.54.06-1.11.12-1.6-.11-.81-.39-1.65-.32-2.49-.3-.18,0-.46.24-.47.41-.04.74-.09,1.48-.11,2.22-.01.62-.28,1.14-.66,1.61-.07.08-.34.12-.41.06-.42-.35-.7-.81-.73-1.34Zm4.33-9.89l.12.02-.04-.14-.08.12Z"/>
    <path class="cls-1" d="m143.49,174.99c-2.43-.08-3.92-1.26-5.15-2.62-1.34-1.48-1.07-3.08-.24-4.67,1.19-2.26,2.77-4.35,4.84-6.21.67-.6,1.63-1.03,2.52-1.48.24-.12.85-.13.98,0,.2.19.27.59.13.81-.32.53-.78,1.02-1.2,1.51-1.95,2.28-3.92,4.55-5.36,7.05-.91,1.58-.72,2.57.74,3.59,1.24.87,2.64.92,3.92.1.53-.33.97-.75,1.52-1.06.64-.36,1.38-.3,1.8.21.18.21.03.66-.16.93-.89,1.33-2.39,1.88-4.34,1.84Z"/>
    <path class="cls-1" d="m153.48,169.03c.5-.46.99-.94,1.49-1.41.35-.33.53-.72.52-1.2,0-.38.09-.74.4-1.01.1-.09.29-.2.38-.17.53.21.95.59,1.04,1.11.11.57.17,1.19-.12,1.75-.22.42-.27.85-.26,1.3,0,.74-.04,1.49,0,2.23.05,1-.37,1.87-.69,2.78-.06.16-.43.39-.54.34-.14-.07-.28-.15-.37-.26-.13-.18-.25-.38-.29-.59-.06-.36-.05-.74-.05-1.11,0-.59,0-1.19,0-1.78,0-.31-.13-.44-.39-.33-.59.26-1.22.13-1.83.23-.23.04-.47.2-.46.42.02.84-.44,1.57-.61,2.36-.2.1-.39.27-.59.29-.51.04-1.13-.45-1.16-.9-.05-.67-.08-1.34-.09-2-.01-.89,0-1.78,0-2.68h.06c0-1.41,0-2.82,0-4.24,0-.18.16-.25.3-.22.07.02.16.04.21.08.14.17.34.34.39.54.11.43.31.84.43,1.26.14.5.4.97.49,1.47.09.52.35.98.5,1.47.24.81.58.87,1.25.25Z"/>
    <path class="cls-1" d="m159.34,170.94c-.22-.35-.2-.66,0-1.04.31-.59.71-1.16.74-1.85.55-1.19,1.31-2.19,2.6-2.73.21-.09.42-.19.62-.3.63-.34,1.3-.48,2.01-.45.61.03,1.24-.1,1.84.11.18.06.22.19.21.35,0,.16-.05.3-.23.35-.68.19-1.38.12-2.07.11-.82,0-1.5.27-2.13.72-.05.03-.06.11-.09.17.53.01,1.04-.03,1.54-.28.41-.22.73.04.99.34.05.06.09.14.08.2,0,.05-.1.11-.16.12-.23.03-.45.07-.68.07-.41,0-.75.17-1.02.45-.21.22-.38.46-.57.69.07.04.13.1.2.11.4.08.76-.03,1.11-.2.44-.22.9-.19,1.36-.09.11.03.21.19.27.3.08.16.02.31-.14.39-.89.43-1.72.99-2.74,1.15-.44.31-1.16.16-1.45.61-.31.49-.44,1.09-.62,1.65-.12.37.27.96.66,1.04.47-.3.88.09,1.33.1.7.02,1.4,0,2.09.06.66.06,1.15-.46,1.78-.43.14,0,.28.1.41.15-.06.12-.1.26-.19.36-.1.11-.23.21-.36.27-.42.19-.83.41-1.27.53-.38.1-.72.26-1.07.41-1.19.5-1.2.5-2.46.47-.86-.01-1.62-.54-1.85-1.4-.11-.44-.36-.82-.48-1.24-.11-.43,0-.9-.24-1.3Zm1.88,2.78c.08.07.16.18.26.21.14.05.3.03.22.03.39,0,.54.01.69,0,.07,0,.13-.08.19-.12-.09-.08-.17-.21-.26-.22-.3-.03-.61-.03-.91-.02-.06,0-.12.08-.19.12Zm1.4-7c.08-.06.12-.17.16-.27.02,0,.04-.02.05-.03l-.03-.03s-.02.03-.03.05c-.1.05-.22.09-.28.17-.12.15-.04.23.12.1Z"/>
    <path class="cls-1" d="m178.31,170.94c-.22-.35-.2-.66,0-1.04.31-.59.71-1.16.74-1.85.55-1.19,1.31-2.19,2.6-2.73.21-.09.42-.19.62-.3.63-.34,1.3-.48,2.01-.45.61.03,1.24-.1,1.84.11.18.06.22.19.21.35,0,.16-.05.3-.23.35-.68.19-1.38.12-2.07.11-.82,0-1.5.27-2.13.72-.05.03-.06.11-.09.17.53.01,1.04-.03,1.54-.28.41-.22.73.04.98.34.05.06.09.14.08.2,0,.05-.1.11-.17.12-.23.03-.45.07-.68.07-.41,0-.75.17-1.02.45-.21.22-.38.46-.57.69.07.04.13.1.2.11.4.08.76-.03,1.11-.2.44-.22.9-.19,1.36-.09.11.03.21.19.27.3.08.16.02.31-.14.39-.89.43-1.72.99-2.74,1.15-.44.31-1.16.16-1.45.61-.31.49-.44,1.09-.62,1.65-.12.37.27.96.66,1.04.47-.3.88.09,1.33.1.7.02,1.4,0,2.09.06.66.06,1.15-.46,1.78-.43.14,0,.28.1.41.15-.06.12-.1.26-.19.36-.1.11-.23.21-.36.27-.42.19-.83.41-1.27.53-.38.1-.72.26-1.07.41-1.19.5-1.2.5-2.46.47-.86-.01-1.62-.54-1.85-1.4-.11-.44-.36-.82-.48-1.24-.11-.43,0-.9-.24-1.3Zm1.88,2.78c.08.07.16.18.26.21.14.05.3.03.22.03.39,0,.54.01.69,0,.07,0,.13-.08.19-.12-.09-.08-.17-.21-.26-.22-.3-.03-.61-.03-.91-.02-.06,0-.12.08-.19.12Zm1.4-7c.08-.06.12-.17.16-.27.02,0,.04-.02.05-.03l-.03-.03s-.02.03-.03.05c-.1.05-.22.09-.28.17-.12.15-.04.23.12.1Z"/>
    <path class="cls-1" d="m190.27,171.89c-.48,1.15-.95,2.31-1.44,3.45-.11.25-.33.45-.73.57.05-.33.09-.66.15-.98.26-1.41.52-2.82.78-4.23.47-2.5,1.46-4.8,2.76-7.01.41-.7.75-1.43,1.16-2.24.2.15.33.24.46.34-.05.04-.11.07-.1.06,0,.01.03-.04.07-.09.18-.3.35-.61.54-.93.34-.04.68-.08,1.17-.14,1.93,2.85,2.82,6.1,3.56,9.6,1.36-2.87,1.66-5.86,2.6-8.67,1.09,0,1.11.82,1.48,1.37-.85,4.01-2.07,7.92-3.42,11.76-1.04.47-1.55-.78-2.37-.45-.91-.79-1.4-1.66-1.65-2.73-.35-1.49-.86-2.95-1.31-4.43-.06-.21-.17-.4-.4-.9-.6,2.53-1.79,4.57-2.27,6.84-.11.53-.31,1.04-.53,1.54-.1.22-.33.39-.66.75-.39-1.35.35-2.43.12-3.52.08-.19.16-.37.23-.56-.06-.02-.11-.03-.17-.05-.02.21-.03.41-.05.62Zm4.65-10.63c-.13.32-.23.56-.32.78.32.37.6.69.88,1.02.04-.02.09-.04.13-.06-.22-.55-.44-1.09-.7-1.73Zm2.75,10.88c.03.14.06.27.09.41.06-.03.11-.06.17-.09-.09-.1-.18-.2-.27-.3.05-.35.09-.7.13-1.05-.35-.73-.53-1.51-.77-2.26-.25-.79-.57-1.55-.86-2.33-.16.44-.15.85-.05,1.23.31,1.17.65,2.34,1.02,3.49.1.32.36.6.54.91Zm-.86,1.09s.08.09.08.08c.01,0-.04-.03-.09-.07-.03-.14-.06-.27-.09-.4-.05.02-.1.05-.14.07.08.11.16.22.24.32Zm1.59,1.08v-.47c-.06.07-.11.11-.11.13.01.07.05.15.11.34Z"/>
    <path class="cls-1" d="m215.68,174.57c-.23,0-.49,0-.63-.21-.24-.38-.46-.77-.69-1.15-.1-.17-.22-.21-.31-.1-.05.05-.09.13-.1.19-.03.3-.03.59-.07.89,0,.06-.09.18-.13.17-.13-.02-.3-.04-.38-.13-.15-.16-.32-.36-.34-.56-.07-.59-.08-1.19-.12-1.78,0-.07-.07-.2-.09-.19-.14.02-.31.03-.39.11-.71.68-1.41,1.38-2.12,2.07-.33.31-.68.61-1.02.9-.13.12-.27.11-.43.05-.29-.12-.58-.12-.9-.06-.54.11-1.63-.17-1.95-.43-.12-.1-.25-.2-.31-.32-.42-.87-.99-1.67-1.17-2.64,0-.01,0-.02-.02-.03v-1.49c.14-.08.17-.34.25-.5.13-.27.27-.55.28-.84.02-.54.23-1.01.47-1.48.3-.6.67-1.17.93-1.79.46-1.06,1.21-1.9,2.08-2.65.64-.55,1.38-.95,2.27-1,.31-.02.61-.09.89-.22.13-.06.31-.13.44-.1.59.16,1.17.34,1.74.54.26.09.51.48.48.69-.03.25-.21.36-.42.47-.31.17-.32.27-.16.48.14.18.29.35.42.53.02.03,0,.13-.03.16-.05.05-.13.07-.2.08-.08,0-.17.01-.23-.02-.87-.53-1.75-.47-2.66-.11-.35.14-.75.2-1.08.37-.47.24-.92.55-1.36.84-.65.43-1.21.94-1.25,1.77-.33.53-.4,1.11-.4,1.71,0,.89,0,1.79,0,2.68,0,.47.2.86.55,1.19.28.26.56.51.85.76.14.13.27.08.42-.02.99-.66,1.49-1.69,2.18-2.57.09-.11.13-.27.16-.41.28-1.2,1.15-2.07,1.79-3.07.16-.26.6-.22.76.06.3.52.57,1.04.86,1.57.22.4.38.82.33,1.28-.09.85.2,1.61.6,2.34.25.46.5.92.74,1.39.12.22-.21.6-.52.58Zm-5.31-11.85c.12.05.23.15.35.15.21,0,.36-.13.41-.33.01,0,.02,0,.04,0,0,0,0,0-.01-.01h.01s.01,0,.02-.01c.44-.01.88-.02,1.32-.05.19-.01.28-.13.23-.21-.03-.05-.12-.11-.18-.11-.38.01-.75.03-1.12.09-.1.02-.17.18-.25.29-.02,0-.03,0-.05,0,0,.01,0,.02,0,.03-.2.02-.39.03-.59.07-.06,0-.11.08-.17.12Z"/>
    <path class="cls-1" d="m218.03,173.68c.34-.85.39-1.73.39-2.62,0-.59.06-1.18.34-1.74.13-.26.11-.58.13-.87.05-.59.13-1.16.29-1.75.28-1,.3-2.05-.08-3.06-.19-.5-.1-.65.44-.76.31-.06.6-.12.74-.44.06-.14.14-.27.22-.39.33-.51.85-.63,1.41-.57.21.02.52.15.58.31.31.76.63,1.51,1.01,2.24.06.82.37,1.58.59,2.36.06.21.03.46.11.66.32.76.6,1.53.74,2.32.13.72.1,1.49.06,2.23-.05.86.23,1.61.61,2.34.1.19.17.4.18.42.08.37-.34.85-.53.84-.07,0-.14-.03-.2-.06-.26-.17-.44-.4-.58-.67-.69-1.33-1.39-2.65-2.1-3.97-.06-.12-.22-.2-.35-.28-.04-.03-.14,0-.19.03-.12.09-.26.18-.34.3-.34.5-.65,1.01-.68,1.63-.03.7-.42,1.26-.72,1.86-.1.19-.3.33-.46.49-.24.24-.51.28-.83.12-.14-.07-.28-.13-.41-.2-.28-.16-.46-.47-.35-.75Z"/>
    <path class="cls-1" d="m239.05,174.57c-.23,0-.49,0-.63-.21-.24-.38-.46-.77-.69-1.15-.1-.17-.22-.21-.31-.1-.05.05-.09.13-.1.19-.03.3-.03.59-.07.89,0,.06-.09.18-.13.17-.13-.02-.3-.04-.38-.13-.15-.16-.32-.36-.34-.56-.07-.59-.08-1.19-.12-1.78,0-.07-.07-.2-.09-.19-.14.02-.31.03-.39.11-.71.68-1.41,1.38-2.12,2.07-.33.31-.68.61-1.02.9-.13.12-.27.11-.43.05-.29-.12-.58-.12-.9-.06-.54.11-1.63-.17-1.95-.43-.12-.1-.25-.2-.31-.32-.42-.87-.99-1.67-1.17-2.64,0-.01,0-.02-.02-.03v-1.49c.14-.08.17-.34.25-.5.13-.27.27-.55.28-.84.02-.54.23-1.01.47-1.48.3-.6.67-1.17.93-1.79.46-1.06,1.21-1.9,2.08-2.65.64-.55,1.38-.95,2.27-1,.31-.02.61-.09.89-.22.13-.06.31-.13.44-.1.59.16,1.17.34,1.74.54.26.09.51.48.48.69-.03.25-.21.36-.42.47-.31.17-.32.27-.16.48.14.18.29.35.42.53.02.03,0,.13-.03.16-.05.05-.13.07-.2.08-.08,0-.17.01-.23-.02-.87-.53-1.75-.47-2.66-.11-.35.14-.75.2-1.08.37-.47.24-.92.55-1.36.84-.65.43-1.21.94-1.25,1.77-.33.53-.4,1.11-.4,1.71,0,.89,0,1.79,0,2.68,0,.47.2.86.55,1.19.28.26.56.51.85.76.14.13.27.08.42-.02.99-.66,1.49-1.69,2.18-2.57.09-.11.13-.27.16-.41.28-1.2,1.15-2.07,1.79-3.07.16-.26.6-.22.76.06.3.52.57,1.04.86,1.57.22.4.38.82.33,1.28-.09.85.2,1.61.6,2.34.25.46.5.92.74,1.39.12.22-.21.6-.52.58Zm-5.31-11.85c.12.05.23.15.35.15.21,0,.36-.13.41-.33.01,0,.02,0,.04,0,0,0,0,0-.01-.01h.01s.01,0,.02-.01c.44-.01.88-.02,1.32-.05.19-.01.28-.13.23-.21-.03-.05-.12-.11-.18-.11-.38.01-.75.03-1.12.09-.1.02-.17.18-.25.29-.02,0-.03,0-.05,0,0,.01,0,.02,0,.03-.2.02-.39.03-.59.07-.06,0-.11.08-.17.12Z"/>
    <path class="cls-1" d="m249.69,167.61c-.06.23-.21.43-.43.55-.03.02-.06.04-.1.06-.14.11-.31.19-.48.24-1.64.38-3.01.69-4.4.98-.32.07-.36.14-.38.31-.04.31-.06.63-.09.94-.04.95-.2,1.9-.48,2.81-.05.21-.07.43-.06.65v.03s.03,0,.04,0c.25-.03.5-.08.75-.15l.29-.09c1.05-.33,2.05-.64,2.94-1.21.19-.15.44-.21.69-.16.21.06.39.21.47.41.06.04.12.07.19.09.04.01.07.02.11.02.31,0,.57.24.58.54.09.47-.19.92-.66,1.07-.25.09-.51.16-.76.24-.14.04-.29.08-.43.13-.47.14-.95.24-1.43.3-.63.08-1.25.23-1.83.47-.06.03-.11.05-.17.08-.29.1-.54.26-.75.48-.25.26-.6.42-.97.46-.04,0-.09,0-.13,0-.19,0-.38-.06-.53-.17-.2-.18-.31-.43-.31-.69,0-.13,0-.27.03-.4.08-.41.14-.83.18-1.25.04-.52.12-1.04.24-1.55.15-.69.24-1.39.26-2.1.02-.28.03-.55.06-.83,0-.06,0-.12-.02-.17-.28-.18-.47-.47-.51-.79.01-.34.19-.66.47-.86.03-.1.04-.2.04-.3,0-.06,0-.11.01-.16.02-.23.04-.47.06-.71.03-.31.05-.64.09-.96.05-.42.08-.79-.12-1.11-.36-.56-.04-.89.18-1.03.19-.12.22-.18.22-.19,0,0,0-.04-.13-.14-.17-.14-.11-.35-.03-.54.04-.1.12-.32.36-.3.12,0,.25-.04.36-.09.3-.16.67-.17.98-.02.03,0,.06.01.08.01.14-.14.35-.2.55-.16.14.05.25.17.3.31l.35-.1c.58-.17,1.18-.34,1.75-.56l.12-.05c.41-.18.85-.29,1.3-.3.62.01,1.02.27,1.1.69.14.73-.19,1.04-.5,1.16-1.03.42-2.04.8-2.99,1.14-.3.09-.62.05-.9-.09-.08-.05-.1-.04-.27,0h-.04c-.42.14-.67.22-.76.32-.09.11-.11.38-.15.82l-.03.29v.27c-.01.08-.02.16-.03.23,0,.19-.03.38-.06.56-.02.08-.03.17-.03.26.13.03.26.04.39.03.51.02,1.02-.04,1.51-.18.52-.17,1.07-.26,1.62-.26.4,0,.8-.05,1.19-.14.38-.1.78.06.97.38.1.14.14.32.11.48Zm-5.87-8.07c-.14-.24-.19-.53-.13-.8.08-.26.23-.49.44-.67.33-.32.67-.62,1.01-.93.3-.27.6-.54.89-.82.31-.33.8-.45,1.23-.29.11.04.21.11.28.2.01.01.03.03.04.04l.16.14-.1.18c-.09.17-.18.34-.27.51-.19.38-.38.73-.59,1.08-.38.62-.97,1-1.54,1.37-.1.07-.21.13-.31.2-.14.1-.31.15-.48.15-.05,0-.1,0-.15-.02-.2-.04-.38-.17-.48-.34Z"/>
    <path class="cls-1" d="m251.65,170.94c-.22-.35-.2-.66,0-1.04.31-.59.71-1.16.74-1.85.55-1.19,1.31-2.19,2.6-2.73.21-.09.42-.19.62-.3.63-.34,1.3-.48,2.01-.45.61.03,1.24-.1,1.84.11.18.06.22.19.21.35,0,.16-.05.3-.23.35-.68.19-1.38.12-2.07.11-.82,0-1.5.27-2.13.72-.05.03-.06.11-.09.17.53.01,1.04-.03,1.54-.28.41-.22.73.04.98.34.05.06.09.14.08.2,0,.05-.1.11-.17.12-.23.03-.45.07-.68.07-.41,0-.75.17-1.02.45-.21.22-.38.46-.57.69.07.04.13.1.2.11.4.08.76-.03,1.11-.2.44-.22.9-.19,1.36-.09.11.03.21.19.27.3.08.16.02.31-.14.39-.89.43-1.72.99-2.74,1.15-.44.31-1.16.16-1.45.61-.31.49-.44,1.09-.62,1.65-.12.37.27.96.66,1.04.47-.3.88.09,1.33.1.7.02,1.4,0,2.09.06.66.06,1.15-.46,1.78-.43.14,0,.28.1.41.15-.06.12-.1.26-.19.36-.1.11-.23.21-.36.27-.42.19-.83.41-1.27.53-.38.1-.72.26-1.07.41-1.19.5-1.2.5-2.46.47-.86-.01-1.62-.54-1.85-1.4-.11-.44-.36-.82-.48-1.24-.11-.43,0-.9-.24-1.3Zm1.88,2.78c.08.07.16.18.26.21.14.05.3.03.22.03.39,0,.54.01.69,0,.07,0,.13-.08.19-.12-.09-.08-.17-.21-.26-.22-.3-.03-.61-.03-.91-.02-.06,0-.12.08-.19.12Zm1.4-7c.08-.06.12-.17.16-.27.02,0,.04-.02.05-.03l-.03-.03s-.02.03-.03.05c-.1.05-.22.09-.28.17-.12.15-.04.23.12.1Z"/>
  </g>
  <g>
    <path class="cls-1" d="m88.43,116.2h2.36v19.09h5.37v2.07h-7.73v-21.16Z"/>
    <path class="cls-1" d="m98.71,116.2h8.19v2.07h-5.86v7.35h4.29v1.89h-4.29v7.77h5.86v2.07h-8.19v-21.16Z"/>
    <path class="cls-1" d="m107.99,132.86h2.33c0,1.92,1.21,2.64,2.65,2.64s2.46-.9,2.46-2.34c0-.96-.23-1.71-1.38-3.21l-4.03-5.37c-1.18-1.59-1.84-3.09-1.84-4.38,0-2.61,2.06-4.2,4.72-4.2s4.72,1.62,4.72,4.56h-2.29c0-1.8-1.18-2.52-2.46-2.52-1.34,0-2.39.78-2.39,2.16,0,.99.46,1.92,1.28,3.03l4.06,5.37c1.44,1.92,1.93,3.18,1.93,4.65,0,2.58-1.93,4.32-4.82,4.32s-4.95-1.68-4.95-4.71Z"/>
    <path class="cls-1" d="m123.58,132.86h2.33c0,1.92,1.21,2.64,2.65,2.64s2.46-.9,2.46-2.34c0-.96-.23-1.71-1.38-3.21l-4.03-5.37c-1.18-1.59-1.84-3.09-1.84-4.38,0-2.61,2.06-4.2,4.72-4.2s4.72,1.62,4.72,4.56h-2.29c0-1.8-1.18-2.52-2.46-2.52-1.34,0-2.39.78-2.39,2.16,0,.99.46,1.92,1.28,3.03l4.06,5.37c1.44,1.92,1.93,3.18,1.93,4.65,0,2.58-1.93,4.32-4.82,4.32s-4.95-1.68-4.95-4.71Z"/>
    <path class="cls-1" d="m135.58,132.89v-16.69h2.33v16.77c0,1.83,1.38,2.49,2.59,2.49,1.38,0,2.56-.78,2.56-2.49v-16.77h2.33v16.69c0,2.73-2.03,4.65-4.88,4.65s-4.91-1.92-4.91-4.65Z"/>
    <path class="cls-1" d="m148.78,116.2h4.49c2.88,0,4.88,1.62,4.88,4.77v5.13c0,2.61-1.21,3.87-2.95,4.44l3.05,6.81h-2.59l-2.69-6.27h-1.84v6.27h-2.36v-21.16Zm4.23,12.84c1.67,0,2.85-.6,2.85-3.39v-4.68c0-2.04-1.28-2.7-2.85-2.7h-1.87v10.77h1.87Z"/>
    <path class="cls-1" d="m161.03,132.92v-12.21c0-2.76,2-4.68,4.88-4.68s4.85,1.89,4.88,4.62h-2.33c0-1.71-1.15-2.52-2.56-2.52s-2.56.81-2.56,2.49v12.36c0,1.83,1.34,2.52,2.56,2.52,1.41,0,2.56-.81,2.56-2.52v-3.48h-2.62v-1.89h4.95v5.31c0,2.73-2,4.62-4.88,4.62s-4.88-1.89-4.88-4.62Z"/>
    <path class="cls-1" d="m173.94,116.2h8.19v2.07h-5.86v7.35h4.29v1.89h-4.29v7.77h5.86v2.07h-8.19v-21.16Z"/>
    <path class="cls-1" d="m185.21,116.2h2.36v19.09h5.37v2.07h-7.73v-21.16Z"/>
    <path class="cls-1" d="m195.5,116.2h8.19v2.07h-5.86v7.35h4.29v1.89h-4.29v7.77h5.86v2.07h-8.19v-21.16Zm4.65-4.53h2.39l-2.1,3.06h-1.8l1.51-3.06Z"/>
    <path class="cls-1" d="m204.77,132.86h2.33c0,1.92,1.21,2.64,2.65,2.64s2.46-.9,2.46-2.34c0-.96-.23-1.71-1.38-3.21l-4.03-5.37c-1.18-1.59-1.83-3.09-1.83-4.38,0-2.61,2.06-4.2,4.72-4.2s4.72,1.62,4.72,4.56h-2.29c0-1.8-1.18-2.52-2.46-2.52-1.34,0-2.39.78-2.39,2.16,0,.99.46,1.92,1.28,3.03l4.06,5.37c1.44,1.92,1.93,3.18,1.93,4.65,0,2.58-1.93,4.32-4.82,4.32s-4.95-1.68-4.95-4.71Z"/>
  </g>
  <g>
    <path class="cls-1" d="m98.79,92.61c-1.48,0-3.53-.17-5.85-1.02-6.68-2.46-10.79-8.78-11.28-12.2-.52-3.65.07-27.71.33-29.77.17-1.35,4.34-7.5,7.76-6.9,1.72.3,2.99,2.14,3.12,3.03,1.26,8.16-4.79,23.1-2.6,30.69.15.52,4.72,6.73,7.66,6.64,2.38-.07,11.22-4.45,16.94-12.04,5.36-7.12,7.1-11.57,9.26-13.42.91-.78,2.48-1.53,4.29-1.4,2.51.18,4.29,2.13,5.03,3.05,1.02,1.26,3.91,20.11,4.71,24.34.08.43-.17.84-.6.96-1.24.35-2.87.58-4.64.2-6.24-1.34-6.45-7.03-8.22-7.03-2.6,0-6.37,14.87-25.91,14.87Z"/>
    <circle class="cls-1" cx="103.24" cy="27.09" r="5.44"/>
    <circle class="cls-1" cx="123.38" cy="30.47" r="5.44"/>
  </g>
  <rect class="cls-1" x="43.74" y="97.94" width="1.36" height="58.59" transform="translate(-82.88 171.46) rotate(-89.91)"/>
  <rect class="cls-1" x="254.9" y="97.58" width="1.36" height="58.59" transform="translate(128.31 382.25) rotate(-89.91)"/>
  <path class="cls-1" d="m75.23,90.04c-2.01-1.38-2.24-3.81-2.27-4.21-1.22-19.5-2.44-39.01-3.65-58.5h-4.59l-40.03,56.14c-1,1.64-2.8,4-5.71,5.89-1.07.69-2.12,1.21-3.05,1.59v1.66h17.96l.26-1.74c-3.9.24-6.99-1.56-7.61-3.94-.11-.46-.3-1.53.38-3.03,3.54-5.27,7.08-10.53,10.61-15.8l20.06.03.67,17.59c-.03,1.13-.37,1.91-.64,2.39-1.22,2.12-4.14,3.16-7.37,2.71v1.78h26.95v-1.78c-.53-.1-1.25-.3-1.97-.79Zm-36.36-23.75l17.37-24.69,1.19,24.69h-18.57Z"/>
  <path class="cls-1" d="m195.32,38.79l.58-1.64h26.06l-.37,1.64c-.4-.05-4.55-.51-6.59,2.21-.3.4-.62.96-.83,1.74-3.15,11.42-6.29,22.84-9.44,34.26-2.12,6.93-1.31,13.18,2.06,15.35,1.51.98,3.44,1.07,5.01,1.15.9.05,4.69.16,8.75-2.07,3.58-1.96,5.44-4.68,6.96-6.9,1.78-2.6,2.79-5.03,3.38-6.75,2.92-11.07,5.84-22.13,8.76-33.2.06-.46.18-1.82-.61-3.23-.75-1.33-1.87-1.92-2.28-2.12-1.51-.76-2.92-.6-3.44-.52.11-.53.21-1.06.32-1.59h16.01l-.42,1.69c-.89.06-2.51.3-4.14,1.35-3.1,2.01-3.77,5.37-3.89,6.05-2.89,10.52-5.78,21.03-8.67,31.55-.42,1.84-2.35,9.37-9.66,14.38-5.96,4.09-12,4.09-13.85,4.06-3.73-.05-10.08-.14-14.27-5.11-4.93-5.85-2.89-13.76-2.65-14.66,2.93-11.53,5.86-23.06,8.8-34.58.02-.35,0-1.01-.39-1.62-.47-.71-1.21-.94-2.09-1.2-.65-.19-1.72-.41-3.1-.28Z"/>
  <path class="cls-1" d="m166.39,71.41v-4.41c0-.99.8-1.8,1.8-1.8h15.78c.44,0,.81.37.83.81.25,6.82.59,8.75.38,13-.25,5.09-.49,5.15-.59,9.39-.08,3.12,0,5.75.1,7.64.02.35-.22.65-.56.7-1.38.2-2.99.34-4.77.32-2.03-.02-3.83-.23-5.35-.51-.37-.07-.62-.39-.62-.76v-2c0-.24-.27-.37-.45-.22-1.53,1.21-5.69,3.44-10.64,3.32-7.36-.18-11.21-5.67-12.07-6.8-3.14-4.11-3.44-8.26-4.04-16.45-.28-3.86,0-10.76.85-16.19,1.05-6.7,2.49-11.59,6.8-15.89.58-.58,8.66-6.88,17.37-6.09,1.14.1,9.32.94,11.91,7.03.8,1.87,1.22,3.45,1.23,7.22,0,1.9.21,3.84.17,5.11-.01.44-.33.82-.77.88-1.13.16-2.4-.01-3.68.08-1.71.12-3.31.14-4.77.1-.23-.12-.82-.24-.92-.73-.37-1.85-.73-4.02-1.1-5.87-.13-.64-.64-1.12-1.27-1.26-3.26-.72-5.46.07-6.33.45-4.59,2.01-5.99,7.41-6.79,10.5-.41,1.58-.53,4.01-.76,8.88-.29,6.06-.01,8.05.42,9.77.62,2.43,1.77,5.66,3.21,6.36,1.32.64,3.68.94,4.73.95,1.26.01,2.98.03,4.42-.89,2.27-1.46,2.63-4.51,2.66-6.06,0-.54-.39-.99-.93-1.06l-4.74-.38c-.79-.09-1.4-.73-1.46-1.52l-.04-3.65Z"/>
  <path class="cls-1" d="m284.54,88.86s-.12-.77-.48-1.49c-.8-1.59-2.46-2.28-3.83-3.37-.81-.65-2.31-2.33-3.27-3.39-1.6-1.74-9.26-6.13-12.05-6.64-.15-.03-.18-.2-.05-.27,2.67-1.56,5.56-3.52,8.51-5.96,1.24-1.03,2.38-2.06,3.43-3.08,1.25-1.29,2.84-3.23,4.18-5.89.62-1.25,1.09-2.43,1.43-3.5.41-1.29.56-2.63.43-3.98-.16-1.57-.43-3.34-.9-5.23-.43-1.74-.95-3.3-1.49-4.66-.6-.99-2.06-3.12-4.83-4.61-2.42-1.3-4.67-1.49-5.81-1.52-1.44-.07-3.79,0-6.47.96-2.33.84-4.03,2.02-5.08,2.89-1.63,2.17-3.43,4.42-5.44,6.73-1.6,1.85-3.19,3.54-4.74,5.13-.54.72-1.14,1.66-1.67,2.8-.67,1.43-1.03,2.73-1.24,3.76-.23,2.14-.43,4.34-.58,6.6-.34,4.68-.46,9.15-.45,13.38,0,.69-.1,1.36-.3,2.01-.16.53-.37,1.11-.58,1.76-.03.07-.12.3-.2.62,0,0-.09.34-.15.68-.16.9.14,2.08.14,2.08.27,1.05.94,4.75,1.86,10,1.25,2.05,3.41,2.76,4.76,2.05.99-.52,1.32-1.68,1.4-2.05l.83-6.56.75-6.88c.3-.75.81-1.67,1.76-2.2,1.53-.87,3.73-.52,9.43,2.67,3.8,2.12,6.91,4.25,8.96,5.69,5.51,3.9,7.99,6.12,10.04,5.21.87-.38,1.36-1.19,1.62-1.75.11-.43.22-1.15.08-2.01Zm-23.41-28.45c-1.91,1.47-3.61,2.74-4.32,2.25-.38-.27-.3-.95,1.25-6.58,1.07-3.91,1.48-5.24,2.65-6.76.98-1.26,2-2.05,2.31-2.28,1.22-.91,1.57-.8,3.43-1.78,2.43-1.29,3.39-2.31,5.67-2.82.58-.14,1.14-.2,1.6.1,1,.67.69,2.59.65,2.81-2.73,3.98-5.25,7.11-7.21,9.41-.46.54-2.65,3.04-6.04,5.66Z"/>
</svg>