<?xml version="1.0" encoding="UTF-8"?>
<svg id="Calque_1" data-name="Calque 1" xmlns="http://www.w3.org/2000/svg" viewBox="0 0 300 300">
  <defs>
    <style>
      .cls-1 {
        fill: #f5eb69;
      }

      .cls-2 {
        fill: #191f23;
      }
    </style>
  </defs>
  <rect class="cls-1" y="-.57" width="300" height="300"/>
  <g>
    <g>
      <path class="cls-2" d="m71.86,203.32s-.02-.1-.02-.16c0-1.44,0-2.88.01-4.33,0-.23.14-.4.32-.53.04-.03.11-.06.15-.05.04,0,.09.06.1.1.03.26.06.52.07.79,0,.64,0,1.28,0,1.92h-.01c.02.8.03,1.6.05,2.4,0,.18.1.31.25.38.21.09.43.08.63-.05.05-.03.09-.06.13-.1.24-.22.45-.46.62-.74.29-.47.36-1,.57-1.49.12-.28.08-.63.1-.95.02-.42-.03-.86.21-1.25-.38-.49.09-.91.1-1.37,0-.11.02-.21.03-.32,0-.05.02-.1.05-.15.02-.04.07-.08.1-.12.04.04.1.07.11.12.09.31.17.61.31.9.09.19.09.42,0,.62-.11.2-.13.39-.02.6.11.2.12.43.03.62-.13.3-.24.59-.24.92-.02.76-.37,1.44-.66,2.12-.3.7-.92,1.04-1.61,1.28-.09.03-.22-.01-.32-.05-.1-.03-.19-.12-.3-.15-.52-.14-.57-.61-.78-.97Z"/>
      <path class="cls-2" d="m78.67,202c-.34.83-.68,1.66-1.04,2.48-.08.18-.23.32-.52.41.03-.24.06-.47.11-.71.18-1.01.37-2.02.56-3.03.34-1.79,1.05-3.45,1.98-5.03.29-.5.54-1.03.84-1.61.14.11.23.17.33.24-.04.03-.08.05-.07.05,0,0,.02-.03.05-.06.13-.22.25-.44.38-.67.24-.03.49-.06.84-.1,1.38,2.04,2.02,4.38,2.56,6.89.98-2.06,1.19-4.2,1.86-6.22.78,0,.8.59,1.06.98-.61,2.88-1.49,5.69-2.46,8.44-.75.34-1.11-.56-1.7-.32-.66-.56-1-1.19-1.18-1.96-.25-1.07-.61-2.12-.94-3.18-.05-.15-.13-.29-.29-.65-.43,1.82-1.28,3.28-1.63,4.91-.08.38-.22.75-.38,1.11-.07.16-.23.28-.47.54-.28-.97.25-1.74.08-2.52.06-.13.11-.27.17-.4-.04-.01-.08-.02-.12-.04-.01.15-.03.3-.04.45Zm3.33-7.63c-.09.23-.17.4-.23.56.23.26.43.5.64.73.03-.01.06-.03.09-.04-.16-.39-.31-.78-.5-1.24Zm1.98,7.81c.02.1.04.19.06.29.04-.02.08-.04.12-.06-.07-.07-.13-.14-.2-.22.03-.25.06-.5.1-.75-.25-.52-.38-1.08-.55-1.62-.18-.56-.41-1.11-.62-1.67-.11.32-.11.61-.04.88.22.84.46,1.68.73,2.51.07.23.26.43.39.65Zm-.61.78s.06.06.05.06c0,0-.03-.02-.06-.05-.02-.1-.04-.19-.06-.29-.03.02-.07.03-.1.05.06.08.12.16.17.23Zm1.14.77v-.34c-.04.05-.08.08-.08.1,0,.05.03.11.08.24Z"/>
      <path class="cls-2" d="m89.01,201.31c-.16-.25-.15-.48,0-.74.22-.42.51-.83.53-1.33.4-.85.94-1.57,1.87-1.96.15-.06.3-.14.45-.21.45-.24.93-.34,1.44-.32.44.02.89-.07,1.32.08.13.04.16.13.15.25,0,.12-.04.21-.16.25-.49.14-.99.08-1.49.08-.59,0-1.08.2-1.53.52-.03.02-.04.08-.06.12.38.01.75-.02,1.1-.2.3-.16.52.03.71.25.03.04.07.1.06.15,0,.04-.07.08-.12.09-.16.02-.33.05-.49.05-.3,0-.54.12-.73.33-.15.16-.27.33-.41.5.05.03.09.07.14.08.29.06.55-.02.8-.14.31-.16.65-.14.98-.06.08.02.15.13.19.22.06.11.02.22-.1.28-.64.31-1.24.71-1.97.83-.32.22-.83.11-1.04.44-.23.35-.32.78-.45,1.18-.09.27.19.69.47.75.34-.22.63.07.95.08.5.01,1,0,1.5.04.48.04.82-.33,1.28-.31.1,0,.2.07.3.11-.04.09-.07.19-.13.26-.07.08-.16.15-.26.2-.3.14-.6.29-.91.38-.27.08-.52.19-.77.29-.86.36-.86.36-1.77.34-.62-.01-1.17-.39-1.33-1.01-.08-.32-.26-.58-.34-.89-.08-.31,0-.65-.17-.94Zm1.35,2c.06.05.11.13.19.15.1.03.22.02.16.02.28,0,.39,0,.5,0,.05,0,.09-.05.14-.08-.06-.05-.12-.15-.19-.16-.22-.02-.44-.02-.66-.02-.05,0-.09.06-.13.09Zm1-5.03c.06-.04.08-.12.12-.19.01,0,.03-.01.04-.02l-.02-.02s-.01.02-.02.04c-.07.04-.16.06-.2.12-.09.11-.03.16.09.08Z"/>
      <path class="cls-2" d="m108.89,198.22c-.08,1.89-.74,3.58-1.92,5.09-.52.67-2.37,1.21-3.18.89-.28-.12-.66-.62-.59-.81.19-.52.06-.81-.3-1.2-.26-.28-.41-.76-.4-1.15.07-1.32.15-2.64.38-3.94.19-1.06.6-2.07.34-3.17-.02-.07.09-.24.15-.24.15,0,.35.02.45.11.52.46.73,1.04.72,1.71,0,.09.08.19.12.28.09-.06.21-.1.27-.18.19-.26.32-.56.52-.8.73-.83,1.91-.82,2.53.09.67.99,1.04,2.09.9,3.31Zm-1.38-1c0-.11,0-.21,0-.32.04-.58-.07-1.12-.54-1.54-.26.5-.68.98-.75,1.5-.24,1.77-.53,3.51-1.66,5-.04.06.02.19.04.29.09-.02.2,0,.26-.06,1.6-1.26,2.57-2.85,2.65-4.88Z"/>
      <path class="cls-2" d="m116.15,198.92c-.04.16-.15.31-.3.39-.02.01-.05.03-.07.04-.1.08-.22.14-.35.17-1.18.27-2.16.5-3.16.7-.23.05-.26.1-.27.22-.03.22-.05.45-.06.68-.03.68-.15,1.36-.35,2.02-.04.15-.05.31-.04.47v.02s.02,0,.03,0c.18-.02.36-.06.54-.11l.21-.06c.76-.23,1.47-.46,2.11-.87.14-.11.32-.15.49-.12.15.05.28.15.34.3.04.03.09.05.13.06.03,0,.05.01.08.02.22,0,.41.17.42.39.07.33-.14.66-.47.77-.18.06-.37.12-.55.17-.1.03-.21.06-.31.09-.34.1-.68.17-1.02.22-.45.05-.9.17-1.32.34-.04.02-.08.04-.12.05-.21.07-.39.19-.54.34-.18.19-.43.3-.7.33-.03,0-.06,0-.09,0-.14,0-.27-.04-.38-.12-.14-.13-.22-.31-.22-.49,0-.1,0-.19.02-.29.06-.3.1-.6.13-.9.03-.37.09-.75.17-1.11.11-.5.17-1,.18-1.51.01-.2.02-.4.04-.59,0-.04,0-.08-.02-.12-.2-.13-.34-.33-.36-.57.01-.24.13-.47.34-.62.02-.07.03-.14.03-.21,0-.04,0-.08,0-.11.02-.17.03-.34.05-.51.02-.23.04-.46.07-.69.04-.3.06-.57-.09-.8-.26-.4-.03-.64.13-.74.14-.09.16-.13.16-.14,0,0,0-.03-.1-.1-.12-.1-.08-.25-.02-.39.03-.07.09-.23.26-.22.09,0,.18-.03.26-.07.22-.11.48-.12.7-.02.02,0,.04,0,.06,0,.1-.1.25-.14.39-.11.1.04.18.12.21.22l.25-.08c.42-.12.85-.25,1.26-.4l.09-.03c.29-.13.61-.21.93-.22.44.01.73.19.79.49.1.53-.14.74-.36.83-.74.3-1.46.58-2.15.82-.22.06-.45.04-.65-.06-.06-.03-.07-.03-.19,0h-.03c-.3.1-.48.16-.54.23-.06.08-.08.27-.11.59l-.02.21v.19c-.01.06-.01.11-.02.17,0,.14-.02.27-.04.4-.01.06-.02.12-.02.18.09.02.19.03.28.02.37.02.73-.03,1.08-.13.38-.12.77-.18,1.16-.19.29,0,.57-.04.86-.1.27-.07.56.04.69.27.07.1.1.23.08.35Zm-4.21-5.79c-.1-.17-.14-.38-.09-.58.06-.19.17-.35.32-.48.24-.23.48-.45.72-.67.21-.19.43-.39.64-.59.22-.24.57-.32.88-.21.08.03.15.08.2.14,0,.01.02.02.03.03l.11.1-.07.13c-.07.12-.13.24-.19.36-.14.27-.27.52-.42.78-.27.45-.7.72-1.11.98-.08.05-.15.1-.22.14-.1.07-.22.11-.34.11-.04,0-.07,0-.11-.01-.15-.03-.27-.12-.34-.24Z"/>
      <path class="cls-2" d="m122.09,201.2c1.01-2.14,2.01-4.18,3.24-6.13.92.38,1.01,1.1.99,1.82-.06,1.83-.29,3.64-.79,5.43-.3,1.07-.39,2.19-.59,3.35q-.32.2-.73-.06c-.2-.94.07-1.88.19-2.81.16-1.3.46-2.59.69-3.88.08-.47.15-.95.15-1.44-.92,2.18-1.96,4.28-3.47,6.16-.26-.12-.42-.19-.67-.3-.03-2.18.02-4.37-.05-6.6-.21.47-.46.93-.63,1.41-.45,1.27-.85,2.55-1.32,3.81-.23.6-.59,1.16-.91,1.73-.13.23-.32.34-.65.16-.14-.44-.12-.95,0-1.4.38-1.38.82-2.74,1.25-4.1.34-1.07.7-2.13,1.07-3.18.23-.65.56-1.26,1.03-1.78.11.03.19.06.28.08.21-.22.43-.44.68-.69.16.09.36.13.39.22.11.35.25.72.21,1.06-.08.76-.24,1.52-.38,2.27-.16.87-.13,1.79,0,2.67.09.64.09,1.23-.02,1.85-.01.08.01.16.03.35Z"/>
      <path class="cls-2" d="m127.62,203.28c.25-.61.28-1.24.28-1.88,0-.43.05-.84.24-1.25.09-.18.08-.42.09-.63.04-.42.09-.83.21-1.25.2-.72.22-1.47-.06-2.2-.14-.36-.07-.47.32-.55.22-.05.43-.09.53-.32.04-.1.1-.19.16-.28.24-.36.61-.45,1.01-.41.15.01.37.11.41.22.22.54.45,1.08.72,1.61.04.59.26,1.13.43,1.69.04.15.02.33.08.47.23.54.43,1.1.53,1.67.1.52.07,1.07.04,1.6-.04.61.17,1.15.44,1.68.07.14.12.29.13.3.06.27-.25.61-.38.6-.05,0-.1-.02-.15-.05-.19-.12-.32-.29-.42-.48-.5-.95-1-1.9-1.5-2.85-.05-.09-.16-.14-.25-.2-.03-.02-.1,0-.14.02-.09.06-.19.13-.24.21-.24.36-.47.73-.49,1.17-.02.5-.3.9-.52,1.33-.07.14-.22.24-.33.35-.17.17-.36.2-.6.09-.1-.05-.2-.09-.3-.15-.2-.12-.33-.34-.25-.54Z"/>
      <path class="cls-2" d="m134.71,203.91c-.03-.58,0-1.17,0-1.75h0c0-.48,0-.96,0-1.44,0-.21-.04-.46.06-.63.3-.55.22-1.14.25-1.72.02-.4.1-.72.54-.88.14-.05.25-.2.34-.33.28-.4.55-.79.8-1.21.38-.64,1-.98,1.68-1.22.14-.05.34-.03.48.03.36.16.61.45.77.8.04.09.06.21.03.31-.24.98-.64,1.91-1.22,2.76-.24.35-.48.72-.75,1.04-.24.29-.54.53-.81.8-.11.11-.21.24-.31.37-.03.04-.05.11-.03.14.02.04.09.07.14.07.28.02.55.04.83.04.34,0,.64.09.96.21.3.11.65.11.97.19.08.02.14.15.18.23.06.12-.1.31-.26.33-.39.04-.79.09-1.15-.08-.58-.28-1.18-.23-1.79-.21-.13,0-.33.17-.34.3-.03.53-.07,1.06-.08,1.59,0,.45-.2.82-.48,1.16-.05.06-.25.08-.3.04-.3-.25-.5-.58-.52-.96Zm3.11-7.1h.08s-.03-.09-.03-.09l-.05.09Z"/>
      <path class="cls-2" d="m145.33,204.22c-1.74-.06-2.81-.91-3.69-1.88-.96-1.06-.77-2.21-.17-3.35.85-1.62,1.99-3.12,3.47-4.46.48-.43,1.17-.74,1.81-1.06.17-.09.61-.09.7,0,.14.14.19.42.1.58-.23.38-.56.73-.86,1.08-1.4,1.64-2.81,3.27-3.84,5.06-.65,1.13-.51,1.84.53,2.58.89.62,1.89.66,2.82.08.38-.24.7-.54,1.09-.76.46-.26.99-.21,1.29.15.13.15.02.47-.11.67-.64.95-1.72,1.35-3.12,1.32Z"/>
      <path class="cls-2" d="m152.5,199.94c.36-.33.71-.68,1.07-1.01.25-.24.38-.52.38-.86,0-.27.06-.53.28-.72.07-.06.21-.14.27-.12.38.15.68.42.75.8.08.41.12.86-.09,1.26-.16.3-.19.61-.19.93,0,.53-.03,1.07,0,1.6.03.72-.26,1.34-.5,1.99-.04.11-.31.28-.39.24-.1-.05-.2-.11-.26-.19-.09-.13-.18-.27-.21-.42-.04-.26-.04-.53-.04-.8,0-.43,0-.85,0-1.28,0-.22-.09-.32-.28-.23-.42.19-.88.09-1.31.17-.17.03-.33.14-.33.3.01.6-.31,1.12-.43,1.69-.14.07-.28.2-.42.21-.36.03-.81-.32-.83-.64-.03-.48-.06-.96-.06-1.44-.01-.64,0-1.28,0-1.92h.05c0-1.01,0-2.03,0-3.04,0-.13.12-.18.22-.16.05.01.12.03.15.06.1.12.24.24.28.39.08.31.22.6.31.91.1.36.29.7.35,1.05.06.38.25.7.36,1.06.17.58.41.62.9.18Z"/>
      <path class="cls-2" d="m156.71,201.31c-.16-.25-.15-.48,0-.74.23-.42.51-.83.53-1.33.4-.85.94-1.57,1.87-1.96.15-.06.3-.14.45-.21.45-.24.93-.34,1.44-.32.44.02.89-.07,1.32.08.13.04.16.13.15.25,0,.12-.04.21-.16.25-.49.14-.99.08-1.49.08-.59,0-1.08.2-1.53.52-.03.02-.04.08-.06.12.38.01.75-.02,1.1-.2.3-.16.52.03.71.25.03.04.07.1.06.15,0,.04-.07.08-.12.09-.16.02-.33.05-.49.05-.3,0-.54.12-.73.33-.15.16-.27.33-.41.5.05.03.09.07.14.08.29.06.54-.02.8-.14.31-.16.65-.14.98-.06.08.02.15.13.19.22.06.11.02.22-.1.28-.64.31-1.24.71-1.97.83-.32.22-.83.11-1.04.44-.23.35-.32.78-.45,1.18-.09.27.19.69.47.75.34-.22.63.07.95.08.5.01,1,0,1.5.04.47.04.82-.33,1.28-.31.1,0,.2.07.3.11-.04.09-.07.19-.13.26-.07.08-.16.15-.26.2-.3.14-.6.29-.91.38-.27.08-.52.19-.77.29-.86.36-.86.36-1.77.34-.62-.01-1.17-.39-1.32-1.01-.08-.32-.26-.58-.34-.89-.08-.31,0-.65-.17-.94Zm1.35,2c.06.05.11.13.19.15.1.03.22.02.16.02.28,0,.39,0,.5,0,.05,0,.09-.05.14-.08-.06-.05-.12-.15-.19-.16-.22-.02-.44-.02-.66-.02-.05,0-.09.06-.13.09Zm1-5.03c.06-.04.08-.12.12-.19.01,0,.03-.01.04-.02l-.02-.02s-.01.02-.02.04c-.08.04-.16.06-.2.12-.09.11-.03.16.09.08Z"/>
      <path class="cls-2" d="m170.31,201.31c-.16-.25-.15-.48,0-.74.23-.42.51-.83.53-1.33.4-.85.94-1.57,1.87-1.96.15-.06.3-.14.45-.21.45-.24.93-.34,1.44-.32.44.02.89-.07,1.32.08.13.04.16.13.15.25,0,.12-.04.21-.16.25-.49.14-.99.08-1.49.08-.59,0-1.08.2-1.53.52-.03.02-.04.08-.06.12.38.01.75-.02,1.1-.2.3-.16.52.03.71.25.03.04.07.1.06.15,0,.04-.07.08-.12.09-.16.02-.33.05-.49.05-.3,0-.54.12-.73.33-.15.16-.27.33-.41.5.05.03.09.07.14.08.29.06.54-.02.8-.14.31-.16.65-.14.98-.06.08.02.15.13.19.22.06.11.02.22-.1.28-.64.31-1.24.71-1.97.83-.32.22-.83.11-1.04.44-.23.35-.32.78-.45,1.18-.09.27.19.69.47.75.34-.22.63.07.95.08.5.01,1,0,1.5.04.47.04.82-.33,1.28-.31.1,0,.2.07.3.11-.04.09-.07.19-.13.26-.07.08-.16.15-.26.2-.3.14-.6.29-.91.38-.27.08-.52.19-.77.29-.86.36-.86.36-1.77.34-.62-.01-1.17-.39-1.32-1.01-.08-.32-.26-.58-.34-.89-.08-.31,0-.65-.17-.94Zm1.35,2c.06.05.11.13.19.15.1.03.22.02.16.02.28,0,.39,0,.5,0,.05,0,.09-.05.14-.08-.06-.05-.12-.15-.19-.16-.22-.02-.44-.02-.66-.02-.05,0-.09.06-.13.09Zm1-5.03c.06-.04.08-.12.12-.19.01,0,.03-.01.04-.02l-.02-.02s-.01.02-.02.04c-.08.04-.16.06-.2.12-.09.11-.03.16.09.08Z"/>
      <path class="cls-2" d="m178.9,202c-.34.83-.68,1.66-1.04,2.48-.08.18-.23.32-.52.41.04-.24.06-.47.11-.71.18-1.01.37-2.02.56-3.03.34-1.79,1.05-3.45,1.98-5.03.29-.5.54-1.03.84-1.61.14.11.23.17.33.24-.04.03-.08.05-.07.05,0,0,.02-.03.05-.06.13-.22.25-.44.38-.67.24-.03.49-.06.84-.1,1.38,2.04,2.02,4.38,2.56,6.89.98-2.06,1.19-4.2,1.86-6.22.78,0,.8.59,1.06.98-.61,2.88-1.49,5.69-2.46,8.44-.75.34-1.11-.56-1.7-.32-.66-.56-1-1.19-1.18-1.96-.25-1.07-.62-2.12-.94-3.18-.04-.15-.12-.29-.29-.65-.43,1.82-1.28,3.28-1.63,4.91-.08.38-.22.75-.38,1.11-.07.16-.24.28-.47.54-.28-.97.25-1.74.08-2.52.06-.13.11-.27.17-.4-.04-.01-.08-.02-.12-.04-.01.15-.02.3-.04.45Zm3.34-7.63c-.1.23-.17.4-.23.56.23.26.43.5.63.73.03-.01.06-.03.09-.04-.16-.39-.31-.78-.5-1.24Zm1.98,7.81c.02.1.04.19.06.29.04-.02.08-.04.12-.06-.07-.07-.13-.14-.2-.22.03-.25.06-.5.1-.75-.25-.52-.38-1.08-.55-1.62-.18-.56-.41-1.11-.62-1.67-.11.32-.11.61-.04.88.23.84.46,1.68.73,2.51.07.23.26.43.39.65Zm-.62.78s.06.06.05.06c0,0-.03-.02-.06-.05-.02-.1-.04-.19-.06-.29-.03.02-.07.03-.1.05.06.08.12.16.17.23Zm1.14.77v-.34c-.04.05-.08.08-.08.1,0,.05.03.11.08.24Z"/>
      <path class="cls-2" d="m197.13,203.92c-.17,0-.35,0-.45-.15-.17-.27-.33-.55-.49-.83-.08-.12-.16-.15-.22-.08-.03.04-.06.09-.07.14-.02.21-.02.43-.05.64,0,.05-.07.13-.09.12-.1-.01-.22-.03-.28-.09-.11-.12-.23-.26-.25-.4-.05-.42-.06-.85-.09-1.28,0-.05-.05-.14-.06-.14-.1.01-.22.02-.28.08-.51.49-1.01.99-1.52,1.48-.23.23-.49.43-.74.65-.1.08-.2.08-.31.04-.21-.09-.41-.09-.64-.04-.39.08-1.17-.12-1.4-.31-.08-.07-.18-.14-.23-.23-.3-.62-.71-1.2-.84-1.89,0,0,0-.02-.01-.02v-1.07c.1-.06.12-.25.18-.36.09-.19.19-.4.2-.6.01-.39.16-.73.33-1.06.22-.43.48-.84.67-1.28.33-.76.87-1.36,1.49-1.9.46-.4.99-.68,1.63-.72.23-.01.44-.07.64-.16.1-.04.22-.1.31-.07.42.11.84.25,1.25.39.19.06.36.34.35.5-.02.18-.15.25-.3.34-.22.13-.23.19-.12.35.1.13.21.25.3.38.02.02,0,.09-.02.12-.03.03-.09.05-.14.06-.05,0-.12.01-.16-.02-.62-.38-1.26-.34-1.91-.08-.25.1-.54.14-.78.27-.34.17-.66.39-.98.6-.47.31-.87.67-.9,1.27-.24.38-.29.8-.29,1.23,0,.64,0,1.28,0,1.92,0,.34.15.62.39.85.2.19.4.37.61.54.1.09.19.06.3-.01.71-.47,1.07-1.21,1.57-1.85.06-.08.09-.19.12-.3.2-.86.83-1.49,1.29-2.21.12-.18.43-.16.54.04.21.37.41.75.62,1.12.16.29.27.59.24.92-.06.61.14,1.16.43,1.68.18.33.36.66.53.99.08.16-.15.43-.37.42Zm-3.81-8.5c.08.04.17.11.25.11.15,0,.26-.09.29-.24,0,0,.02,0,.03,0,0,0,0,0,0,0h0s0,0,.01-.01c.32-.01.63-.01.95-.04.14-.01.2-.09.17-.15-.02-.04-.09-.08-.13-.08-.27.01-.54.02-.8.06-.07.01-.12.13-.18.21-.01,0-.02,0-.03,0,0,0,0,.01,0,.02-.14.01-.28.02-.42.05-.04,0-.08.06-.12.09Z"/>
      <path class="cls-2" d="m198.82,203.28c.25-.61.28-1.24.28-1.88,0-.43.05-.84.24-1.25.09-.18.08-.42.09-.63.03-.42.09-.83.21-1.25.2-.72.22-1.47-.06-2.2-.14-.36-.07-.47.31-.55.22-.05.43-.09.53-.32.04-.1.1-.19.16-.28.24-.36.61-.45,1.01-.41.15.01.37.11.41.22.22.54.45,1.08.72,1.61.04.59.26,1.13.43,1.69.04.15.02.33.08.47.23.54.43,1.1.53,1.67.1.52.07,1.07.04,1.6-.04.61.17,1.15.44,1.68.07.14.12.29.13.3.06.27-.25.61-.38.6-.05,0-.1-.02-.15-.05-.19-.12-.32-.29-.42-.48-.5-.95-.99-1.9-1.5-2.85-.05-.09-.16-.14-.25-.2-.03-.02-.1,0-.14.02-.09.06-.19.13-.25.21-.24.36-.47.73-.49,1.17-.02.5-.3.9-.52,1.33-.07.14-.22.24-.33.35-.17.17-.36.2-.6.09-.1-.05-.2-.09-.3-.15-.2-.12-.33-.34-.25-.54Z"/>
      <path class="cls-2" d="m213.9,203.92c-.17,0-.35,0-.45-.15-.17-.27-.33-.55-.49-.83-.08-.12-.16-.15-.22-.08-.03.04-.06.09-.07.14-.02.21-.02.43-.05.64,0,.05-.07.13-.09.12-.1-.01-.22-.03-.28-.09-.11-.12-.23-.26-.25-.4-.05-.42-.06-.85-.09-1.28,0-.05-.05-.14-.06-.14-.1.01-.22.02-.28.08-.51.49-1.01.99-1.52,1.48-.23.23-.49.43-.74.65-.1.08-.2.08-.31.04-.21-.09-.41-.09-.64-.04-.39.08-1.17-.12-1.4-.31-.08-.07-.18-.14-.23-.23-.3-.62-.71-1.2-.84-1.89,0,0,0-.02-.01-.02v-1.07c.1-.06.12-.25.18-.36.09-.19.19-.4.2-.6.01-.39.16-.73.33-1.06.22-.43.48-.84.67-1.28.33-.76.87-1.36,1.49-1.9.46-.4.99-.68,1.63-.72.23-.01.44-.07.64-.16.1-.04.22-.1.31-.07.42.11.84.25,1.25.39.19.06.36.34.35.5-.02.18-.15.25-.3.34-.22.13-.23.19-.12.35.1.13.21.25.3.38.02.02,0,.09-.02.12-.03.03-.09.05-.14.06-.05,0-.12.01-.16-.02-.62-.38-1.26-.34-1.91-.08-.25.1-.54.14-.78.27-.34.17-.66.39-.98.6-.47.31-.87.67-.9,1.27-.24.38-.29.8-.29,1.23,0,.64,0,1.28,0,1.92,0,.34.15.62.39.85.2.19.4.37.61.54.1.09.19.06.3-.01.71-.47,1.07-1.21,1.57-1.85.06-.08.09-.19.12-.3.2-.86.83-1.49,1.29-2.21.12-.18.43-.16.54.04.21.37.41.75.62,1.12.16.29.27.59.24.92-.06.61.14,1.16.43,1.68.18.33.36.66.53.99.08.16-.15.43-.37.42Zm-3.81-8.5c.08.04.17.11.25.11.15,0,.26-.09.29-.24,0,0,.02,0,.03,0,0,0,0,0,0,0h0s0,0,.01-.01c.32-.01.63-.01.95-.04.14-.01.2-.09.17-.15-.02-.04-.09-.08-.13-.08-.27.01-.54.02-.8.06-.07.01-.12.13-.18.21-.01,0-.02,0-.03,0,0,0,0,.01,0,.02-.14.01-.28.02-.42.05-.04,0-.08.06-.12.09Z"/>
      <path class="cls-2" d="m221.53,198.92c-.04.16-.15.31-.31.39-.02.01-.05.03-.07.04-.1.08-.22.14-.35.17-1.17.27-2.16.5-3.16.7-.23.05-.26.1-.27.22-.03.22-.04.45-.06.68-.03.68-.15,1.36-.35,2.02-.04.15-.05.31-.04.47v.02s.02,0,.03,0c.18-.02.36-.06.54-.11l.21-.06c.76-.23,1.47-.46,2.11-.87.14-.11.32-.15.49-.12.15.05.28.15.34.3.04.03.09.05.13.06.03,0,.05.01.08.02.23,0,.41.17.42.39.06.33-.14.66-.47.77-.18.06-.37.12-.55.17-.1.03-.21.06-.31.09-.34.1-.68.17-1.02.22-.45.05-.89.17-1.32.34-.04.02-.08.04-.12.05-.21.07-.39.19-.54.34-.18.19-.43.3-.7.33-.03,0-.06,0-.09,0-.14,0-.27-.04-.38-.12-.14-.13-.22-.31-.22-.49,0-.1,0-.19.02-.29.06-.3.1-.6.13-.9.03-.37.09-.75.17-1.11.11-.5.17-1,.18-1.51.01-.2.02-.4.04-.59,0-.04,0-.08-.02-.12-.2-.13-.34-.33-.36-.57,0-.24.13-.47.34-.62.02-.07.03-.14.03-.21,0-.04,0-.08,0-.11.02-.17.03-.34.04-.51.02-.23.04-.46.07-.69.04-.3.06-.57-.09-.8-.26-.4-.03-.64.13-.74.14-.09.16-.13.16-.14,0,0,0-.03-.1-.1-.12-.1-.08-.25-.02-.39.03-.07.09-.23.26-.22.09,0,.18-.03.26-.07.22-.11.48-.12.7-.02.02,0,.04,0,.06,0,.1-.1.25-.14.39-.11.1.04.18.12.21.22l.25-.08c.42-.12.85-.25,1.26-.4l.09-.03c.29-.13.61-.21.93-.22.45.01.73.19.79.49.1.53-.14.74-.36.83-.74.3-1.46.58-2.15.82-.22.06-.45.04-.65-.06-.06-.03-.07-.03-.19,0h-.03c-.3.1-.48.16-.54.23-.06.08-.08.27-.11.59l-.02.21v.19c-.01.06-.01.11-.02.17,0,.14-.02.27-.04.4-.01.06-.02.12-.02.18.09.02.19.03.28.02.37.02.73-.03,1.08-.13.37-.12.77-.18,1.16-.19.29,0,.57-.04.86-.1.27-.07.56.04.69.27.07.1.1.23.08.35Zm-4.22-5.79c-.1-.17-.14-.38-.09-.58.06-.19.17-.35.32-.48.24-.23.48-.45.72-.67.21-.19.43-.39.64-.59.22-.24.57-.32.88-.21.08.03.15.08.2.14,0,.01.02.02.03.03l.11.1-.07.13c-.07.12-.13.24-.19.36-.14.27-.27.52-.42.78-.27.45-.7.72-1.11.98-.08.05-.15.1-.22.14-.1.07-.22.11-.34.11-.04,0-.07,0-.11-.01-.14-.03-.27-.12-.34-.24Z"/>
      <path class="cls-2" d="m222.94,201.31c-.16-.25-.15-.48,0-.74.23-.42.51-.83.53-1.33.4-.85.94-1.57,1.87-1.96.15-.06.3-.14.45-.21.45-.24.93-.34,1.44-.32.44.02.89-.07,1.32.08.13.04.16.13.15.25,0,.12-.04.21-.16.25-.49.14-.99.08-1.49.08-.59,0-1.08.2-1.53.52-.03.02-.04.08-.06.12.38.01.75-.02,1.1-.2.3-.16.52.03.71.25.03.04.07.1.06.15,0,.04-.07.08-.12.09-.16.02-.33.05-.49.05-.3,0-.54.12-.73.33-.15.16-.27.33-.41.5.05.03.09.07.14.08.29.06.54-.02.8-.14.31-.16.65-.14.98-.06.08.02.15.13.19.22.06.11.02.22-.1.28-.64.31-1.24.71-1.97.83-.32.22-.83.11-1.04.44-.23.35-.32.78-.45,1.18-.09.27.19.69.47.75.34-.22.63.07.95.08.5.01,1,0,1.5.04.47.04.82-.33,1.28-.31.1,0,.2.07.3.11-.04.09-.07.19-.13.26-.07.08-.16.15-.26.2-.3.14-.6.29-.91.38-.27.08-.52.19-.77.29-.86.36-.86.36-1.77.34-.62-.01-1.17-.39-1.32-1.01-.08-.32-.26-.58-.34-.89-.08-.31,0-.65-.17-.94Zm1.35,2c.06.05.11.13.19.15.1.03.22.02.16.02.28,0,.39,0,.5,0,.05,0,.09-.05.14-.08-.06-.05-.12-.15-.19-.16-.22-.02-.44-.02-.66-.02-.05,0-.09.06-.13.09Zm1-5.03c.06-.04.08-.12.12-.19.01,0,.03-.01.04-.02l-.02-.02s-.01.02-.02.04c-.08.04-.16.06-.2.12-.09.11-.03.16.09.08Z"/>
    </g>
    <g>
      <path class="cls-2" d="m105.82,162.04h1.69v13.7h3.86v1.49h-5.55v-15.18Z"/>
      <path class="cls-2" d="m113.2,162.04h5.88v1.49h-4.21v5.28h3.08v1.36h-3.08v5.58h4.21v1.49h-5.88v-15.18Z"/>
      <path class="cls-2" d="m119.85,173.99h1.67c0,1.38.87,1.89,1.9,1.89s1.76-.65,1.76-1.68c0-.69-.16-1.23-.99-2.3l-2.89-3.85c-.85-1.14-1.32-2.22-1.32-3.14,0-1.87,1.48-3.01,3.39-3.01s3.39,1.16,3.39,3.27h-1.65c0-1.29-.85-1.81-1.76-1.81-.96,0-1.72.56-1.72,1.55,0,.71.33,1.38.92,2.17l2.92,3.85c1.03,1.38,1.39,2.28,1.39,3.34,0,1.85-1.39,3.1-3.46,3.1s-3.55-1.21-3.55-3.38Z"/>
      <path class="cls-2" d="m131.04,173.99h1.67c0,1.38.87,1.89,1.9,1.89s1.76-.65,1.76-1.68c0-.69-.16-1.23-.99-2.3l-2.89-3.85c-.85-1.14-1.32-2.22-1.32-3.14,0-1.87,1.48-3.01,3.39-3.01s3.39,1.16,3.39,3.27h-1.65c0-1.29-.85-1.81-1.76-1.81-.96,0-1.72.56-1.72,1.55,0,.71.33,1.38.92,2.17l2.92,3.85c1.03,1.38,1.39,2.28,1.39,3.34,0,1.85-1.39,3.1-3.46,3.1s-3.55-1.21-3.55-3.38Z"/>
      <path class="cls-2" d="m139.65,174.01v-11.97h1.67v12.04c0,1.31.99,1.79,1.86,1.79.99,0,1.83-.56,1.83-1.79v-12.04h1.67v11.97c0,1.96-1.46,3.34-3.5,3.34s-3.53-1.38-3.53-3.34Z"/>
      <path class="cls-2" d="m149.12,162.04h3.22c2.07,0,3.5,1.16,3.5,3.42v3.68c0,1.87-.87,2.78-2.12,3.19l2.19,4.89h-1.86l-1.93-4.5h-1.32v4.5h-1.69v-15.18Zm3.03,9.22c1.2,0,2.04-.43,2.04-2.43v-3.36c0-1.46-.92-1.94-2.04-1.94h-1.34v7.73h1.34Z"/>
      <path class="cls-2" d="m157.92,174.03v-8.76c0-1.98,1.43-3.36,3.5-3.36s3.48,1.36,3.5,3.32h-1.67c0-1.23-.82-1.81-1.83-1.81s-1.83.58-1.83,1.79v8.87c0,1.31.96,1.81,1.83,1.81,1.01,0,1.83-.58,1.83-1.81v-2.5h-1.88v-1.36h3.55v3.81c0,1.96-1.43,3.32-3.5,3.32s-3.5-1.36-3.5-3.32Z"/>
      <path class="cls-2" d="m167.18,162.04h5.88v1.49h-4.21v5.28h3.08v1.36h-3.08v5.58h4.21v1.49h-5.88v-15.18Z"/>
      <path class="cls-2" d="m175.27,162.04h1.69v13.7h3.85v1.49h-5.55v-15.18Z"/>
      <path class="cls-2" d="m182.65,162.04h5.88v1.49h-4.21v5.28h3.08v1.36h-3.08v5.58h4.21v1.49h-5.88v-15.18Zm3.34-3.25h1.72l-1.5,2.2h-1.29l1.08-2.2Z"/>
      <path class="cls-2" d="m189.3,173.99h1.67c0,1.38.87,1.89,1.9,1.89s1.76-.65,1.76-1.68c0-.69-.17-1.23-.99-2.3l-2.89-3.85c-.85-1.14-1.32-2.22-1.32-3.14,0-1.87,1.48-3.01,3.38-3.01s3.39,1.16,3.39,3.27h-1.65c0-1.29-.85-1.81-1.76-1.81-.96,0-1.72.56-1.72,1.55,0,.71.33,1.38.92,2.17l2.92,3.85c1.03,1.38,1.39,2.28,1.39,3.34,0,1.85-1.39,3.1-3.46,3.1s-3.55-1.21-3.55-3.38Z"/>
    </g>
    <g>
      <path class="cls-2" d="m113.26,145.11c-1.06,0-2.53-.12-4.2-.73-4.79-1.76-7.75-6.3-8.09-8.75-.37-2.62.05-19.88.24-21.36.12-.97,3.11-5.38,5.57-4.95,1.23.21,2.14,1.54,2.24,2.17.9,5.85-3.44,16.58-1.87,22.02.11.37,3.39,4.83,5.49,4.77,1.71-.05,8.05-3.19,12.15-8.64,3.84-5.11,5.1-8.3,6.64-9.63.65-.56,1.78-1.1,3.08-1.01,1.8.13,3.08,1.53,3.61,2.19.73.91,2.8,14.43,3.38,17.47.06.31-.12.6-.43.69-.89.25-2.06.41-3.33.14-4.48-.96-4.63-5.04-5.9-5.05-1.87,0-4.57,10.67-18.59,10.67Z"/>
      <circle class="cls-2" cx="116.45" cy="98.1" r="3.9"/>
      <circle class="cls-2" cx="130.9" cy="100.51" r="3.9"/>
    </g>
    <rect class="cls-2" x="73.76" y="148.93" width=".97" height="42.04" transform="translate(-95.82 243.93) rotate(-89.91)"/>
    <rect class="cls-2" x="225.27" y="148.67" width=".97" height="42.04" transform="translate(55.72 395.19) rotate(-89.91)"/>
    <path class="cls-2" d="m96.35,143.26c-1.44-.99-1.61-2.74-1.63-3.02-.88-13.99-1.75-27.99-2.62-41.98h-3.29l-28.72,40.28c-.72,1.18-2.01,2.87-4.1,4.23-.77.5-1.52.87-2.19,1.14v1.19h12.88l.19-1.25c-2.8.18-5.02-1.12-5.46-2.82-.08-.33-.21-1.1.27-2.17,2.54-3.78,5.08-7.56,7.62-11.34l14.39.02.48,12.62c-.02.81-.26,1.37-.46,1.71-.88,1.52-2.97,2.27-5.29,1.95v1.28h19.34v-1.28c-.38-.07-.9-.21-1.41-.56Zm-26.09-17.04l12.47-17.72.86,17.72h-13.32Z"/>
    <path class="cls-2" d="m182.52,106.49l.42-1.18h18.7l-.27,1.18c-.29-.04-3.27-.36-4.73,1.59-.21.28-.45.69-.6,1.25-2.26,8.2-4.51,16.39-6.77,24.59-1.52,4.97-.94,9.46,1.48,11.02,1.08.7,2.47.77,3.6.83.64.03,3.36.11,6.28-1.48,2.57-1.41,3.9-3.36,5-4.95,1.28-1.87,2-3.61,2.42-4.84,2.1-7.94,4.19-15.88,6.29-23.82.04-.33.13-1.3-.44-2.31-.54-.96-1.34-1.37-1.63-1.52-1.08-.54-2.1-.43-2.47-.37.08-.38.15-.76.23-1.14h11.49l-.3,1.21c-.64.04-1.8.21-2.97.97-2.22,1.44-2.71,3.86-2.79,4.34-2.07,7.55-4.15,15.09-6.22,22.64-.3,1.32-1.69,6.72-6.93,10.32-4.28,2.93-8.61,2.93-9.94,2.92-2.68-.04-7.24-.1-10.24-3.67-3.54-4.2-2.08-9.88-1.9-10.52,2.1-8.27,4.21-16.54,6.31-24.82.02-.25,0-.73-.28-1.16-.34-.51-.87-.68-1.5-.86-.47-.14-1.23-.3-2.22-.2Z"/>
    <path class="cls-2" d="m161.76,129.9v-3.16c0-.71.58-1.29,1.29-1.29h11.33c.31,0,.58.27.59.58.18,4.89.42,6.28.27,9.33-.18,3.65-.35,3.69-.43,6.74-.05,2.24,0,4.13.07,5.48.01.25-.16.46-.41.5-.99.14-2.14.24-3.43.23-1.46-.01-2.75-.17-3.84-.36-.26-.05-.45-.28-.45-.55v-1.43c0-.17-.19-.26-.33-.16-1.1.87-4.08,2.47-7.63,2.39-5.28-.13-8.04-4.07-8.66-4.88-2.25-2.95-2.47-5.93-2.9-11.8-.2-2.77,0-7.72.61-11.62.76-4.81,1.79-8.32,4.88-11.4.42-.42,6.22-4.94,12.46-4.37.82.07,6.69.68,8.55,5.04.57,1.34.87,2.48.88,5.18,0,1.36.15,2.75.12,3.67,0,.32-.24.59-.55.63-.81.12-1.72-.01-2.64.05-1.23.09-2.37.1-3.42.07-.17-.08-.59-.17-.66-.52-.26-1.32-.52-2.89-.79-4.21-.09-.46-.46-.8-.91-.9-2.34-.52-3.92.05-4.54.32-3.29,1.44-4.3,5.32-4.87,7.53-.29,1.13-.38,2.88-.55,6.37-.21,4.34,0,5.78.3,7.01.44,1.74,1.27,4.06,2.31,4.56.95.46,2.64.67,3.4.68.91,0,2.14.02,3.17-.64,1.63-1.05,1.89-3.23,1.91-4.35,0-.39-.28-.71-.67-.76l-3.4-.27c-.56-.07-1-.52-1.05-1.09l-.03-2.62Z"/>
    <path class="cls-2" d="m246.54,142.41s-.09-.56-.34-1.07c-.57-1.14-1.76-1.64-2.75-2.42-.58-.47-1.66-1.68-2.35-2.43-1.15-1.25-6.64-4.4-8.65-4.76-.11-.02-.13-.15-.04-.19,1.92-1.12,3.99-2.52,6.11-4.28.89-.74,1.7-1.48,2.46-2.21.9-.93,2.04-2.32,3-4.23.45-.9.78-1.74,1.02-2.51.29-.93.4-1.89.31-2.85-.12-1.13-.31-2.4-.64-3.75-.31-1.25-.68-2.37-1.07-3.34-.43-.71-1.48-2.24-3.47-3.31-1.73-.93-3.35-1.07-4.17-1.09-1.03-.05-2.72,0-4.65.69-1.68.6-2.89,1.45-3.64,2.07-1.17,1.56-2.46,3.17-3.91,4.83-1.15,1.32-2.29,2.54-3.4,3.68-.39.52-.82,1.19-1.2,2.01-.48,1.02-.74,1.96-.89,2.7-.17,1.54-.31,3.12-.42,4.73-.24,3.36-.33,6.56-.32,9.6,0,.5-.07.97-.21,1.44-.12.38-.26.8-.42,1.27-.02.05-.09.21-.15.45,0,0-.07.24-.11.49-.12.64.1,1.49.1,1.49.19.75.67,3.41,1.33,7.18.9,1.47,2.44,1.98,3.42,1.47.71-.37.94-1.21,1-1.47l.59-4.7.54-4.94c.21-.54.58-1.2,1.27-1.58,1.1-.62,2.68-.37,6.77,1.92,2.73,1.52,4.96,3.05,6.43,4.08,3.95,2.8,5.74,4.39,7.21,3.74.62-.27.97-.86,1.16-1.26.08-.31.16-.83.06-1.44Zm-16.8-20.41c-1.37,1.05-2.59,1.97-3.1,1.62-.27-.19-.21-.68.9-4.72.77-2.8,1.06-3.76,1.9-4.85.7-.91,1.43-1.47,1.66-1.64.88-.65,1.13-.57,2.46-1.28,1.74-.93,2.43-1.66,4.07-2.03.42-.1.82-.15,1.15.07.72.48.5,1.86.47,2.02-1.96,2.85-3.77,5.1-5.17,6.75-.33.39-1.9,2.18-4.33,4.06Z"/>
  </g>
</svg>