<?xml version="1.0" encoding="UTF-8"?>
<svg id="Calque_1" data-name="Calque 1" xmlns="http://www.w3.org/2000/svg" viewBox="0 0 300 210.66">
  <defs>
    <style>
      .cls-1 {
        fill: #f2fade;
      }

      .cls-2 {
        fill: #007812;
      }

      .cls-3 {
        fill: #eaf7d2;
      }

      .cls-4 {
        fill: #e6f6cb;
      }

      .cls-5 {
        fill: #edf9d9;
      }

      .cls-6 {
        fill: #9ed64a;
      }

      .cls-7 {
        fill: #b4df74;
      }

      .cls-8 {
        fill: #b5e074;
      }

      .cls-9 {
        fill: #b5e077;
      }

      .cls-10 {
        fill: #b5e076;
      }

      .cls-11 {
        fill: #bae280;
      }

      .cls-12 {
        fill: #b7e17b;
      }

      .cls-13 {
        fill: #c1e68c;
      }

      .cls-14 {
        fill: #c1e68b;
      }

      .cls-15 {
        fill: #b3de70;
      }

      .cls-16 {
        fill: #b9e17c;
      }

      .cls-17 {
        fill: #cdeba2;
      }

      .cls-18 {
        fill: #a4d959;
      }

      .cls-19 {
        fill: #a4d958;
      }

      .cls-20 {
        fill: #a8db61;
      }

      .cls-21 {
        fill: #a6d95a;
      }

      .cls-22 {
        fill: #aada60;
      }

      .cls-23 {
        fill: #b2df70;
      }

      .cls-24 {
        fill: #b2df72;
      }

      .cls-25 {
        fill: #b2df73;
      }

      .cls-26 {
        fill: #bce381;
      }

      .cls-27 {
        fill: #a9da5f;
      }

      .cls-28 {
        fill: #a9da5e;
      }

      .cls-29 {
        fill: #b0de6f;
      }

      .cls-30 {
        fill: #b0de6d;
      }

      .cls-31 {
        fill: #b0de6e;
      }

      .cls-32 {
        fill: #addd68;
      }

      .cls-33 {
        fill: #acdc66;
      }

      .cls-34 {
        fill: #acdc67;
      }

      .cls-35 {
        fill: #d7eeaf;
      }

      .cls-36 {
        fill: #d7eeb1;
      }

      .cls-37 {
        fill: #b1de6f;
      }

      .cls-38 {
        fill: #b1de70;
      }

      .cls-39 {
        fill: #a3d957;
      }

      .cls-40 {
        fill: #a3d853;
      }

      .cls-41 {
        fill: #a3d857;
      }

      .cls-42 {
        fill: #a3d854;
      }

      .cls-43 {
        fill: #c0e587;
      }

      .cls-44 {
        fill: #c0e58a;
      }

      .cls-45 {
        fill: #a5da5b;
      }

      .cls-46 {
        fill: #a5d855;
      }

      .cls-47 {
        fill: #c2e68d;
      }

      .cls-48 {
        fill: #bfe487;
      }

      .cls-49 {
        fill: #bfe486;
      }

      .cls-50 {
        fill: #bde483;
      }

      .cls-51 {
        fill: #aadb63;
      }

      .cls-52 {
        fill: #aadb60;
      }

      .cls-53 {
        fill: #bee587;
      }

      .cls-54 {
        fill: #c6e792;
      }

      .cls-55 {
        fill: #dcf0b8;
      }

      .cls-56 {
        fill: #dcf0b9;
      }

      .cls-57 {
        fill: #cae99a;
      }

      .cls-58 {
        fill: #abdc65;
      }

      .cls-59 {
        fill: #abdc64;
      }

      .cls-60 {
        fill: #dbf1bb;
      }

      .cls-61 {
        fill: #d9f0b6;
      }

      .cls-62 {
        fill: #d9f0b8;
      }

      .cls-63 {
        fill: #afdd6b;
      }

      .cls-64 {
        fill: #afdd6a;
      }

      .cls-65 {
        fill: #aedc67;
      }

      .cls-66 {
        fill: #daf1ba;
      }

      .cls-67 {
        fill: #e1f4c5;
      }

      .cls-68 {
        fill: #d5eeb1;
      }

      .cls-69 {
        fill: #d5eeb0;
      }

      .cls-70 {
        fill: #a1d74f;
      }
    </style>
  </defs>
  <g>
    <path class="cls-6" d="m183.93,152.94c-1.05,1.04-2.1,2.09-3.15,3.13-2.3,3.45-5.5,6.31-8.39,9.28-5.03,5.18-8.45,11.27-12.98,16.7-.94,1.63-1.55,3.47-3.38,4.57-.3.24-.6.48-.9.72h0c-.25.29-.57.51-.81.8h0c-1.92.17-1.31-1.24-1.62-2.08.03-.32.11-.63.21-.93.1-.26.23-.53.36-.77.05-.11.12-.22.16-.33-.02.02.13-.31.11-.29-.02.02-.18-.23-.18-.23,0,0-.3.1-.32.13-1.72,1.08-1.73,3.24-3.45,4.28-1.38.32-1.94,2.12-3.74,1.68-.92-.88-1.92-.6-2.4.24-1.09,1.88-2.98.29-4.42.94-.8.36-1.05-1.23-1.72-1.81-.23-.31-.49-.6-.84-.81h0c-.67-1.67-.94-3.61-3.31-4.2-1.04-.12-1.65-.73-2.13-1.48-.47-.88-1.06-1.68-1.73-2.44-.86-.75-1.83-1.43-2.02-2.6-1.74-3.81-3.48-7.61-5.22-11.42-2.41-2.58-4.46-5.45-7.49-7.53-.12-1.91-.36-3.77-2.22-5.05-1.02-1.09-1.73-2.39-2.78-3.45-1.41.41-.83,2.26-2.33,2.57-.36.1-.73.13-1.11.12-1.5-.4-3.38.31-4.52-1.2l.06.04c-.16-.35-.52-.56-.77-.85-4.34-4.3-8.69-8.6-13.04-12.9-4.81-4.75-9.52-9.57-12.97-15.27-1.35-2.23-3.87-3.6-5.39-5.81-2.15-3.14-4.28-6.23-5.75-9.7-.74-1.76-1.9-3.38-2.86-5.06-1.99-1.64-2.67-3.77-2.72-6.09-.04-2.13-.31-4.24-.66-6.34.57-2.76.46-5.49.1-8.3-.96-7.4-.36-14.69,3-21.63.51-1.06.94-2.12.95-3.28.04-.58.11-1.16.25-1.73.08-.36.22-.7.37-1.04.32-.63.7-1.25,1.11-1.85.76-.93,1.29-2.09,2.76-2.33,2.24.24,2.08-1.07,1.88-2.39-.03-.33-.01-.65.04-.98.37-1.31,1.23-2.26,2.58-2.84.77-.81-.89-.06-.51-.63-.64-2.1,1.07-3.46,1.96-5.08,1.16-1.22,2.32-2.45,3.47-3.67,1.39-.83,2.6-1.93,4.29-2.3.68-.16,1.37-.29,1.99-.6.29-.18.59-.35.88-.53.15-.09.3-.18.45-.27.3-.2.61-.38.92-.56,2.02-1.37,3.9-2.97,6.61-3.18,4.59-1.51,9.13-2.1,13.83-.14,2.39,1,4.97-.41,7.47-.08,2.11.28,3.88,1.27,5.67,2.22,1.34.71,2.69,1.36,4.23.39.38-.07.76-.05,1.13.07,1.63.88,3.39,1.57,4.84,2.7.3.16.62.28.95.36.3.12.6.26.87.42.12.09.24.19.37.28.24.19.46.4.68.61.11.1.22.21.33.31.23.2.43.43.61.67.1.12.19.24.28.36.23.22.46.44.7.66.13.3.19.61.15.93-.2.54-.61.78-1.23.77-1.98-1.22-3.91-2.49-5.3-3.33-1.09-.61-1.02-.15-.93-.14,2.72.45,4.04,3.4,7.12,3.27,2.13-.15,2.74,1.53,3.82,2.62,1.6,1.62,3.16,3.27,5.3,4.35.32.2.64.4.95.6,2.98,3.71,6.33,7.2,8.57,11.37.96,1.69,2.08,1.09,3.22.18l-.03.06c.47-1.14,1.49-1.75,2.65-2.23.86-.86,1.19-2.03,2.01-2.92.29-.26.63-.37,1.03-.35,2.67,2.71-1.33,4.46-.98,6.38,2.48-4.38,4.71-9.41,7.8-14.04-.6,1.1-2.01,1.59-2.43,2.94-.28.89-.95,2.26-2.24,1.69-1.5-.66-2.07-2.3-1.16-3.6,1.25-1.78,2.36-3.81,4.57-4.84,1.34-.63,1.76-1.54,1.75-2.76.35-2.16,2.56-3.47,3.14-5.53h0c4.72-1.39,7.74-5.36,12.49-6.73,7.89-2.38,15.79-4.89,23.13,1.2.39.14.75.32,1.1.52,2.98,2.59,6.19,4.85,10.29,5.85,1.59.47,2.82,1.38,3.9,2.48,4.4,2.39,7.15,5.55,7.94,10.42.43,2.65,1.62,5.61,4.36,7.48.84-1.99-1.54-3.29-1.36-5.13-.13-2.75-2.11-4.94-2.82-7.51-.29-.54-.59-1.07-.91-1.59-.25-.34-.54-.66-.9-.92-.26-.15-.51-.31-.76-.47-.26-.16-.49-.35-.72-.53-.12-.09-.24-.19-.36-.28-.26-.17-.52-.34-.79-.5-.15-.07-.29-.14-.44-.2-.96-.39-1.99-.62-2.92-1.08-.34-.17-.63-.38-.9-.62-.25-.28-.43-.58-.55-.92.02-.18.04-.35.06-.53,2.01-2.79,4-1.06,6.01,0,.48.29.93.62,1.36.97.43.33.84.69,1.25,1.05,2.48,1.9,4,4.52,6.11,6.7,1.34,2.14,2.54,4.33,3.38,6.67.2,1.26,1.36,2.01,2.01,3.04.1.36.14.73.12,1.1.53,3.6.39,7.24,1.1,10.82.14.38.23.77.3,1.17,1.05,6.53.11,12.86-2.44,19.01-.34,1.98-1.2,3.83-1.85,5.74-.11.33-.25.64-.4.96-.21.46-.42.92-.61,1.39-.29.79-.73,1.51-1.16,2.23-1.2,2.26-2.55,4.45-4.12,6.52-.73.75-1.38,1.57-1.95,2.43-1.16,1.56-2.45,3.04-3.64,4.58-.2.29-.42.57-.66.84-.34.41-.71.81-1.07,1.21-3.44,4.57-6.57,9.33-10.38,13.67-2.19,1.27-3.74,3.17-5.67,4.71-.2.21-.45.29-.74.27-.67.04-.05.66-.45.83-1.6,1.23-3.14,2.5-4.01,4.27-3.86,4.62-7.67,9.28-11.98,13.57-.24.31-.51.6-.86.82l.02-.02c-.65.45-1.25.94-1.69,1.57h0c-.6.73-.41,1.95-1.69,2.29h0c-.77,1.08-1.75,2.02-2.58,3.06Z"/>
    <path class="cls-70" d="m226.39,32.13c-.87-.03-1.57-.37-2.25-.85-1.61-1.14-2.8-.65-3.68.85-1.13,1.19-2.27-.82-3.4,0-4.21-.94-7.83-2.66-10.17-6.12,3.52-1.08,6.38.98,9.57,1.48-3.16-.62-6-2.78-9.57-1.48-1.91-.04-3.66-.3-4.37-2.26-.47-1.33-1.69-1.56-3.04-1.56-3.38.01-6.76,0-10.14.01-2.65,0-4.59,1.79-7.04,2.28-.29-.17-.39-.34-.3-.52.1-.17.19-.26.29-.26,1.94-2.03,4.6-2.34,7.29-2.32,3.09.03,5.96,0,9-1.22,2.89-1.15,6.43-.61,9.56.25,6.06,1.66,12.08,3.41,17.86,5.82,4.64,1.93,8.31,4.61,10.57,8.88,2.37,4.47,5.09,8.79,5.97,13.77.5.7.48,1.32-.37,1.78-1.04.27-1.27-1.03-2.21-.94-1.62-.07-2.47-.84-2.54-2.3.27-3.17-1.94-5.64-2.9-8.46-.3-.15-.08-.62-.46-.69-.16-.03-.04.11.22.33.4.35-.14-.11.19.31.25.63.17,1.18-.43,1.62-1.98-2.29-3.96-4.59-5.94-6.88.02-.17.03-.35.05-.52,3.13-1.93,3.51.75,4.61,2.23.3.1.14.41.3.59.14-.38-.4-.5-.41-.83-1.4-1.89-2.3-4.49-5.83-3.29-.14.11-.28.2-.42.3Z"/>
    <path class="cls-33" d="m159.41,182.05c2.41-5.31,5.6-10.21,9.76-14.55,1.2-1.25,2.53-2.37,3.46-3.83,2-3.13,4.98-5.46,8.15-7.6-.67,4.72-3.26,8.51-7.01,11.74-4.16,3.58-7.04,8.17-11.27,11.7-1.02.85-2.06,1.69-3.09,2.54Z"/>
    <path class="cls-42" d="m167.87,35.95c.95,1.29.83,2.9-.73,3.13-2.89.42-3.26,2.92-5.11,4.14-1.54,1.02-.19,2.28.21,3.86,1.68-2.44,3.35-4.52,5.75-6.06,1.19,2.74-2.97,3.11-2.8,5.61.17,2.47-2.12,4.32-3.39,6.42-1.19,1.97-2.3,3.97-3.36,6.05-.36-2,.05-3.81.93-5.56.5-1,1.47-2.02.07-3.06-.07-.22-.27-.46-.44-.39-.27.11-.12.48-.29.71-.17,1.21-1.51,2.13-1.03,3.48-.28.52-.77,1.39-1.29.98-1.26-1.02-1.44.51-2.18.54-.09-.61-.48-1.37-.23-1.82,2.88-5.1,5.47-10.35,9.38-14.92.44-.52,1.07-.79,1.79-.86,1.23-.43.65-2.63,2.71-2.25Z"/>
    <path class="cls-12" d="m58.47,89.48c.61,1.81,1.19,3.67.8,5.54-.52,2.55,1.5,4.52,1.62,6.89-.6.08-1.01,1.58-1.81.15-1.77-3.16-3.56-6.3-4.79-9.69-2.86-7.86-2.18-15.68-.06-23.53,1.35-.14,1.45.78,1.69,1.6.07.64,0,1.27-.15,1.89-.64,4.91-.61,9.82.03,14.72.57,1.59-.07,3.34.73,4.91-.55-1.09-.2-1.94.84-2.63.4-.15.77-.09,1.1.16Z"/>
    <path class="cls-27" d="m241.67,50.48c.7-.35.8-.97.88-1.6,1.11,1.89,1.3,4,1.73,6.06.85,4.06,1.55,8.12.31,12.22-.09.79-.23,1.57-.46,2.34-.86,2.15-.25,4.51-1.11,6.66-.22.69-.35,1.41-.58,2.09-.1.34-.25.67-.41.99-1.09,1.26-1.04,3.56-3.72,3.42,0-.25-.07-.53,0-.76,1.46-4.2,2.66-8.38,2.84-12.89.09-2.16-.78-4.19-.33-6.29.99-4.04.11-8.18.85-12.23Z"/>
    <path class="cls-39" d="m112.74,26.78c-1.41-.05-2.74.26-4.1.56-2.04.44-4.3.62-6.07-.62-2.94-2.05-5.95-1.68-9.09-.67-1.18.38-2.34.85-3.64.72-.28-.18-.38-.36-.29-.55.09-.19.18-.29.27-.29,7.12-2.1,14.35-2.01,21.63-.9.83.13,1.67.34,2.49.3,4.2-.2,7.66,1.22,10.66,3.75-.56.43-1.12.43-1.68,0h-.42s-.42,0-.42,0c-3.4.18-6.18-1.67-9.33-2.29Z"/>
    <path class="cls-8" d="m115.21,167.53c-.56-.54-1.21-1.03-1.67-1.63-2.77-3.59-5.43-7.24-9.07-10.2-.62-.5-1.07-1.15-1.22-1.92,2.09-.91,2.97,1.93,4.97,1.31,3.47,2.55,6.68,5.27,7.87,9.38.53,1.01,1.66,1.7,1.93,2.86-.74,2.21-1.86.28-2.8.21Z"/>
    <path class="cls-17" d="m55.09,70.39c-.07-.62-.14-1.23-.86-1.55.14-1.9.54-3.74,1.63-5.41.83.76.51,1.6.49,1.66.33-4.37,3.33-8.84,4.73-13.76.85-1.48,1.65-2.98,3.27-3.94,1.4,1.21.3,2.32-.18,3.45-.26.46-.68.84-.94,1.3-.15.48-.12,1.01-.55,1.4h-.01c-.62.63-.35,1.41-.43,2.14-2.35,5.33-3.26,11.07-5.77,16.35-1.34.06-.69-1.26-1.4-1.64Z"/>
    <path class="cls-30" d="m243.38,67.35c2.22-4.02.21-8.3.89-12.41,1.01,1.13,1.46,2.5,1.49,3.86.12,5.94.51,11.88,0,17.81-.06.73-.48,1.44-.73,2.16-4.37-.61-.9-3.35-1.65-4.94.01-.36.06-.73.12-1.09.24-1.8,1.54-3.62-.12-5.4Z"/>
    <path class="cls-1" d="m234.88,91.78c.32-.76.64-1.51.97-2.27.22-.29.44-.57.66-.85l-.02.02c1.02-1.64,1.59-3.49,2.74-5.06.57-.77,1-2.21,2.34-1.63,1.22.52.53,1.81.3,2.76-.2.81-1.11,1.55-.22,2.44-2.5,1.42-2.25,4.09-3.41,6.11-.64-.64-1.25-1.21-2.39-.77-.58.23-1.4.28-.97-.75Z"/>
    <path class="cls-36" d="m241.66,87.18c-2.02-1.43.8-3.04-.4-4.7-1.61,2.1-3.19,4.15-4.76,6.2-.07-2.17,1.45-3.96,1.8-6.03,1.84-.79,1.84-2.87,3.34-3.9,2.2.68,1.33,2.45,1.66,3.79-.55,1.55-1.09,3.1-1.64,4.65Z"/>
    <path class="cls-20" d="m182.28,23.7c0,.26,0,.52,0,.78-1.72.64-3.3,1.51-4.42,2.86-1.89,2.29-4.34,3.4-7.51,3.22,2.96-3.72,7.47-5.24,11.92-6.86Z"/>
    <path class="cls-63" d="m61.09,51.32c.55.32.71.78.47,1.3-2.05,4.29-3.62,8.74-4.97,13.37-1.09-.83-.46-1.78-.73-2.56,1.11-4.26,2.77-8.32,5.23-12.11Z"/>
    <path class="cls-68" d="m116.09,164.46c-2.68-3.17-5.22-6.44-8.43-9.21-.06-.14-.12-.27-.18-.41.17-.46.54-.69,1.05-.78.32,0,.63.04.92.15.27.13.52.3.75.48.11.09.22.19.33.28.22.18.42.37.63.56.1.09.2.19.31.28.21.18.41.37.61.56.1.09.2.19.31.28.22.18.42.37.63.55.11.09.21.19.32.28.22.19.42.4.6.63.09.11.18.23.27.35.24.2.49.37.76.53.14.08.28.17.42.25.28.19.53.41.77.64.75.9,1.86,1.71.86,3.01-.73.33-.85.94-.92,1.58Z"/>
    <path class="cls-66" d="m80.47,32.09c-1.85.1-2.98,1.98-5,1.64,2.3-3.61,5.3-6.38,10.18-6.91-.25,2.94-3.94,3.13-5.17,5.28Z"/>
    <path class="cls-53" d="m234.88,91.78c.23.1.54.34.66.28,2.02-1.07,2.02-1.08,2.7,1.24-.22.06-.45.11-.68.17-2.1,1.62-3.06,3.9-4.3,6.02h0c-1.21.49-2.38.91-2.69-.86,1.43-2.28,2.87-4.56,4.3-6.84Z"/>
    <path class="cls-39" d="m117.01,162.88c.11-1.33-1.26-1.97-1.73-3.03-.29-.25-.52-.56-.84-.78h0c-.11-.14-.22-.27-.33-.41.12-.13.25-.25.38-.38.84.04,1.91-.14,2.39.51,1.77,2.38,4.48,4.22,5.18,7.22-1.39-1.43-3.97-1.29-5.04-3.13Z"/>
    <path class="cls-50" d="m243.3,82.54c-1.26-1.01-.61-2.7-1.66-3.79v.04c.66-.7.62-1.43.12-2.18.56-1.25.79-2.55.75-3.91-.03-1.06-.29-2.21.71-3.1.16.1.32.2.48.31,1.06,1.06-.28,2.38.47,3.47,0,1.01.15,2.03-.34,2.99-.63,1.22.07,1.9,1.2,2.41,0,1.47-.97,2.58-1.74,3.77Z"/>
    <path class="cls-49" d="m153.51,185.17c.12,1.02-.37,2.18.8,2.98-.46.83-.77,1.75-1.73,2.26l.05.04c-.03-.38-.01-.76-.09-1.13-.1-.44.26-1.12-.44-1.26-.59-.12-.93.41-1.18.87-1.39.23-1.95-.3-1.71-1.54,1.45-1.98,1.86-4.77,5.15-5.29.43.51.38,1.01-.03,1.5l.03-.02c-.59.4-.9.92-.84,1.6Z"/>
    <path class="cls-21" d="m72,37.4c-.4,1.28-.76,2.58-1.23,3.85-.25.66-.23,1.17.42,1.59h0c-.85,1.02-1.69,2.04-2.54,3.06-.7.54-1.44,1.22-2.42.72-.66-.33-.58-.99-.18-1.55l-.03.03c1.6-1.54,2.07-3.68,3.47-5.34.55-1.03,1.44-1.78,2.51-2.37Z"/>
    <path class="cls-9" d="m80.47,32.09c.3-1.73,1.68-2.72,3.13-3.6.79-.48,1.62-.86,2.04-1.68,1.3-.62,2.69-.94,4.17-.88,0,.28.02.56.02.84-2,1.26-4,2.53-6,3.79-.3-.24-.56-.2-.79.08l.06-.06c-.32.23-.58.52-.89.76-.37.65-1.01.8-1.75.75Z"/>
    <path class="cls-14" d="m228.94,104.82c-1.43.48-2.87.95-4.3,1.43.79-2.19,2.55-3.74,4.25-5.33.17-.1.35-.19.52-.29.2.05.4.09.6.14.69.49,1.18,1.04.69,1.88-.13,1.03-.8,1.69-1.76,2.18Z"/>
    <path class="cls-20" d="m167.87,35.95c-1.08.58-1.21,2.09-2.71,2.25.78-3.08,2.02-5.9,5.2-7.65.32.67.68,1.27,0,2.03-.93,1.05-1.68,2.23-2.51,3.36Z"/>
    <path class="cls-51" d="m66.04,45.07c.2,2,1.71.62,2.6.83,0,.25,0,.51,0,.76-.54,1.23-.99,2.51-2.54,3.06-1.06.58-1.21,1.96-2.53,2.3-.12-.13-.24-.27-.36-.4.11-.14.21-.28.32-.42.1-1.3,1.16-2.44.83-3.82.53-.79.7-1.8,1.68-2.31Z"/>
    <path class="cls-39" d="m107.66,155.24c-.11.6-.14,1.41-1.16.8-1.14-.68-1.79-1.94-3.25-2.27-.88-.57-1.51-1.29-1.64-2.3,1.3,1,3.19-.93,4.35.72.71.95,1.27,1.97,1.71,3.05h0Z"/>
    <path class="cls-9" d="m233.27,99.49c-.03-2.35,1.94-5.44,4.03-6.3.04-.01.18.18.27.28-.92,2.31-1.97,4.53-4.3,6.02Z"/>
    <path class="cls-44" d="m115.21,167.53c.92-.28,1.97.91,2.8-.21,1.2.82,1.77,2.04,2.42,3.2.49.91.53,1.6-.92,1.59-1.73-1.3-2.93-3-4.3-4.58Z"/>
    <path class="cls-34" d="m202.71,131.66c-.19-2.81,2.76-3.66,4.18-5.47h0c.34.04.69.06,1.03.09-1.08,2.31-3.21,3.79-5.2,5.38Z"/>
    <path class="cls-16" d="m133.08,183.56q3.35.59,3.38,4.6c-1.14-1.27-2.27-2.54-3.41-3.81-.27-.18-.36-.36-.26-.53.1-.17.19-.26.29-.26Z"/>
    <path class="cls-9" d="m229.79,100.96c-.3-.01-.6-.02-.9-.04.06-1.07.64-1.82,1.69-2.3.64.94,1.72.76,2.69.86-.22,1.48-1.37,2.33-2.57,3.16-.31-.56-.61-1.13-.92-1.69h0Z"/>
    <path class="cls-42" d="m154.25,55.75c0,1.09-.29,2.16-1.73,2.07-1.41-.08-1.57-1.18-1.49-2.25,1.05.37,2.19-.46,3.22.18Z"/>
    <path class="cls-37" d="m127.27,177.43c.39,1.14,2.53.77,2.43,2.32.56.82.7,1.47-.75,1.43-1.92-.76-1.85-2.24-1.69-3.75Z"/>
    <path class="cls-35" d="m133.08,183.56c0,.26-.02.52-.02.79-2.32.64-3.19-.43-3.37-2.32.57-.48,1.15-.47,1.75-.04.55.52,1.1,1.05,1.65,1.57Z"/>
    <path class="cls-51" d="m69.49,39.77c-.62,2.06-1.2,4.15-3.47,5.34.58-2.08,1.48-4,3.47-5.34Z"/>
    <path class="cls-42" d="m122.92,29.07c.56,0,1.12,0,1.68,0,1.41.77,2.81,1.54,4.22,2.31.24.14.34.29.28.46-.06.17-.12.26-.2.26-2.32-.48-4.14-1.77-5.99-3.03Z"/>
    <path class="cls-55" d="m119.51,172.11c.73-.33.84-.95.92-1.59,1.07.85,1.5,1.93,1.59,3.28-1.52,0-1.98-.88-2.51-1.69Z"/>
    <path class="cls-4" d="m183.93,152.94c.23-1.46,1.21-2.39,2.58-3.06-.05,1.58-1.14,2.44-2.58,3.06Z"/>
    <path class="cls-43" d="m131.43,182c-.58.01-1.16.02-1.74.04-.24-.28-.49-.57-.73-.85.63-.32.74-.85.75-1.43,1.2.36,1.65,1.18,1.72,2.25Z"/>
    <path class="cls-4" d="m186.51,149.88c.37-.88.69-1.79,1.69-2.3-.53.79,1.54,3.13-1.69,2.3Z"/>
    <path class="cls-4" d="m188.2,147.59c.05-.97.63-1.49,1.69-1.57-.24.81-.81,1.32-1.69,1.57Z"/>
    <path class="cls-5" d="m132.37,34.31c.64.12,1.25.28,1.61.83l-.21.23c-.57.26-1.07.25-1.45-.28l.03.05c-.24-.14-.34-.29-.29-.46.05-.18.12-.27.19-.27l.12-.11Z"/>
    <path class="cls-49" d="m152.58,190.4c-.09.33-.19.66-.28.98-.74-.56-.14-.73.33-.94l-.05-.04Z"/>
    <path class="cls-49" d="m155.13,187.34c.15-.39.44-.64.9-.72-.3.24-.6.48-.9.72Z"/>
    <path class="cls-49" d="m154.31,188.14c.09-.41.37-.67.81-.79-.09.41-.37.67-.81.79Z"/>
    <path class="cls-16" d="m136.46,188.15c.46.12.73.4.84.81-.47-.11-.76-.37-.84-.81Z"/>
    <path class="cls-4" d="m189.87,146.04c.29-.27.57-.54.86-.82-.1.43-.39.7-.86.82Z"/>
    <path class="cls-39" d="m100.9,150.66c.26.28.51.57.77.85-.47-.13-.71-.43-.77-.85Z"/>
    <path class="cls-70" d="m190.79,62c-.5-3.01,2.96-3.24,3.94-5.05,1.55.36.73,1.72,1.61,2.14,1.49-.2,1.92-1.85,3.58-1.99.35,1.86-1.17,2.61-2.19,3.51-1.3,1.13-1.97,2.19-.39,3.47.74.6,1.01,1.2.47,1.97-2.29,3.23-2.81,7.12-4.88,10.44-.77,1.23-1.49,2.44-3,3.06-1.85-2.87,1.36-4.53,2-6.81.2-.45.52-.83.91-1.15.07-.29.37-.24.59-.32-.15-.24-.29-.19-.41.15-.38.31-.7.65-.96,1.04-.93,1.81-2.13,3.49-3.05,5.3-.96,1.75-1.96,3.47-4.1,4.31-2.15-.2-.89-1.59-1.06-2.54.08.71-.61,1.1-.7,1.69-.11.33-.27.63-.48.92-.22.28-.47.53-.74.77-.14.11-.29.21-.43.32-1.19.59-2.38,1.18-2.66-.77.11-.3.28-.58.49-.83.21-.24.43-.48.65-.72.1-.12.2-.25.3-.37.29-.41.4-.88.6-1.33.92-2.23,3.28-3.9,3.12-6.55.86-1.9,1.44-3.94,3.27-5.35,2.21-.89,2.58-2.93,3.53-4.6l-.03.04c.22-.16.3-.32.24-.48-.06-.17-.13-.25-.2-.25Z"/>
    <path class="cls-19" d="m187.43,91.78c-3.44.3-1.31-1.98-1.75-3.07h0c3.2-3.11,5.43-6.86,8.18-10.28.99-1.23,1.71-2.61,3.67-2.74-.31,2.54-2.55,4.19-3.61,6.39-.57.85-1.19,1.67-1.47,2.65.29-.84.8-1.58,1.32-2.32,1.41-2.8,4.21-4.97,4.63-8.23.32-.41.6-.85.96-1.23.36-.38.86-.76,1.43-.56.72.26.9.9.96,1.56.09.96-.51,1.64-1.02,2.4-2.1,3.12-4.64,6.11-6.01,9.48-1.57,3.87-4.42,6.93-6.46,10.47-.4.7-.93,1.25-1.74,1.56-1.06-1.06-.23-2.09.08-3.12.2-.52.38-1.04.78-1.48l-.02.02c.44-.49.81-.99.07-1.53Z"/>
    <path class="cls-39" d="m56.03,71.97c1.87-5.65,3.37-11.41,5.88-16.88.25-.36.51-.37.79-.02.15,1.93-.3,3.69-1.27,5.47-1.95,3.54-2.73,7.43-2.89,11.32-.15,3.76-.47,7.54.65,11.3.62,2.07.06,4.26-.72,6.32-.25-.01-.51-.02-.76-.03-.37-.16-.68-.38-.94-.67-.76-1.1-1.17-2.32-1.6-3.55-.79-2.6.16-5.21-.09-7.81,0-.76,0-1.52,0-2.28.01-.76-.03-1.53.17-2.29.17-.36.42-.66.78-.89Z"/>
    <path class="cls-70" d="m221.31,32.89c1.5.31,3.05.52,4.23,1.55.57,2.04,2.35,3,4.27,3.81,1.25,2.76,3.44,5.22,3.37,8.41-1.94.28-1.14-1.7-2.12-1.91.65,2.35,3.51,4.25,2.97,7.26-.8.33-.75,1.27-1.64,2.1-1.28-5.03-5.28-8.73-5.26-13.86,0-1.77-1.83-2.72-3.41-3.59-1.18-.64-2.68-.9-3.25-2.26.59-.37.62-.99.85-1.52Z"/>
    <path class="cls-41" d="m101.72,69.6c2.13,3.14,2.11,6.62,2.09,10.15-.01,2.37.46,4.74.76,7.11.08.62.4,1.22.48,1.84.1.81-.23,1.59-1.06,1.93-1.21.49-1.78-.32-2.26-1.15-1.03-4.74-1.31-9.56-1.95-14.34-.2-1.48-.2-3.01.3-4.48.33-.63.7-1.22,1.65-1.05Z"/>
    <path class="cls-42" d="m101.72,88.72c-1.66-.55-2.82-1.55-3.37-3.09,1.49-2.01-.35-3.58-.85-5.32-1.3-.97-.75-2.31-.85-3.51-.08-1,.36-2.29-.18-2.95-1.61-1.93-.63-3.09.98-4.27.09.09.19.17.25.27.14.2.16.11.27-.23.32-.98.23-2.43,1.94-2.23.88.11.87,1.1.76,1.86-.11.33-.2.66-.29.99-.21.49-.33.99-.34,1.51-.01.54-.01,1.08-.01,1.61,0,1.14,0,2.28.02,3.42.72,3.96,1.81,7.88,1.68,11.93Z"/>
    <path class="cls-38" d="m139.89,48.95c3.23,2.95,4.92,6.56,5.64,10.59q-3.99-1.03-5.95-3.66c-1.56-2.08-3.15-4.15-4.73-6.22,1.56-.89,2.41.31,3.51.91,1.33.73.45-.66.88-.83.14-.32.35-.58.65-.78Z"/>
    <path class="cls-64" d="m184.83,81.83c1.06-1.57,2.76-2.76,3.4-4.58,1.83-.11,1.17.95.96,1.73-.26.96-1.24,1.73-.96,2.85.05.86-.5,1.55-.85,2.29-.32.22-.54.52-.83.77,0,.25-.01.5-.02.76-.53.4-.35,1.12-.85,1.53h0c-.55.39-.27,1.15-.84,1.53-1.09,1.6-2.13,3.22-3.28,4.79-.35.48-.89,1.15-1.68.81-.84-.36-.51-1.03-.2-1.61.3-.57.61-1.13.91-1.69,1.97-2.85.59-6.96,4.24-9.18Z"/>
    <path class="cls-30" d="m187.36,94.82c-.28,1.02-.56,2.04-.84,3.07-3.69,1.39-5.54,4.38-6.6,7.42-1.11,3.2-2.88,5.19-7.28,6.13,4.25-6.09,9.36-10.92,13-16.64.57.05,1.15-.44,1.72.01Z"/>
    <path class="cls-42" d="m183.14,65.77c-.35.74-.97,1.22-1.75,1.58-1.3.6-1.95,1.51-1.3,2.79.85,1.68.16,2.93-1.2,4.04-.29-.27-.57-.25-.85.01l.02-.02c-1.31.86-.92,3.26-3.4,3.07.4-5.56,2.78-10.22,7.63-13.77,1.02.54.23,1.63.85,2.29Z"/>
    <path class="cls-40" d="m81.79,51.04c.12.13.31.27.28.32-1.97,3.57-3.88,7.17-5.97,10.69-.89,1.51-3.53.67-4.42,2.53-.76-2.33.4-3.89,1.93-5.34,2.47,1.15,2.41-1,3.15-2.02.84-1.15,1.49-2.43,2.34-3.58.73-.98,1.04-2.39,2.69-2.6Z"/>
    <path class="cls-39" d="m112.79,152.94c.99.46,1.65,1.2,2.32,1.98,1.19,1.37.68,2.41-.64,3.36l-.04.02c-.28.24-.57.24-.85,0h0c-.28-.26-.55-.53-.88-.74h0c-.24-.29-.52-.55-.86-.76h0c-.23-.3-.52-.56-.85-.77h0c-.24-.29-.52-.55-.86-.75h0c-.22-.31-.49-.57-.86-.74h0c-.79-.82-3.09-.32-2.5-2.34,1.07-.73,1.51-1.62,1.07-2.84-.21-.57-.28-1.31.61-1.45.97-.16,1.35.59,1.73,1.24-.02,1.76,1.13,2.87,2.6,3.79Z"/>
    <path class="cls-42" d="m97.05,42.03c1.01-1.85,2.55-2.1,4.12-2.23,1.25-.11,2.53.11,3.75-.33.92-.34,1.97-.75,2.52.38.43.87,1.08,1.84,0,2.79-.89.78-1.89,1.25-3.01.62-2.13-1.19-4.5-1.21-7.38-1.21Z"/>
    <path class="cls-46" d="m102.59,37.96c-3.63.08-6.75,1.23-9.24,3.63-1.55,1.49-3.63.32-5.33,1.06,3.82-4.3,8.39-6.57,14.56-4.69Z"/>
    <path class="cls-58" d="m111.48,65.15c-1.56-1.46-3.25-2.79-3.08-5.14.07-.99-.87-1.5-1.76-1.97-1.36-.72-2.47-1.73-3.36-2.87-.58-.74-.07-1.48.63-1.97.53-.37,1.16-.12,1.45.34,2.04,3.32,5.04,6.14,6.37,9.83.21.57.35,1.21-.25,1.77Z"/>
    <path class="cls-59" d="m99.22,72.75c-.01-.54-.03-1.08-.04-1.63.29-.25.59-.49.84-.77h0c.28-.37.57-.35.85,0-.04,5.5.55,10.94,1.6,16.36.19.97.33,2.02-.75,2.76,0-.25,0-.5,0-.76-.82-4.14-1.64-8.28-2.46-12.42.55-1.19.61-2.37-.04-3.55Z"/>
    <path class="cls-42" d="m132.32,35.1c.48.09.97.19,1.45.28,3,2.73,6.06,5.42,8.06,8.89-3.41-.34-4.81-3.01-6.78-4.94-.91-.89-1.5-2.05-2.8-2.61h0c.02-.54.05-1.08.07-1.62Z"/>
    <path class="cls-46" d="m157.96,92.56c.22-4.42,2.97-8.15,4.01-13.19.89,4.82-.15,8.2-4.01,13.19Z"/>
    <path class="cls-21" d="m184.83,81.83c-.69,1.55-1.63,2.89-1.5,4.84.09,1.43-1.35,3.12-2.73,4.35-.02-.63-.16-1.2-.85-1.52-.27-.27-.44-.58-.49-.94.24-2.52,2.48-4.31,3.04-6.71.15-1.73,1.72-2.71,2.59-4.43,1.3,1.77-1.98,3.04-.05,4.42Z"/>
    <path class="cls-62" d="m139.81,49.85c.11.85.21,1.7.35,2.79-2.31-.47-3.09-2.83-5.31-2.99-.56-.76-1.11-1.51-1.67-2.27-.58-.35-.4-1.1-.94-1.48h0c-.56-.69-.44-1.26.35-1.72.58-.08,1.05.15,1.47.46.59.61,1.45.68,2.25.88.32.16.54.4.7.69.95,1.21,1.79,2.47,2.8,3.64Z"/>
    <path class="cls-28" d="m179.75,88.72c0,.26,0,.51,0,.77-.19,1.56-1.06,2.8-2.22,3.92-1.02,1-1.96,2.06-2.93,3.1q-.94-2.26.9-5.5c1.4-.79,1.47-3.59,4.25-2.28Z"/>
    <path class="cls-28" d="m192.9,101.62c-2.53,3.62-4.51,7.58-8.29,11.33-.49-3.48,2.25-4.48,3.35-6.27,1.24-2,3.48-3.23,4.94-5.06Z"/>
    <path class="cls-25" d="m179.75,88.72c-1.5,0-2.37.87-3.14,1.87-.27.35-.42.97-1.11.41.33-1.6.94-3.11,1.71-4.58.66-1.95,3.24-2.17,4.24-3.82h0c.27-.27.61-.47.85-.77h0c.92.57.59,1.22.19,1.92-.93,1.65-1.83,3.31-2.74,4.97Z"/>
    <path class="cls-25" d="m241.67,50.48c.04.5-.07,1.07.14,1.5,1.89,3.76.61,7.25-.99,10.73-.01-.25-.02-.51-.03-.76-.64-3.8-.15-7.66-.83-11.46,0-.25,0-.51,0-.76.14-.32.28-.63.42-.95.24.25.52.48.72.75.22.3.38.64.57.96Z"/>
    <path class="cls-18" d="m202.93,87.57c-1.74,2.76-4.55,5.05-4.88,8.46-.02.23-.58.54-.93.59-.44.06-.94-.35-.76-.69,1.65-3.08,2.12-6.83,6.02-8.62.07-.03.23.11.55.26Z"/>
    <path class="cls-46" d="m169.92,71.18c1.21,3.12-.83,4.92-1.55,7.01-.18.53-.95.55-1.46.32-.53-.24-.77-.78-.55-1.29.85-1.96,1.81-3.87,3.56-6.04Z"/>
    <path class="cls-18" d="m173.31,83.99c-1.01,3.72-3.14,7.1-4.29,10.78-.29-4.14,1.09-7.74,4.29-10.78Z"/>
    <path class="cls-52" d="m188.22,81.84c-.5-.04-1.57.92-1.33-.36.17-.92,1.11-1.73,1.69-2.6.41-.62.39-1.19-.35-1.63,1.69-1.6,1.97-4.12,4.24-5.36h0c.21,1.34-.73,2.29-1.31,3.4-.68,1.31-1.38,2.7-1.24,4.25h0c-.31.23-.56.51-.84.77-.02.63-.17,1.2-.85,1.53Z"/>
    <path class="cls-42" d="m132.25,36.72c-.34.48-.83.71-1.41.45-2.43-1.1-4.14-3.49-7.33-3.25-.39.03-.54-.51-.47-.9.12-.69.57-1.3,1.33-1.17.79.13,1.56.55,2.22.99,1.92,1.26,3.77,2.59,5.65,3.89h0Z"/>
    <path class="cls-59" d="m100.87,70.37c-.28,0-.57,0-.85,0-.15-.79.35-1.68-.43-2.39-1.38.77-.98,2.21-1.57,3.28-.77-.42-.46-1.1-.58-1.67-.06-1.85.95-3.31,2.19-4.99,1.66,1.46,2.01,3.18,2.09,5.01l-.85.76Z"/>
    <path class="cls-42" d="m112.74,26.78c3.28.22,6.48.66,9.33,2.29-.44,1.16-1.05,1.93-2.58,1.13-2.24-1.17-4.5-2.29-6.75-3.43Z"/>
    <path class="cls-28" d="m194.03,42.43c-.02,1.04-.77,1.57-1.7,1.98-1.01.44-2,1.05-3.13.27-.35-.24-.56-.54-.4-.97.36-.97,2.93-2.4,4.16-2.27.63.06.97.44,1.07,1Z"/>
    <path class="cls-22" d="m234.02,52.01c-.93-3.34-3.12-6.15-5.08-9.48,2.77.62,2.57,3.15,4.24,4.13.23,1.92,1.71,3.37,2.34,5.14.15.41.45,1.07-.39,1.16-.6.06-.87-.49-1.11-.94Z"/>
    <path class="cls-57" d="m183.99,72.65c1.07.64.83,1.41.34,2.26-1.01,1.75-1.96,3.52-2.93,5.29-.22.32-.51.6-.81.86h0c-.29.24-.55.5-.81.78l-.03.04c-.77.16-1.14-.04-.93-.8,1.72-2.81,3.44-5.62,5.16-8.43Z"/>
    <path class="cls-37" d="m193.32,81.84c1.02-2.26,2.55-4.23,4.21-6.14.02-.25.03-.5.03-.74.28-.25.6-.48.85-.77h0c.71.44.72.99.36,1.64-1.32,2.38-2.51,4.82-4.56,6.8-.54-.04-.63-.49-.89-.79Z"/>
    <path class="cls-45" d="m234.03,40.54v-2.29s0,0,0,0c2.73,2.5,4.25,6.63,3.39,9.17-.71-2.46-2.04-4.68-3.39-6.88Z"/>
    <path class="cls-63" d="m133.92,45.22c-.29-.23-.58-.47-.87-.7-.59-.44-1.24-.87-.77-1.7,2.43-.02.05-1.43.91-2.16,1.97,1.37,4.28,2.44,4.15,5.24-.29.27-.58.29-.88.02h.02c-.93,0-1.18-2.01-2.56-.7Z"/>
    <path class="cls-70" d="m239.96,50.48c1.31,2.73.94,5.61.94,8.45,0,1-.07,2.01-.12,3.01-.9-.63-.81-1.53-.83-2.4-.04-2.37.24-4.75-.74-7.06-.3-.71-.05-1.49.74-2Z"/>
    <path class="cls-21" d="m178.83,81.08c.31.27.62.53.93.8-.08.41-.73.98-.09,1.18.48.15,1.18-.29,1.78-.46-.19,2.38-2.8,2.58-4.24,3.82-.02-1.92-.23-3.89,1.62-5.35Z"/>
    <path class="cls-46" d="m154.73,102.56c.57-2.72.94-5.45,2.58-7.81-.42,2.74-.34,5.6-2.58,7.81Z"/>
    <path class="cls-11" d="m182.29,52.68c.26-1.86,1.72-2.75,3.59-3.34-1.57,1.86-2.18,4.29-4.45,5.7-.51-.51-.45-1.02-.02-1.54v.04c.33-.25.63-.53.88-.86Z"/>
    <path class="cls-23" d="m229.81,38.24c-2.62.38-4.65-1.44-4.27-3.81h0c.24.29.58.49.85.76h0c.28.25.56.5.85.74.28.01.55.02.83.02.28.26.56.52.87.76.29.51.58,1.02.87,1.53Z"/>
    <path class="cls-24" d="m174.66,77.26c1.7-.52,1.67-2.58,3.4-3.07-.4,2.37-1.99,4.2-3.41,6.11-1.54.06-1.39-.64-.84-1.52.28-.51.57-1.01.85-1.52Z"/>
    <path class="cls-32" d="m183.14,65.77c-1.01-.55-.82-1.45-.85-2.29,1.37-.76,1.24-2.53,2.69-3.27q.28,1.81-1.84,5.56Z"/>
    <path class="cls-21" d="m230.18,70.18c-1.81-1.82-1.1-3.53-1.22-5.65,2.03,1.85,1.84,3.48,1.22,5.65Z"/>
    <path class="cls-54" d="m181.41,53.51c0,.51.01,1.03.02,1.54-1.15,1.37-2.31,2.74-3.46,4.12.22-2.38,1.07-4.41,3.45-5.66Z"/>
    <path class="cls-10" d="m132.28,42.81c.26.57.51,1.13.77,1.7-.73.25-.75.83-.81,1.39-1.13-1.53-2.26-3.06-3.38-4.59-.3-.79.04-1.01.87-.78.58.5,1.15,1,1.73,1.5.25.28.48.59.82.79h0Z"/>
    <path class="cls-21" d="m66.1,49.72c.7-1.12,1.01-2.5,2.54-3.06.72,1,.66,1.94.06,3.04-.97,1.78-1.73.71-2.6.02Z"/>
    <path class="cls-13" d="m190.78,62.7c.12,1.86-.78,3.34-2.15,4.63-.43.4-.93.45-1.38-.02,1.05-1.61,2.01-3.28,3.52-4.6Z"/>
    <path class="cls-12" d="m97.49,80.31c1.55,1.1,1.74,2.79,2.21,4.32.26.84-.68.91-1.36,1,.29-1.85-.97-3.5-.85-5.32Z"/>
    <path class="cls-26" d="m73.92,78.85c-1.32-1.41-1.22-2.41-.37-3.68,1.38,1.03,1.2,2.08.37,3.68Z"/>
    <path class="cls-31" d="m221.31,32.89c.41.82.67,1.57-.85,1.52-.64-1.36-2.17-1.65-3.41-2.28,1.13-1.4,2.27.27,3.4,0h0c.27.27.55.52.85.76h0Z"/>
    <path class="cls-7" d="m112.79,152.94c-2.11-.51-3.02-1.85-2.6-3.79.87,1.26,1.73,2.53,2.6,3.79Z"/>
    <path class="cls-8" d="m106.79,152.21c.38,1.17,1.99,1.29,2.5,2.35-.67,0-1.27.1-1.62.69-1.3-.69-2.35-1.48-1.71-3.05.28,0,.55.01.83.02Z"/>
    <path class="cls-10" d="m136.46,45.92c.29,0,.59-.02.88-.02h0c.23.31.57.5.84.77h0c.28.25.54.53.83.77.02.24.03.48.04.72.26.28.48.59.83.8h0c-.03.3-.05.6-.08.9-1.85-.8-2.83-2.21-3.35-3.94Z"/>
    <path class="cls-63" d="m78.83,38.25c-.59,1.12-1.58,1.67-3.17,1.76.17-1.4,1.26-1.95,2.26-2.56.54.04.64.5.9.8Z"/>
    <path class="cls-15" d="m157.69,54.29c-1.37-1.57.16-2.62.84-3.83.51.05.53.54.83.77-.56,1.02-1.12,2.04-1.67,3.06Z"/>
    <path class="cls-47" d="m78.83,38.25c-.3-.27-.6-.53-.9-.8.24-.29.43-.63.73-.85.29-.21.84-.51,1.02-.4.75.42.02.78-.2,1.14-.19.32-.43.61-.65.91Z"/>
    <path class="cls-39" d="m104.53,148.27c.17.19.67.53.79.96.14.48-.41.51-.77.34-.5-.23-.94-.58-.89-1.15.03-.31.31-.39.87-.15Z"/>
    <path class="cls-18" d="m173.81,78.78c.02.62.15,1.2.84,1.52-.33.52-.78,1.41-1.41.79-.68-.67-.39-1.68.57-2.31Z"/>
    <path class="cls-8" d="m159.36,51.24c-.28-.26-.55-.51-.83-.77.08-.35.08-.74.26-1.04.17-.3.61-.76.78-.71.78.21.33.71.17,1.11-.09.22-.2.44-.3.67-.03.25-.05.49-.08.74Z"/>
    <path class="cls-29" d="m234.41,70.27c.13.15.36.28.38.44.06.46.21.97-.41,1.25-.03.01-.23-.16-.25-.26-.09-.48-.22-.97.28-1.43Z"/>
    <path class="cls-49" d="m187.36,94.82c-.57.09-1.15.91-1.72-.01.39-.68.88-1.27,1.74-1.52,0,.51-.01,1.02-.02,1.53Z"/>
    <path class="cls-49" d="m187.43,91.78c.47-.02,1.15-.77,1.36-.06.25.83-.66,1.26-1.43,1.59.02-.51.05-1.02.07-1.53Z"/>
    <path class="cls-63" d="m129.72,40.53c-.29.26-.58.52-.87.78-.67-.34-.83-.9-.84-1.54h0c.57,0,1.13,0,1.7,0h0c0,.24,0,.5.02.75Z"/>
    <path class="cls-61" d="m153.51,185.17c-1.43-1.26-.42-1.48.84-1.6.06.25.04.5-.04.75-.32.22-.63.45-.79.8v.05Z"/>
    <path class="cls-10" d="m132.24,45.91c.66.31.88.85.94,1.48-.74-.27-.92-.83-.94-1.48Z"/>
    <path class="cls-51" d="m62.69,53.54c.01-.51.03-1.01.04-1.52.27-.25.54-.24.81,0h.01c-.03.64-.17,1.21-.87,1.53Z"/>
    <path class="cls-63" d="m62.7,55.06c-.26,0-.53.01-.79.02-.05-.64.1-1.21.77-1.56,0,.51.01,1.03.02,1.54Z"/>
    <path class="cls-42" d="m121.46,33.19c-.04.09-.07.27-.11.27-.12,0-.24-.06-.36-.1.04-.09.07-.27.11-.27.12,0,.24.06.36.1Z"/>
    <path class="cls-61" d="m154.33,183.58c.01-.5.02-1,.03-1.5,1.03.52.89,1.02-.03,1.5Z"/>
    <path class="cls-19" d="m185.68,87.19c.02-.63.17-1.2.85-1.53-.01.63-.16,1.2-.85,1.53Z"/>
    <path class="cls-19" d="m184.84,88.72c.01-.63.16-1.2.84-1.53,0,.51,0,1.02,0,1.53h0c-.28,0-.56,0-.84,0Z"/>
    <path class="cls-17" d="m182.29,52.68c-.3.29-.59.57-.89.86.3-.29.59-.57.89-.86Z"/>
    <path class="cls-13" d="m190.79,62c.34.1.46.29.3.53-.06.1-.22.14-.34.21.02-.25.03-.49.04-.74Z"/>
    <path class="cls-36" d="m236.51,88.66c-.02.41-.26.68-.66.85-.01-.43.23-.7.66-.85Z"/>
    <path class="cls-14" d="m224.63,106.27c-.08.43-.37.67-.83.75.28-.25.56-.5.83-.75Z"/>
    <path class="cls-24" d="m178.04,74.2c.27-.53.56-.55.85-.01-.28,0-.57,0-.85.01Z"/>
    <path class="cls-19" d="m198.41,74.19c-.28.26-.56.51-.85.77.28-.26.56-.51.85-.77Z"/>
    <path class="cls-70" d="m189.08,80.31c.28-.26.56-.51.84-.77-.28.26-.56.51-.84.77Z"/>
    <path class="cls-19" d="m186.55,84.9c.28-.26.55-.52.83-.77-.28.26-.55.52-.83.77Z"/>
    <path class="cls-66" d="m83.05,30.64c.22-.39.47-.51.79-.08-.26.06-.53.08-.79.08Z"/>
    <path class="cls-66" d="m82.22,31.34c.3-.25.59-.51.89-.76-.3.25-.59.51-.89.76Z"/>
    <path class="cls-42" d="m128.88,32.09c.45.12.75.37.88.79-.29-.26-.58-.52-.88-.79Z"/>
    <path class="cls-70" d="m221.3,32.89c-.28-.25-.57-.51-.85-.76.28.25.57.51.85.76Z"/>
    <path class="cls-70" d="m227.23,32.9c-.28-.26-.56-.51-.85-.77h0c.39-.14.71-.04.95.26l-.11.5Z"/>
    <path class="cls-21" d="m72.89,40.54c.06-.11.15-.31.19-.3.28.06.21.17-.19.3h0Z"/>
    <path class="cls-21" d="m72.88,40.54c-.06.11-.15.31-.19.3-.28-.06-.22-.17.19-.3h0Z"/>
    <path class="cls-21" d="m71.19,42.84c.06-.11.15-.31.19-.3.28.06.22.18-.19.3h0Z"/>
    <path class="cls-63" d="m132.27,42.81c-.27-.26-.55-.52-.82-.79.27.26.55.52.82.79Z"/>
    <path class="cls-63" d="m138.19,46.66c-.28-.26-.56-.51-.84-.77.28.26.56.51.84.77Z"/>
    <path class="cls-63" d="m139.02,47.43c-.28-.25-.55-.51-.83-.76.28.26.55.51.83.76Z"/>
    <path class="cls-38" d="m139.89,48.95c-.28-.27-.55-.53-.83-.8.28.27.55.53.83.8Z"/>
    <path class="cls-42" d="m129.73,32.85c.28.27.55.54.83.81-.28-.27-.55-.54-.83-.81Z"/>
    <path class="cls-70" d="m228.09,33.66c-.28-.25-.57-.51-.85-.76h0c.75-.17,1.16-.03.85.76h0Z"/>
    <path class="cls-42" d="m130.56,33.65c.29.25.58.51.87.76-.29-.25-.58-.51-.87-.76Z"/>
    <path class="cls-42" d="m132.25,34.42c.06.24.1.48.1.72-.31-.25-.63-.5-.94-.74.28,0,.56.01.84.02Z"/>
    <path class="cls-70" d="m226.39,35.19c-.28-.26-.57-.51-.85-.77.28.26.57.51.85.77Z"/>
    <path class="cls-70" d="m227.24,35.94c-.28-.25-.57-.5-.85-.74.28.25.57.5.85.74Z"/>
    <path class="cls-70" d="m228.94,36.72c-.29-.25-.58-.5-.87-.76.29.25.58.5.87.76Z"/>
    <path class="cls-63" d="m128.01,39.78c-.12-.06-.35-.14-.34-.17.07-.26.2-.2.34.17h0Z"/>
    <path class="cls-63" d="m129.71,39.78c.06-.11.15-.31.18-.3.28.06.21.17-.19.29h0Z"/>
    <path class="cls-49" d="m153.52,185.12c.08-.41.36-.67.79-.8-.26.27-.53.53-.79.8Z"/>
    <path class="cls-34" d="m206.89,126.19c-.12-.06-.34-.14-.34-.17.06-.25.19-.19.33.17h0Z"/>
    <path class="cls-65" d="m206.88,26.01c-.33-.38-.67-.77-1.04-1.19,7.66.4,9.56.96,13.43,4.09-4.39-1.03-8.39-1.97-12.39-2.9h0Z"/>
    <path class="cls-45" d="m228.09,33.66c-.28-.25-.57-.51-.85-.76-.28-.26-.57-.51-.85-.76-.18-.59-.88-1.14-.42-1.77.46-.63,1.25-.53,1.88-.2,2.57,1.33,5.3,2.56,5.32,5.8h0c-1.41-.45-1.96-1.72-2.86-2.61-1.21-1.2-1.53.1-2.23.32Z"/>
    <path class="cls-45" d="m233.18,35.95c.12.06.34.14.34.17-.06.26-.2.19-.34-.17h0Z"/>
    <path class="cls-45" d="m234.02,38.25c-.12-.06-.34-.14-.34-.17.06-.25.19-.19.34.17h0Z"/>
    <path class="cls-67" d="m55.87,77.21c.43,2.81-1.08,5.65.23,8.44.33.75.3,1.51.07,2.27-.36.31-.73.33-1.12.05-1.47-5.38-1.26-10.76-.04-16.14.52.08.59.55.9.82-.01.79-.02,1.57-.04,2.36-.54.74-.55,1.48.01,2.21Z"/>
    <path class="cls-69" d="m55.04,87.97c.32,0,.63.01.95.02.47.36,1.09.48,1.58.82.02.22.07.43.14.64-.6.96-1.1,1.95-.88,3.78-1.58-2.03-1.82-3.61-1.79-5.26Z"/>
    <path class="cls-56" d="m243.38,67.35c.59-.15,1.54-.76,1.57.28.04,1.69.68,3.52-.73,5.06-.91-.88,0-2.12-.73-3.04l-.26-.05c.05-.75.1-1.5.16-2.24Z"/>
    <path class="cls-36" d="m241.76,76.61c1.05.78.86,1.5-.14,2.18.05-.73.09-1.46.14-2.18Z"/>
    <path class="cls-63" d="m63.55,52.01c-.27,0-.54,0-.81,0,.26-.27.53-.55.79-.82,0,.27.02.54.03.81Z"/>
    <path class="cls-3" d="m243.48,69.64c1.09.85.58,2.01.73,3.04,0,.23-.02.46-.04.69-1.47-1.05-.62-2.46-.69-3.72Z"/>
    <path class="cls-8" d="m113.6,158.31c.28,0,.57,0,.85,0,0,.26,0,.51,0,.77-.28-.26-.56-.51-.84-.77Z"/>
    <path class="cls-8" d="m114.44,159.08c.28.26.56.52.84.78-.28-.26-.56-.52-.84-.78Z"/>
    <path class="cls-8" d="m109.3,154.55c.45.09.74.34.86.74-.29-.25-.58-.49-.86-.74Z"/>
    <path class="cls-8" d="m110.16,155.29c.45.1.74.36.86.76-.29-.25-.58-.5-.86-.76Z"/>
    <path class="cls-8" d="m111.02,156.04c.28.26.56.52.85.77-.28-.26-.56-.52-.85-.77Z"/>
    <path class="cls-8" d="m111.86,156.81c.29.25.58.51.86.76-.29-.25-.58-.51-.86-.76Z"/>
    <path class="cls-8" d="m112.72,157.57c.29.25.59.49.88.74-.29-.25-.59-.49-.88-.74Z"/>
    <path class="cls-14" d="m229.79,100.96c.18-.34.76-.73.84-.55.4.87-.55.35-.84.55h0Z"/>
    <polygon class="cls-52" points="193.32 71.13 193.51 70.81 193.67 70.95 193.32 71.13"/>
    <path class="cls-52" d="m193.32,71.13c-.28.25-.57.51-.85.76h0c.28-.25.57-.51.85-.76Z"/>
    <path class="cls-21" d="m180.59,81.07c.27-.29.54-.57.81-.86-.27.29-.54.57-.81.86Z"/>
    <path class="cls-21" d="m179.79,81.85c.27-.26.54-.52.81-.78-.27.26-.54.52-.81.78Z"/>
    <path class="cls-21" d="m182.29,81.84c-.28.26-.56.51-.85.77.28-.26.56-.51.85-.77Z"/>
    <path class="cls-48" d="m193.32,81.84c.3.26.59.52.89.79-.95,1.33-1.35,2.97-3.28,4.61.38-2.42,1.68-3.82,2.39-5.4Z"/>
    <path class="cls-12" d="m57.57,88.81c-.87.27-1.72.5-1.58-.82.04-.78.07-1.56.11-2.33.49,1.05.98,2.1,1.47,3.15Z"/>
    <path class="cls-60" d="m99.22,72.75c1.3,1.17,1.26,2.36.04,3.55-.01-1.18-.03-2.37-.04-3.55Z"/>
    <path class="cls-59" d="m100.02,70.36c-.28.26-.56.51-.84.77.28-.26.56-.51.84-.77Z"/>
    <path class="cls-10" d="m133.92,45.22c.1-.78.26-1.6,1.37-.74.49.38.8.96,1.19,1.44-.82-.33-2.28,1.23-2.56-.7Z"/>
  </g>
  <g>
    <path class="cls-2" d="m212.87,128.1c-.96-3.48-1.93-6.96-2.88-10.44-.38-1.39-.75-2.79-1.12-4.18-1.19-4.52-2.31-9.06-3.26-13.64,0,0,0-.02,0-.03-1.74-3.96-3.49-7.92-5.23-11.88,0,0,0-.01,0-.02h0c-.35-.45-.67-.91-.97-1.38-.56-.86-1.05-1.77-1.47-2.71-.17-.37-.34-.75-.49-1.13,0-.01,0-.02-.01-.03-.17-.13-.33-.27-.47-.42-.3-.31-.54-.67-.73-1.06-.11-.23-.2-.46-.26-.71,0-.02-.01-.03-.02-.05-.38-.1-.58-.36-.64-.72,0-.03-.02-.06-.02-.1-.38-.07-.61-.3-.71-.66,0-.03-.02-.06-.03-.09-.41-.05-.7-.24-.82-.66,0,0-.01,0-.01,0-.58-.07-1.11-.25-1.43-.78h0c-1.42.01-2.83.03-4.25.04h0s-.03.03-.05.04c-1.25.98-2.2,2.22-2.96,3.61,0,0,0,0,0,0-.76,4.01-1.6,7.99-2.94,11.85,0,.02-.01.05-.02.07-.14,2.29-.6,4.51-1.49,6.63,0,.02-.02.04-.02.06.02,1.07.02,2.13-.69,3.03,0,0,0,0,0,.01-.46,3.75-1.25,7.43-2.24,11.06,0,.03-.01.05-.02.08-.03,1.5.01,3.01-.72,4.39-.01.02-.02.05-.04.07-.01,1.5.01,3.01-.74,4.39-.01.02-.02.04-.03.06.08,1.08.05,2.13-.7,3.02,0,0,0,.01,0,.02-.04,3.78-.62,7.49-1.49,11.16,0,0,0,0,0,.01,0,.02,0,.04,0,.06-.19,2.57-.4,5.14-.55,7.71-.15,2.48-.29,4.96-.35,7.43-.04,1.74.48,3.31,2.43,3.66,1.75.31,2.73-.91,3.44-2.29,1.14-2.22,1.82-4.62,2.31-7.05.8-3.89,1.59-7.78,2.21-11.7.27-1.72.92-2.37,2.67-2.15,2.97.37,5.94.17,8.92-.02,5.9-.38,4.48-1.26,6.4,4.5,1.85,5.52,2.77,11.29,4.58,16.82.23.7.47,1.41.74,2.1,0,.01,0,.03.01.04.37.1.57.35.64.7,0,.04.02.07.03.11.41.06.68.28.78.7,0,0,0,0,.01,0,1.81.86,3.7,1.12,5.67.69,0,0,0,0,0,0,.3-.3.61-.61.91-.91.29-.29.59-.59.88-.88.38-.38.77-.77,1.15-1.15,0,0,0,0,0-.01.59-3.08.28-6.14-.14-9.2-.83-6.12-2.14-12.15-3.78-18.1Zm-22.66-28.38c-.14-.34-.11-.84.17-.88.64-.08.5.46.45.87h0s0,0,0,0c.78.55.94,1.31.78,2.2,1.86,5.76,2.55,11.79,4.31,17.78-3.2,1.11-6.29.73-9.69,1.53.92-7.59,2.39-14.56,3.97-21.51Z"/>
    <path class="cls-2" d="m160.63,115.94c-.81-1.34-2.17-1.91-4.57-2.24-1.09-.15-2.23.02-3.25-.51h0s-.01,0-.02,0c-1.33,0-2.66-.01-3.98-.02-.52,0-1.03,0-1.55,0-1.49,0-2.97.08-4.4.54-2.34.75-3.77,2.35-3.93,4.42-.15,2,1.13,3.9,3.31,4.91,1.48.68,3.09.96,4.68,1.08,1.58.11,2.15.73,2.06,2.3-.29,4.69-.4,9.4-.75,14.09-.17,2.26-1.11,4.3-2.71,5.98-1.84,1.94-2.58,2.02-4.67.27-3.06-2.57-4.7-6.04-5.75-9.77-2.92-10.36-3.67-20.95-2.98-31.64.17-2.59.66-5.18,1.73-7.58.28-.63.59-1.24.96-1.84.02-.03.03-.06.05-.09.12-.66.3-1.29.54-1.89.21-.53.47-1.04.79-1.53.23-.35.49-.7.78-1.02.02-.03.05-.06.07-.08.07-.21.15-.4.24-.59.48-1.02,1.22-1.77,2.27-2.21.17-.07.34-.13.53-.19.03-.02.07-.04.1-.07.48-.35.95-.61,1.41-.79,1.51-.58,2.93-.29,4.29.61.4.27.8.59,1.2.96.01,0,.02.01.03.02.3.14.59.31.87.48,1.62,1.03,2.83,2.53,4.08,3.95.05.05.09.11.14.16.98,1.1,2.02,1.73,3.51,1.38h0s.01-.04.02-.06c.08-.38.31-.6.7-.67,0,0,0,0,0,0,.7-2.15.47-4.3.06-6.46,0,0,0,0,0,0-.56-.34-.71-.89-.74-1.49-.01-.01-.03-.02-.04-.04-.73-.57-1.19-1.32-1.44-2.2-.01-.01-.03-.02-.04-.03-.24-.18-.46-.38-.68-.57-.52-.46-1-.95-1.45-1.48-.25-.3-.5-.6-.73-.92,0,0-.01-.02-.02-.03-.42-.03-.71-.23-.83-.65,0,0-.01,0-.02,0-1.47-.75-2.94-1.51-4.41-2.26,0,0,0,0,0,0-2.42-.26-4.84-.22-7.25.02,0,0,0,0-.01,0h0c-.6.64-1.4.69-2.2.76,0,0-.01,0-.02,0h0c-.34.54-.87.67-1.44.7-.03,0-.05,0-.08,0h0c-.29.56-.81.73-1.38.82-.01,0-.02,0-.03,0h0c-.15.42-.46.58-.88.6,0,0-.01.01-.02.02-1.23,1.23-2.46,2.45-3.69,3.68,0,0-.01.01-.02.02-.02.42-.2.73-.62.85,0,.01,0,.02,0,.03-.06.27-.16.52-.27.76-.18.4-.43.76-.73,1.07-.11.12-.23.23-.35.33-.03.02-.05.05-.08.08-.03.27-.09.53-.2.76-.04.08-.09.16-.15.24-.03.05-.07.09-.1.14,0,0-.01.02-.02.02-.1.1-.22.19-.36.26,0,.01-.01.03-.02.04-.03.08-.07.17-.1.25-1.86,4.46-3.9,8.85-4.59,13.72-1.27,9.04-.75,18.04.51,27.03.79,5.66,2.16,11.18,4.79,16.32,2.27,4.43,5.5,7.92,9.96,10.18,5.51,2.8,10.64,1.9,14.84-2.61,2.68-2.87,4.38-6.27,5.15-10.13,1.03-5.15.9-10.39.56-15.55-.21-3.16.39-5.41,2.83-6.93.24-.15.5-.3.78-.44.02-.01.05-.03.07-.04.05-.58.18-1.12.66-1.51,0,0,.01-.01.02-.02-.07-.67-.17-1.25-.29-1.78-.17-.78-.4-1.41-.72-1.93Z"/>
    <path class="cls-2" d="m113.01,148.91c-.85-.16-1.73-.13-2.6-.12-4.96.06-9.93.12-14.89.2-2.77.04-2.81.06-2.91-2.81-.25-7.07-.5-14.14-.67-21.21-.11-4.55-.05-4.55,4.58-5.19.49-.07.99-.08,1.48-.15,3.82-.5,7.67-.57,11.5-.81,2.18-.14,3.36-1.55,3.27-3.33-.08-1.63-1.21-2.73-3.22-3.01-.85-.12-1.73-.07-2.6-.07-4.35.02-8.67-.43-13-.73-2.14-.15-2.68-1-2.78-2.94-.29-5.82-.44-11.66-1.54-17.41-.28-1.46.21-2.01,1.7-2.02,3.97-.03,7.94-.16,11.91-.25,1.36-.03,2.72,0,4.06-.38,1.7-.5,2.89-1.47,3.05-3.31.16-1.84-.82-3.08-2.41-3.82-1.7-.78-3.54-1.15-5.41-1.23-5.34-.23-10.65,0-15.98.39-5.05.37-7.4,3.87-6.81,8.59,1.38,10.98,1.07,22.04,1.31,31.81-.23,10.71.13,20.13.93,29.54.14,1.61.28,3.22.89,4.73.75,1.85,2.02,3.11,4.08,3.38,1.35.18,2.71.37,4.07.42,6.85.27,13.61-.72,20.37-1.61.96-.13,1.95-.47,2.81-.92,1.7-.9,2.48-2.38,2.24-4.32-.22-1.74-1.53-3.07-3.44-3.43Z"/>
    <path class="cls-2" d="m62.1,84.5c-2.02-.17-3.4,1.19-3.78,3.74-.02.12-.03.25-.03.37-.2,6.1-1.31,12.08-2.37,18.06-1.73,9.76-3.12,19.58-5.69,29.21-1.89-4.59-2.9-9.28-3.93-13.96-2.25-10.3-4.51-20.59-8.28-30.48-.57-1.5-1.17-3.01-1.95-4.41-1.19-2.15-2.76-2.92-4.51-2.38-2.01.62-2.51,2.23-2.5,4.09,0,1.74.17,3.46.58,5.16,1.6,6.63,3.32,13.23,4.72,19.9,2.41,11.53,4.38,23.15,7.5,34.52.59,2.15,1.06,4.34,2.1,6.34,1.17,2.23,2.81,3.88,5.49,3.78,2.75-.1,4.12-2.01,4.95-4.38.37-1.05.66-2.13.89-3.22.64-3.16,1.23-6.33,1.84-9.49,2.79-14.49,5.92-28.92,7.43-43.63.32-3.08.6-6.18.66-9.28.04-2.41-1.23-3.8-3.09-3.96Z"/>
    <path class="cls-2" d="m270.22,128.71c-.27-7.17-.8-14.33-1.21-21.5-.02-.03-.03-.06-.05-.09-.51-.87-.41-1.86-.48-2.8-.47-5.94-.91-11.88-1.36-17.82-.1-1.36-.15-2.72-.81-3.98-.89-1.71-2.25-2.66-4.19-2.49-1.79.15-2.91,1.24-3.51,2.9-.43,1.19-.52,2.42-.41,3.67,1,11.02.6,22.08.79,33.13.01.62.41,1.51-.7,1.82-.8-1.22-1.59-2.44-1.86-3.9,0-.02,0-.03-.01-.04-.58-.32-.75-.86-.76-1.47-.02-.01-.04-.03-.06-.04-.52-.32-.68-.82-.7-1.4,0-.01,0-.03,0-.04-.58-.32-.74-.86-.77-1.47-.02-.01-.04-.02-.06-.04-.53-.32-.68-.84-.72-1.43-.02-.01-.04-.03-.06-.05-.51-.32-.67-.83-.73-1.4-.03-.03-.05-.06-.07-.09-.96-1.07-1.64-2.31-2.06-3.69,0,0,0-.02,0-.03-.77-.58-1.24-1.34-1.41-2.29,0,0,0,0,0-.01-.58-.29-.78-.8-.81-1.41,0-.01,0-.02,0-.03-.6-.35-.72-.91-.7-1.53-.01,0-.02-.02-.03-.03-.67-.55-.78-1.32-.81-2.13-.02-.02-.03-.05-.05-.07-.77-1.11-1.28-2.32-1.39-3.69,0-.02-.02-.03-.03-.05-2.05-3.92-4.25-7.76-5.92-11.86,0,0,0-.01,0-.02-1.12-1.1-2.18-2.29-3.69-2.89-.01,0-.03-.01-.04-.02h0c-2.18.1-3.81,1.12-4.93,2.98,0,0,0,.02,0,.02.1,3.21.22,6.43.29,9.64.4,17.62,1.33,35.23,1.01,52.87-.03,1.48,0,3,.27,4.45.49,2.56,2.39,4.21,4.54,4.2,2.02,0,3.73-1.46,4.47-3.84.6-1.93.55-3.93.6-5.91.24-10.43-.12-20.85-.85-31.26-.17-2.47-.32-4.94-.49-7.76,0-.02,0-.03,0-.05.02.01.03.03.05.04,1.31,1.05,1.74,2.12,2.01,3.28,0,.03.02.07.02.1h0c.53.31.69.81.75,1.36,0,.04.01.07.02.11h0c.52.32.68.82.73,1.37,0,.04.01.08.01.11h0c.52.33.68.84.72,1.4,0,.04,0,.07,0,.11.56.35.69.91.71,1.52.03.02.06.04.08.06.48.34.61.85.63,1.41,0,.01,0,.03,0,.04h0c.58.34.71.9.72,1.51,0,.01.02.02.03.04,1,1.34,1.78,2.79,2.21,4.41,0,0,0,0,0,.01.57.3.74.83.79,1.42,0,.01,0,.02,0,.03.57.31.73.84.78,1.42,0,.01,0,.02,0,.04h0c.53.31.69.8.75,1.35,0,.04.01.08.02.12.52.32.68.81.74,1.36,0,.04.01.08.02.12.54.34.7.89.76,1.48h0s.04.06.06.08c1.23,1.58,2.16,3.33,2.78,5.23,0,0,0,0,0,.01.57.3.75.82.8,1.41,0,.01,0,.02,0,.03.58.3.75.83.82,1.42.03.03.06.06.09.09.66.62,1.11,1.36,1.21,2.29,0,0,0,.01,0,.02.57.34.75.87.74,1.5,0,0,.02.02.03.02.69.54.83,1.3.85,2.11.02.02.03.05.04.07,1.17,1.86,1.22,4.06,1.83,6.09.5,1.65,1.2,3.08,2.54,4.16.02.01.03.03.05.04h0c1.24.2,2.34-.32,3.47-.67h0c.07-.41.29-.67.7-.77,0-.02,0-.05.01-.07.07-.55.22-1.07.72-1.42,0,0,0-.02,0-.03,1.24-7.63.79-15.3.5-22.96Z"/>
  </g>
</svg>