<?xml version="1.0" encoding="UTF-8"?>
<svg id="Calque_1" data-name="Calque 1" xmlns="http://www.w3.org/2000/svg" viewBox="0 0 300 210.66">
  <defs>
    <style>
      .cls-1 {
        fill: #006b04;
      }

      .cls-2 {
        fill: #e7f7d1;
      }

      .cls-3 {
        fill: #e3f3c5;
      }

      .cls-4 {
        fill: #e6f6cd;
      }

      .cls-5 {
        fill: #e6f5cc;
      }

      .cls-6 {
        fill: #e2f4c7;
      }

      .cls-7 {
        fill: #e4f4c9;
      }

      .cls-8 {
        fill: #b5df73;
      }

      .cls-9 {
        fill: #b5df74;
      }

      .cls-10 {
        fill: #bae17d;
      }

      .cls-11 {
        fill: #b8e079;
      }

      .cls-12 {
        fill: #a0d64e;
      }

      .cls-13 {
        fill: #c1e588;
      }

      .cls-14 {
        fill: #c1e58b;
      }

      .cls-15 {
        fill: #b3de6c;
      }

      .cls-16 {
        fill: #b6e077;
      }

      .cls-17 {
        fill: #ccea9c;
      }

      .cls-18 {
        fill: #ccea9d;
      }

      .cls-19 {
        fill: #cdeba2;
      }

      .cls-20 {
        fill: #a4d753;
      }

      .cls-21 {
        fill: #aada5f;
      }

      .cls-22 {
        fill: #aada5e;
      }

      .cls-23 {
        fill: #b2dd6d;
      }

      .cls-24 {
        fill: #a9d95c;
      }

      .cls-25 {
        fill: #a9d95d;
      }

      .cls-26 {
        fill: #b0dd6a;
      }

      .cls-27 {
        fill: #b0dd6c;
      }

      .cls-28 {
        fill: #addb64;
      }

      .cls-29 {
        fill: #afdc67;
      }

      .cls-30 {
        fill: #afdc66;
      }

      .cls-31 {
        fill: #acda62;
      }

      .cls-32 {
        fill: #d7eeb0;
      }

      .cls-33 {
        fill: #b1dc6a;
      }

      .cls-34 {
        fill: #b1dc68;
      }

      .cls-35 {
        fill: #b1de6e;
      }

      .cls-36 {
        fill: #b1de6d;
      }

      .cls-37 {
        fill: #c0e488;
      }

      .cls-38 {
        fill: #c0e487;
      }

      .cls-39 {
        fill: #c0e486;
      }

      .cls-40 {
        fill: #a8d95c;
      }

      .cls-41 {
        fill: #a8d959;
      }

      .cls-42 {
        fill: #bfe386;
      }

      .cls-43 {
        fill: #bfe385;
      }

      .cls-44 {
        fill: #d6eeaf;
      }

      .cls-45 {
        fill: #d6eeae;
      }

      .cls-46 {
        fill: #d6eead;
      }

      .cls-47 {
        fill: #bce17e;
      }

      .cls-48 {
        fill: #bee382;
      }

      .cls-49 {
        fill: #cbe99b;
      }

      .cls-50 {
        fill: #cbe998;
      }

      .cls-51 {
        fill: #c5e692;
      }

      .cls-52 {
        fill: #c5e68e;
      }

      .cls-53 {
        fill: #c9e897;
      }

      .cls-54 {
        fill: #cfeaa1;
      }

      .cls-55 {
        fill: #cfeba1;
      }

      .cls-56 {
        fill: #d1eca6;
      }

      .cls-57 {
        fill: #d0eca5;
      }

      .cls-58 {
        fill: #d0eba2;
      }

      .cls-59 {
        fill: #c3e58c;
      }

      .cls-60 {
        fill: #c3e58b;
      }

      .cls-61 {
        fill: #c4e68e;
      }

      .cls-62 {
        fill: #c4e68d;
      }

      .cls-63 {
        fill: #c4e58d;
      }

      .cls-64 {
        fill: #c4e58c;
      }

      .cls-65 {
        fill: #d2eda8;
      }

      .cls-66 {
        fill: #d2eca8;
      }

      .cls-67 {
        fill: #d9efb3;
      }

      .cls-68 {
        fill: #d9efb6;
      }

      .cls-69 {
        fill: #dff2c0;
      }

      .cls-70 {
        fill: #aedc65;
      }

      .cls-71 {
        fill: #d3eda9;
      }

      .cls-72 {
        fill: #c5e793;
      }

      .cls-73 {
        fill: #c5e792;
      }

      .cls-74 {
        fill: #e0f3c2;
      }

      .cls-75 {
        fill: #e0f3c4;
      }

      .cls-76 {
        fill: #c7e898;
      }

      .cls-77 {
        fill: #d4eead;
      }

      .cls-78 {
        fill: #d4eeac;
      }

      .cls-79 {
        fill: #a1d64d;
      }
    </style>
  </defs>
  <g>
    <polygon class="cls-1" points="94.23 84.68 94.23 84.68 94.23 84.68 94.23 84.68"/>
    <path class="cls-1" d="m115.98,103.23c-.63-.37-.83-.98-.9-1.66-.85-.65-1.38-1.51-1.62-2.55-1.37-1.17-2.5-2.53-3.38-4.11-.47-.11-.75-.39-.85-.86-.46-.1-.75-.38-.86-.84-1.59-.86-2.95-2-4.11-3.38-1.04-.25-1.9-.78-2.53-1.66-.68-.07-1.29-.28-1.63-.93-.69-.02-1.3-.2-1.67-.85-.69,0-1.32-.12-1.73-.76-.92-.05-1.81-.17-2.45-.94-3.18-.69-3.2-.71-2.07-3.26.31-.69.41-1.52,1.12-2,.27-1.8.72-3.53,1.7-5.1,0,0,0,0,0,0l-.07.1c1.14-5.52,1.57-11.07.9-16.68-.79-.98-.79-2.17-.83-3.35-.73-.69-.8-1.61-.84-2.53-.87-.96-1.36-2.11-1.63-3.36-.87-.62-1.41-1.48-1.72-2.49-1.28-.94-2.4-2.05-3.32-3.35-.47-.05-.81-.28-.95-.74-1.01-.28-1.85-.81-2.48-1.66-.67-.08-1.29-.26-1.64-.91-.68-.04-1.31-.18-1.68-.83-.91-.06-1.77-.24-2.4-.99h-.04c-1.87-.29-3.71-.7-5.39-1.61h0,0s-.25.13-.25.13l-.2-.19c-3.34.04-6.69.07-10.03.11-.71.74-1.63.74-2.56.71h-.03c-.65.74-1.52.92-2.44.95-.38.65-1.01.8-1.69.82-.34.66-.95.86-1.63.93-.61.87-1.45,1.4-2.47,1.69-.14.46-.47.69-.95.74-1.22,1.57-2.64,2.95-4.22,4.15-.06.48-.3.79-.76.92-.06.45-.28.78-.72.94-.13.65-.42,1.2-1.07,1.49-.01.47-.19.82-.63,1-.1.66-.3,1.25-.93,1.6-.05.67-.21,1.29-.82,1.69-.07.91-.21,1.8-.94,2.46-.27,2.04-.18,4.19-1.68,5.87h0c-.04.48-.26.82-.71.99-1.1,3.32-1.62,6.75-1.75,10.22-.94,25.46-1.8,50.93-1,76.42.1,3.09.45,6.07,1.86,8.86.46.11.74.41.83.87,6.55,2.78,10.44.39,10.94-6.86,1.22-17.74.94-35.51.8-53.27-.09-10.91-.34-21.82-1.87-32.65-.28-1.97.05-3.59,1.64-4.86h0c2.03-3.93,5.22-6.86,8.49-9.7,6.3-5.48,13.22-6.05,20.69-2.64,3.76,1.71,5.69,4.51,6.48,8.6,1.8,9.34-6.88,22.64-15.27,27.06-3.72,1.96-7.35,3.99-10.74,6.46-.57.95-1.24,1.87-1.71,2.87-2.77,5.91,1.48,11.98,8.02,11.53,2.02-.14,3.79-.94,5.48-1.94,2.39-1.4,4.74-2.88,7.1-4.33.52-.9,1.36-1.32,2.34-1.38,3.71-.2,7.35-.03,10.56,2.19,0-.01,0-.02-.01-.03.71.03,1.33.21,1.68.9,1.1.18,1.95.74,2.5,1.71.49.05.82.29.94.77,1.2.5,2.04,1.36,2.49,2.58.98.56,1.53,1.42,1.7,2.53.67.39.83,1.03.82,1.75h0s-.01,0-.02,0c2.4,4.44,2.57,9.33,2.22,14.12-.94,12.97-5.51,24.35-15.65,33.01-.5.43-1.11.73-1.68,1.09-2.42,2.73-5.27,4.91-8.43,6.72-1.64,1.86-3.61,3.29-5.9,4.25h0s0,0,0,0c0,0,0,0,0,0-2.9,2.68-6.49,4.17-10.02,5.73-7.16,3.16-14.7,5.28-22.08,7.83-2.47.85-5.12,1.37-7.79.59h0c-.23.2-.44.18-.61-.07-.98.13-1.87.02-2.54-.82h-.02c-.69.01-1.32-.11-1.73-.73-1.05.03-2.11.07-3.16.1-2.45,1.97-2.05,4.57-1.58,7.19.76.69,1.27,1.54,1.62,2.49.46.1.75.37.85.84.97.34,1.82.86,2.46,1.69.68.04,1.32.17,1.7.83,2.13.62,4.27,1.25,6.4,1.86,13.83,3.95,26.99,1.5,39.55-4.66,12.22-5.99,22.66-14.44,31.67-24.6,9.26-10.45,12.71-23.16,13.84-36.69.76-9.04-.67-17.82-3.51-26.4-.62-.4-.79-1.03-.82-1.71Z"/>
    <path class="cls-1" d="m152.19,102.38s0-.01,0-.02c-.59-1.93-1.18-3.87-1.77-5.8-.02-.02-.03-.04-.05-.07-1.77-2.37-3.91-3.95-7.11-3.24h0s-.07.05-.11.08c-3.17,2.14-3.92,5.47-4.3,8.96-1.53,14.16-2.11,28.37-1.48,42.6.26,5.96.73,11.93,2.53,17.7,0,.02,0,.03.01.05.78.67,1.32,1.5,1.64,2.48,0,.02.01.03.02.05.47.09.73.38.81.85,0,0,.01,0,.02,0,.96.36,1.8.9,2.48,1.68,0,0,0,0,0,0h0c2.97.72,5.66.16,8.06-1.75.02-.02.03-.04.04-.07,3.06-4.24,3.03-9.07,2.54-13.95-1.65-16.48-1.53-33.08-3.33-49.55Z"/>
    <path class="cls-1" d="m218.55,119.51s0-.02,0-.03c-.8-1.3-.77-2.77-.81-4.21,0,0,0,0,0-.01-.7-.73-.77-1.64-.76-2.58h0c-.74-.63-.9-1.49-.97-2.39,0,0,0-.02,0-.03-.63-.4-.78-1.02-.81-1.71-.03-.02-.05-.04-.08-.06-.55-.34-.74-.88-.82-1.48,0-.02,0-.04-.01-.06-.46-.17-.65-.53-.66-1,0,0-.02-.02-.02-.02-1.4-1.36-2.79-2.73-4.19-4.09-.01-.01-.02-.02-.03-.03-1.01-.25-1.86-.76-2.51-1.58-.02-.02-.03-.03-.05-.05-.67-.05-1.29-.22-1.66-.86h0s-.01,0-.02,0c-.91-.05-1.77-.22-2.44-.91h0s0,0,0,0c-4.45-.45-8.88-.61-13.17.99-.01,0-.03,0-.04.01h0c-.7.8-1.55,1.34-2.57,1.61-.02.02-.04.04-.05.07-.94,1.24-2.03,2.35-3.28,3.28-.01.02-.02.04-.03.05-2.8,4.68-5.17,9.53-6.16,14.97-2.52,13.83-1.68,27.26,4.53,40.08.01.02.02.04.03.07.97,1.17,1.92,2.36,2.93,3.5,5.72,6.47,12.54,7.84,20.21,4.07,0,0,.02,0,.03-.01.09-.41.33-.65.7-.76.05-.02.1-.04.16-.05.07-.48.34-.77.81-.87.01-.07.04-.13.06-.19.13-.36.4-.57.8-.63.02-.02.04-.04.06-.07.94-1.24,2.07-2.28,3.31-3.2.02-.01.03-.02.05-.04.04-.47.25-.8.71-.95l.02-.03c1.44-2.73,2.89-5.46,4.33-8.19,0-.01.01-.02.02-.04.25-1.79.82-3.49,1.57-5.13,0-.01,0-.02,0-.03.97-9.12,1.26-18.27.86-27.43Zm-7.58,10.78c-.56,4.79-.4,9.43-1.33,13.99-.59,2.93-1.71,5.62-3.22,8.15-1.79,3.01-6.03,2.81-7.67-.37-1.5-2.91-1.94-6.13-2.39-9.31-1.1-7.79-1.42-15.6-.33-23.43.31-2.23.78-4.42,1.66-6.49,1.98-4.67,6.88-5.35,9.94-1.37,2.2,2.87,3.08,6.28,3.29,9.81.19,3.06.04,6.15.04,9.02Z"/>
  </g>
  <g>
    <path class="cls-79" d="m263.86,39.08c-2.3,3.07-4.56,6.15-6.89,9.19-5.17,6.74-10.42,13.52-16.8,19.06-4.59,3.98-8.97,8.36-14.57,11.29-3.94,2.06-7.4,5.11-11.54,6.94-5.96,2.63-12.32,3.82-18.71,4.59-2.91.35-5.98-.33-8.93-.81-7.17-1.18-14.43-1.41-21.63-2.28-2.7-.33-5.43.46-8.19.36-4.48-.17-5.95-1.9-4.84-6.12,2.24-8.49,6.48-15.99,11.9-22.77,4.72-5.91,8.62-12.34,12.85-18.58,3.32-4.9,7.45-9.04,12.85-11.88,4.71-2.48,9.16-5.32,14.18-7.33,8.69-3.48,17.63-4.7,26.84-5,14.1-.46,28.21-.7,42.26-2.25,5.54-.61,6.67,1.42,4.43,6.74-2.72,6.45-7.07,11.68-11.86,16.63-1.2.28-.83,1.52-1.35,2.22Z"/>
    <path class="cls-34" d="m263.86,39.08c-.12-.77-1.39-1.18-.85-2.05.52-.85,1.44-.24,2.2-.17-.21.88-.42,1.77-1.35,2.22Z"/>
    <path class="cls-41" d="m176.43,66.55c.86.68,1.98,1.63.46,2.38-1.5.74-2.15,2.42-3.78,2.85-3.69.81-6.71,2.62-8.78,5.86-1,.95-2,1.9-3.01,2.85-.28-.47-.42-1.15-1.2-.41-.6.57-1.36.56-2-.11-.16-.79-.81-1.61-.37-2.35.75-1.27,1.23.46,1.87.3.5-.13,1.33-.56,1.32-.81-.13-1.86,2.31-1.9,2.41-3.91-1.04-.09-1.57,1.42-2.99.86,1.08-4.44,3.34-8.3,6.02-11.97.16.07.32.15.48.22.26.25.44.53.56.87.04.35-.01.68-.15,1-.17.76-1.34,1.14-.81,2.17-.47,1.88-3.42,2.92-1.87,5.49.89.81,1.33.14,1.77-.54,2.44-2.71,5.63-4.48,8.55-6.56.96-.68,2.21-1.01,3.04-1.95.49-.56,1.16-1,1.74-.52.86.71-.33,1.42-.27,2.18-.17.51-.52.76-1.06.75-1.09-.17-1.67.37-1.91,1.38v-.02Z"/>
    <path class="cls-40" d="m249.46,21.19c-.48.61-1.22.91-1.81.55-2.21-1.32-4.73.32-7-.91-1.43-.78-1.8,1.18-2.76,1.74-.64-2.4.16-3.32,2.69-3.38,2.31-.06,4.6-.66,6.9.1.31,1,1.51,1.07,1.98,1.9Z"/>
    <path class="cls-3" d="m223.32,36.67c.3-.21.59-.43.89-.64,2.37-1.44,4.61-3.15,7.41-3.73,1.09.05,1.97-.39,2.73-1.13,1.13-.58,1.65-.29,1.42,1.02-3.36,1.71-6.7,3.45-10.07,5.13-1.21.6-2.49,1.06-3.74,1.59-.81.25-.94-.25-.97-.87.43-1.05,1.46-1.07,2.33-1.36Z"/>
    <path class="cls-4" d="m208.6,24.6c-3.64,1.63-7.27,3.26-10.91,4.9-.78-.05-1.01-.41-.65-1.13,3.11-2.16,6.59-3.56,10.12-4.84,1.02-.37,1.77-.39,1.43,1.07Z"/>
    <path class="cls-21" d="m223.31,36.67c-.68.41-1.36.81-2.04,1.22-.5.49-.94,1.18-1.78.51-.44-1-1.19-.72-2.02-.59-1.99.31-3.63,1.79-5.73,1.67h0c2.18-2.46,5.47-2.77,8.16-4.24,1.7-.93,2.11,1.34,3.42,1.44Z"/>
    <path class="cls-33" d="m180.74,57.22c3.9-3.26,8.07-6.12,12.52-8.58.27.31.73.49.68,1.01-3.76,1.64-6.61,4.68-10.18,6.61-.96.52-1.82,1.22-3.01.97h0Z"/>
    <path class="cls-43" d="m193.93,49.65c-.23-.34-.45-.67-.68-1.01,3.14-1.8,6.29-3.58,9.42-5.41.83-.48,1.62-.97,2.64-.75v-.02c-3.23,3.3-7.52,4.9-11.38,7.18Z"/>
    <path class="cls-29" d="m209.83,51.51c-2.31,3.38-6.1,4.4-9.49,6.06,2.57-2.97,6.2-4.24,9.49-6.06Z"/>
    <path class="cls-24" d="m200.75,76.06c1.09-1.59,3.1-1.61,4.55-2.66,1.78-1.3,3-.38,3.79,1.98-3-.96-5.29.53-7.7,1.62-.33-.23-.54-.55-.64-.94Z"/>
    <path class="cls-7" d="m257.09,30.24c-2.66,1.25-4.82,3.46-8.5,4.58,2.1-3.46,4.99-4.47,7.74-5.67.94-.12,1.06.34.76,1.09Z"/>
    <path class="cls-32" d="m240.05,45.64c-2.94,2.27-5.88,4.53-8.82,6.8-.43.23-.77.13-1.02-.29,2.79-3.21,6.2-5.6,9.95-7.54.19.25.23.49.14.71-.1.23-.18.34-.25.32Z"/>
    <path class="cls-40" d="m173.59,55.07c-.11.64,1.53,1.16.21,1.83-1.83.94-2.69,2.47-3.07,4.38-1.55.63-2.55.12-3.07-1.44.04-.13.04-.33.13-.38,2.53-1.38,2.67-1.52,4.02-3.89.54-.35.94-1.22,1.78-.5Z"/>
    <path class="cls-45" d="m189.03,80.64c2.62-1.11,5.22-2.26,8.01-2.91.83.01,1.03.41.69,1.13-2.62,1.12-5.24,2.2-8.02,2.84-.83.03-.99-.37-.67-1.06Z"/>
    <path class="cls-42" d="m222.79,65.79c1.92-2.53,4.5-4.32,7.03-6.15.32-.29.58-.26.77.15-2.46,2.53-4.58,5.43-7.87,7.03-.43-.37-.41-.71.07-1.02Z"/>
    <path class="cls-49" d="m164.34,77.64c-.47-.39-.68-1-.23-1.36,2.39-1.91,4.75-3.89,7.69-4.95.55-.2,1.03-.14,1.33.45-3.15,1.62-6.09,3.55-8.78,5.86Z"/>
    <path class="cls-43" d="m189.46,55.49c2.16-.79,3.78-2.44,5.72-3.59,1.12-.66,2.08-1.73,3.59-1.39h0c-2.56,2.45-5.55,4.31-8.66,5.99-.86.08-1.07-.26-.65-1Z"/>
    <path class="cls-23" d="m173.59,55.07c-.59.17-1.19.34-1.78.5,1.34-2.71,2.98-5.16,5.79-6.69-.84,2.38-2.65,4.14-4.01,6.19Z"/>
    <path class="cls-30" d="m238.73,61.24c-1.99,2.42-4.31,4.41-7.5,5.38,1.97-1.88,3.94-3.77,5.91-5.65.6-.32,1.14-.28,1.59.27Z"/>
    <path class="cls-29" d="m231.61,32.3c-2.15,1.88-4.74,2.88-7.41,3.73.04-.31.07-.63.11-.94h0c1.14-.19,1.73-1.16,2.55-1.8,1.43-1.1,2.94-1.76,4.76-.99Z"/>
    <path class="cls-48" d="m260.62,34.35c-1.68,2.23-3.48,4.3-7.14,4.94,2.29-2.1,3.77-4.14,6.13-5.22.44-.27.77-.18,1.01.28Z"/>
    <path class="cls-56" d="m222.79,65.79c-.02.34-.05.68-.07,1.02-2.44,1.97-4.86,3.98-7.8,5.2-.32-.64-.27-1.2.34-1.64,2.81-1.03,4.74-3.52,7.53-4.57Z"/>
    <path class="cls-47" d="m256.6,19.21c2.25-1.24,4.69-.55,7.06-.73-1.94,1.51-4.3,1.1-6.45,1.61-.31-.22-.51-.52-.61-.89Z"/>
    <path class="cls-54" d="m256.6,19.21c.2.3.4.59.61.89-2.25.32-4.49.58-6.77.45-.43-.17-.67-.48-.67-.96,2.25-.56,4.54-.4,6.83-.38Z"/>
    <path class="cls-64" d="m235.77,32.19c-.2-.71-.77-.93-1.42-1.02,1.57-1.43,3.63-1.4,5.86-2.09-.88,2.41-3.07,2.18-4.44,3.11Z"/>
    <path class="cls-43" d="m197.04,28.37c.22.37.43.75.65,1.12-1.34,1.07-2.8,1.87-5.19,2.7,1.15-2.54,2.55-3.52,4.54-3.82Z"/>
    <path class="cls-17" d="m207.63,65.52c2.45-1.33,4.61-3.25,7.51-3.65.2.24.24.45.13.63-.11.18-.21.27-.28.25-2.2.85-3.93,2.72-6.39,3.02-.43.32-.75.24-.97-.25Z"/>
    <path class="cls-66" d="m208.6,24.6c-.19-.74-.79-.93-1.43-1.07,1.85-1.27,4.17-.66,6.12-1.53.36-.14.68-.07.97.18.14.38.03.66-.33.85l-5.32,1.56Z"/>
    <path class="cls-39" d="m230.22,52.15c.34.1.68.19,1.02.29-1.8,1.51-3.63,2.97-5.85,3.84-.37.3-.65.21-.85-.2,1.65-1.66,3.63-2.85,5.68-3.93Z"/>
    <path class="cls-22" d="m239.14,40.32c-1.03.98-2.23,1.42-3.55,1.72q.33-2.72,3.55-1.72Z"/>
    <path class="cls-37" d="m194.91,71.73c-1.77.85-3.5,1.85-6.22,2.16,1.73-2.17,3.86-2.32,5.46-3.3.52.2.79.58.76,1.14Z"/>
    <path class="cls-74" d="m194.91,71.73c-.25-.38-.51-.76-.76-1.14,1.38-.83,2.75-1.7,4.41-1.85.86-.05,1.04.38.78,1.12-1.48.62-2.95,1.25-4.43,1.87Z"/>
    <path class="cls-47" d="m214.98,62.76c.05-.29.1-.59.15-.88,1.69-1.64,3.6-2.95,5.72-3.97.25.23.31.44.2.63-.12.19-.22.28-.31.26-1.61,1.77-3.61,2.97-5.76,3.97Z"/>
    <path class="cls-73" d="m219.5,38.4c.59-.17,1.18-.34,1.78-.51.23.34.45.68.68,1.02-1.83.78-3.31,2.35-5.48,2.36-.88.09-1.02-.32-.68-1.04,1.33-.42,2.8-.55,3.7-1.83Z"/>
    <path class="cls-36" d="m184.44,42.01c2.17-.94,3.76-3.11,6.4-3.06h0c-1.62,1.74-3.63,2.94-5.72,4.02-.51-.12-.5-.61-.69-.96Z"/>
    <path class="cls-19" d="m207.63,65.52c.32.08.64.17.97.25-1.32,2.02-3.54,1.84-5.53,2.25-.26-.23-.32-.44-.2-.61.13-.18.24-.26.33-.24.65-.89,1.5-1.33,2.62-1.15.38-.11.73-.3,1.06-.51.25-.02.5-.02.75,0Z"/>
    <path class="cls-28" d="m188.35,56.97c-1.41,1.64-3.32,2.51-5.21,3.42,1.27-1.85,2.68-3.49,5.19-3.45l.02.02Z"/>
    <path class="cls-70" d="m238.07,60.27c1.32-1.51,2.29-3.55,4.82-3.26h0c-1.07,1.49-2.1,3.02-4.07,3.45-.35.3-.6.22-.76-.2Z"/>
    <path class="cls-40" d="m234.93,22.81c-.87-.6-1.74-1.2-2.67-1.85q3.66-1.06,3.65,1.23c-.33.19-.66.4-.97.62Z"/>
    <path class="cls-8" d="m215.79,40.23c.23.35.45.69.68,1.04-1.86.68-3.26,2.48-5.49,2.26h0c1.33-1.48,2.95-2.56,4.8-3.3Z"/>
    <path class="cls-63" d="m241.04,44.01c.66-1.89,2.27-2.57,4.05-3.05-.94,1.5-1.9,2.98-3.91,3.23l-.13-.17Z"/>
    <path class="cls-14" d="m167.66,59.83c.9.74,1.88,1.31,3.07,1.44-.96.97-1.92,1.94-2.87,2.91-.14-.09-.27-.18-.41-.27-.01-.49-.02-.98-.14-1.46.01-.61-.44-1.26.17-1.81.06-.27.12-.54.18-.81Z"/>
    <path class="cls-69" d="m158.13,79.97c1.35.16,2.1-.99,3.16-1.45.44.68.13,1.32.04,1.97-.78.21-1.41.65-1.95,1.24-.71.42-1.31.3-1.69-.43-.29-.56-.04-1.03.44-1.38v.06Z"/>
    <path class="cls-35" d="m216.81,21.06c1.51-.91,3.07-.31,5.39-.65-1.79,1.86-3.49.95-4.71,1.66-.27-.31-.73-.49-.68-1.01Z"/>
    <path class="cls-17" d="m220.74,58.79c.04-.3.08-.59.11-.89.9-1.27,2.42-1.28,3.68-1.83.28.07.56.13.85.2-1.05,1.75-2.89,2.05-4.64,2.51Z"/>
    <path class="cls-71" d="m203.2,67.18c-.05.28-.09.57-.14.85-1.32.45-2.27,1.66-3.73,1.83-.26-.37-.52-.74-.78-1.11,1.37-1.04,2.94-1.51,4.65-1.56Z"/>
    <path class="cls-29" d="m210.99,43.52c-.92,1.27-2.27,1.89-3.89,2.8q1.28-2.31,3.89-2.79h0Z"/>
    <path class="cls-24" d="m213.07,73.36c-.69.55-1.37,1.79-2.24.54-.18-.26-.45-2.73,1.73-2.33.25.41.52.81.54,1.31,0,.16-.02.32-.03.48Z"/>
    <path class="cls-31" d="m230.59,59.78l-.38-.07-.38-.08c1.24-.95,1.84-2.8,3.84-2.66h0c-.38,1.65-1.62,2.35-3.08,2.8Z"/>
    <path class="cls-11" d="m197.73,78.86c-.23-.38-.46-.75-.69-1.13,1.24-.56,2.47-1.11,3.71-1.67.21.31.43.63.64.94-1.22.62-2.44,1.24-3.66,1.86Z"/>
    <path class="cls-23" d="m183.01,45.07c-.89,1.02-1.89,1.88-3.74,2.35.83-1.63,1.89-2.53,3.03-3.37.51.15.52.65.71,1.02Z"/>
    <path class="cls-77" d="m257.09,30.24c-.25-.36-.5-.72-.76-1.09,1.28-.56,2.57-1.11,3.85-1.67-.56,1.69-1.72,2.36-3.09,2.75Z"/>
    <path class="cls-6" d="m249.77,19.59c.22.32.44.64.67.96l.06.17c-.39.1-.67.39-1.03.53,0,0-.01-.06-.01-.06-.57-.73-3.32.81-1.98-1.9.77.1,1.53.2,2.3.3Z"/>
    <path class="cls-53" d="m169.17,78.54c1.4-.57,2.81-2.08,4.21,0-.32.26-.59.19-.8-.15-.66.41-1.32.81-1.98,1.22-.42-.44-1.25-.32-1.44-1.06Z"/>
    <path class="cls-62" d="m178.35,65.19c.35-.25.71-.5,1.06-.75.64.78,1.75,1.1,2.1,2.16-.32.2-.63.42-.93.64-.83-.59-1.79-1.04-2.23-2.05Z"/>
    <path class="cls-24" d="m215.26,70.36c-.11.55-.23,1.1-.34,1.64-.43.71-1.08,1.11-1.85,1.35l-.07-.09c-.32-.6-.3-1.14.3-1.57.23-1.07.87-1.53,1.96-1.34Z"/>
    <path class="cls-70" d="m242.9,57.01c.28-1.25,1-2.12,2.78-3.24-.86,1.9-.77,3.46-2.78,3.24h0Z"/>
    <path class="cls-33" d="m233.66,56.98c.24-.47.41-1,.74-1.39.35-.41,1.01-.72,1.41-.31.68.71.01,1.24-.58,1.52-.45.21-1.04.14-1.56.2h0Z"/>
    <path class="cls-21" d="m205.47,41.71c1.5-.57,2.99-1.15,4.49-1.72h0c-.36,1.53-1.32,2.2-2.88,1.98-.61.36-1.14.28-1.61-.26Z"/>
    <path class="cls-36" d="m194.69,36.3c-1.01,1.28-2.31,2.13-3.84,2.65h0c.59-1.9,1.85-2.82,3.85-2.64h0Z"/>
    <path class="cls-3" d="m169.17,78.54c.61.17,1.23.34,1.44,1.06-.54.25-1.07.49-1.6.74-.83.06-1.88.43-1.5-1.12.55-.23,1.11-.45,1.66-.68Z"/>
    <path class="cls-38" d="m189.03,80.64c.22.35.45.71.67,1.06-.68.52-1.54,1.68-2.21.56-.66-1.1.68-1.37,1.54-1.63Z"/>
    <path class="cls-36" d="m195.65,35.64c.14-.52.18-1.09.44-1.53.39-.64,1.12-.94,1.65-.31.41.49-.2.94-.63,1.19-.45.27-.97.44-1.45.65h0Z"/>
    <path class="cls-61" d="m216.81,21.06c.23.34.45.67.68,1.01-1.19.32-2.37.64-3.56.96.06-.26.12-.52.17-.78-.17-.21-.21-.4-.11-.57.1-.17.18-.25.24-.23h0c.49-.58,1.25-.11,1.79-.49.26.04.52.07.79.09Z"/>
    <path class="cls-59" d="m183.01,45.07c-.24-.34-.47-.68-.71-1.02.72-.68,1.43-1.36,2.15-2.04.23.32.46.64.69.96-.71.7-1.42,1.4-2.13,2.09Z"/>
    <path class="cls-41" d="m158.13,79.92c-.21,1.04.14,1.69,1.25,1.81-.67.68-1.45.92-2.04.06-.59-.86-.09-1.51.8-1.87Z"/>
    <path class="cls-10" d="m201.56,32.44c-.27.15-.57.43-.9.49-.4.07-.74-.21-.68-.65.05-.44.41-.63.85-.59.38.03.71.16.74.75Z"/>
    <path class="cls-57" d="m167.51,79.22c.24.72.88.91,1.5,1.12-.48.15-.97.43-1.44.41-.47-.01-1.31-.27-1.34-.51-.11-.83.6-.99,1.29-1.03Z"/>
    <path class="cls-16" d="m166.36,71.3c.73,1.43-.56,1.58-1.29,1.7-.72.12-.49-.68-.48-1.16.59-.18,1.18-.36,1.77-.54Z"/>
    <path class="cls-55" d="m244.09,37.1c.54-.81,1.16-1.5,2.31-1.61.09,1.88-1.26,1.53-2.33,1.58l.02.02Z"/>
    <path class="cls-55" d="m260.62,34.35c-.33-.09-.67-.19-1-.28.05-.12.08-.24.15-.35.37-.62.82-1.69,1.56-1.11.78.6-.04,1.31-.7,1.74Z"/>
    <path class="cls-43" d="m199.74,49.84c.28-.29.52-.63.84-.85.46-.32,1.09-.53,1.31.17.21.66-.36.91-.96.88-.4-.02-.8-.13-1.2-.2h0Z"/>
    <path class="cls-26" d="m216.02,20.97c-.49.57-1.12.6-1.79.48.03-.46-.49-1.12.17-1.34.68-.23,1.06.58,1.62.86Z"/>
    <path class="cls-51" d="m166.46,66.35c-1.17-1.07.04-1.69.46-2.47.3-.31.55-.27.75.1l.18.2c-.46.72-.93,1.44-1.39,2.16Z"/>
    <path class="cls-72" d="m184.59,75.66c-.2.12-.43.36-.6.33-.47-.08-.59-.46-.32-.82.11-.15.5-.22.68-.14.14.06.16.41.24.63Z"/>
    <path class="cls-41" d="m167.48,60.64c.18.6.36,1.19.54,1.79-.24.24-.52.31-.84.23-.3-.1-.56-.27-.76-.52l-.04-.05c.16-.64.41-1.22,1.1-1.45Z"/>
    <path class="cls-28" d="m189.46,55.49c.22.33.44.67.65,1-.48.55-1.11.59-1.77.47,0,0-.02-.02-.02-.02.14-.67.41-1.24,1.13-1.46Z"/>
    <path class="cls-43" d="m205.47,41.71c.54.09,1.07.17,1.61.26-.48.59-1.11.62-1.78.5v.02c.06-.26.11-.52.18-.78Z"/>
    <path class="cls-21" d="m211.74,39.48c-.47.6-1.11.62-1.78.51h0c.47-.58,1.1-.62,1.77-.51h0Z"/>
    <path class="cls-63" d="m240.05,45.64c.04-.34.07-.69.11-1.04.29-.2.58-.4.87-.6,0,0,.13.17.13.17-.19.63-.47,1.19-1.12,1.46Z"/>
    <path class="cls-55" d="m172.59,78.38c.27.05.53.1.8.15.05.2.11.41.16.61-.64.15-.88-.21-.96-.76Z"/>
    <path class="cls-75" d="m213.3,71.7c-.1.52-.2,1.04-.3,1.57-.74-.42-.65-1.04-.44-1.7.24.07.49.12.74.14Z"/>
    <path class="cls-33" d="m180.74,57.23c-.17.34-.34.67-.5,1.01-.64-.74.11-.79.5-1.01h0Z"/>
    <path class="cls-60" d="m208.45,60.17c.11-.02.24-.09.32-.05.31.15.31.33,0,.45-.08.03-.24-.05-.31-.12-.05-.05-.02-.18-.02-.28Z"/>
    <path class="cls-52" d="m238.07,60.27c.25.09.5.15.76.2-.01.26-.05.52-.11.77-.53-.09-1.06-.18-1.59-.27.31-.23.62-.47.93-.7Z"/>
    <path class="cls-78" d="m244.07,37.08c-.02.42-.09.82-.53,1-.04.02-.26-.18-.25-.28,0-.5.34-.68.8-.71,0,0-.02-.02-.02-.02Z"/>
    <path class="cls-36" d="m194.7,36.32c.32-.22.64-.45.96-.67,0,0,0,0,0,0-.32.22-.65.43-.97.65h0Z"/>
    <path class="cls-29" d="m224.31,35.09c-.1-.08-.3-.21-.29-.24.11-.26.22-.17.28.24h0Z"/>
    <path class="cls-17" d="m206.88,65.51c-.35.17-.7.34-1.06.52.35-.17.7-.34,1.06-.52Z"/>
    <path class="cls-68" d="m180.58,67.24c.31-.21.62-.43.93-.64-.16.44-.46.66-.93.64Z"/>
    <path class="cls-43" d="m199.74,49.83c-.32.22-.64.44-.96.66h0c.32-.21.64-.43.96-.65h0Z"/>
    <path class="cls-58" d="m234.93,22.81c.21-.39.52-.61.97-.62-.19.41-.52.61-.97.62Z"/>
    <polygon class="cls-67" points="219.45 27.22 219.42 27 219.61 27.06 219.45 27.22"/>
    <path class="cls-26" d="m214.23,21.46c-.05.27-.09.53-.13.8-.27-.09-.54-.17-.81-.26.31-.18.63-.36.94-.54Z"/>
    <path class="cls-40" d="m249.47,21.25c.23-.39.58-.56,1.03-.53-.34.18-.69.35-1.03.53Z"/>
    <path class="cls-18" d="m176.43,66.55c-.12.39-.14.85-.37,1.14-.28.36-.66,1.05-1.22.34-.09-.12.25-.72.51-.95.29-.25.72-.35,1.09-.51v-.02Z"/>
    <path class="cls-46" d="m172.94,69.19c-.24.07-.47.13-.71.2-.03-.24-.16-.55-.05-.68.11-.14.47-.2.68-.14.32.1.33.37.09.62Z"/>
    <path class="cls-5" d="m167.31,62.42c.24,0,.47,0,.71,0-.12.52-.23,1.04-.35,1.55,0,0-.38-.03-.38-.03l-.37-.07c0-.26.02-.53.06-.79-.18-.37-.09-.6.33-.67Z"/>
    <path class="cls-14" d="m167.31,62.42c-.09.23-.19.46-.32.67-.19-.32-.38-.64-.56-.96.3.1.59.19.89.28Z"/>
    <g>
      <path class="cls-12" d="m153,27.77c2.91,4.92,3.28,10.45,3.43,15.91.31,11.05-2.95,21.41-6.83,31.58-.78,2.03-1.42,4.07-1.91,6.19-.58,2.52-2.21,2.97-3.99,1.13-.99-1.03-1.75-2.29-2.52-3.51-2.93-4.61-6.83-8.54-8.84-13.82-.95-2.5-1.72-4.95-1.77-7.51-.1-5.33.09-10.66.86-15.95.12-.83.15-1.75.8-2.43.69-.96.49-3,2.64-2.2,2.11,1.59.61,3.79.83,5.68.18,1.55.19,3.16.37,4.74.43,4.85,1.81,9.56,2.29,13.37-.23-3.92-1.94-8.65-2.31-13.58-.43-2.98-.44-5.95.11-8.92,3.93-3.47,4.48.83,6.12,2.64.32.25.64.53.95.79,1.82,1.08,1.09,2.97,1.45,4.52.27-2.2-.83-4.7,1.42-6.48.45-.03.85.08,1.23.32,2.31,2.22.89,5.12,1.43,7.67.33,2.88-.53,5.63-.87,8.43.42,1.18.31,2.45.63,3.64-1.14,1.24-.91,2.93-1.44,4.47.54-1.14.4-2.35.85-3.4,1.45-1.81-.06-3.67.09-5.51.54-1.67,1.29-3.26,1.75-4.96.34-.97.7-2.18.25-2.94-2.2-3.68-1.08-7.47-.7-11.25.08-.81.51-1.67-.15-2.5-.63.69-.16,1.61-.55,2.34-.42.79-.8,1.58-1.85,1.47-1.01-.1-1.41-.91-1.67-1.74-.53-1.68-.69-3.37.01-5.05.18-.37.4-.71.65-1.03.32-.44,1.05-1.15.7-1.4-4.07-2.87-2.55-7.45-3.57-11.25.15-.4.39-.72.74-.97,1.55-.73,2.16.2,3.09,1.32,2.57,3.12,3.92,6.95,6.28,10.16Z"/>
      <path class="cls-20" d="m147.55,47.91c.34-2.7.84-5.43-1.02-7.84h.02c-1.14,2.12-1.7,4.22-.44,6.54.59,1.08.01,2.12-1.23,2.19-1.05.06-1.28-.77-1.21-1.82.11-1.63.73-3.48-1.25-4.56h0c-1.26-.36-1.87-1.23-2.13-2.48-.42-2.07-1.9-2.32-3.66-2.01-.31-.09-.53-.28-.67-.57-.08-.28-.1-.57-.06-.85.05-.27.2-.49.42-.66.21-.2.26-.43.11-.7-.03-.47.07-.93.01-1.4-.01-.56-.07-1.13.4-1.55-.58.37-.42.96-.45,1.49.04.56-.12,1.07-.33,1.57-.37.59-.63,1.24-1.07,1.79-.15.09-.3.17-.45.25-1.3.1-1.39,1.56-2.33,2.06-.31-2.5.28-4.88,1.04-7.21,1.92-5.85,3.88-11.69,5.9-17.51,1.35-3.88,2.95-4.28,5.59-.94,3.38,4.27,6.67,8.69,8.24,14.06-.93-.1-1.83-.54-1.99-1.41-.71-3.71-3.94-5.86-5.41-9.07-.52-1.13-1.49-.42-2.27-.53l.02-.04c.46,2.94,2.03,5.68,1.64,8.78-.16,1.23.58,1.44,1.57,1.44,1.03,0,2.24.05,2.35,1.34.11,1.34-1.51,1.08-2.16,1.78-.19.2-.5.27-.76.4-.22-.22.06,0,.03-.04-.59,2.26-.58,4.45.56,6.73,1.75-.92,1.46-2.07,1.01-3.33-.36-.99.18-1.73,1.06-2.06,1.31-.5,1.18.85,1.64,1.43.74.92.36,1.89.2,2.89-.25,1.56-.58,3.15-.51,4.7.08,1.67-2.28,4.14,1.32,4.87-.59,1.74.61,3.71-.7,5.36-2.94.86-1.34-2.73-3.04-3.1Z"/>
      <path class="cls-25" d="m136.92,47.51c1.19,5.5,1.82,11.09,2.5,16.69-1.68-1.86-3.07-7.36-4.17-16.47.5-.54,1.06-.61,1.67-.21Z"/>
      <path class="cls-9" d="m147.55,47.91c.72-.36,1.73-1.1,1.68.48-.04,1.25-.15,2.28,1.36,2.61-.49,1.63-.65,3.41-2.01,4.66-.3.68-.57,1.41-1.57,1.12.01-2.97,1.11-5.87.54-8.88Z"/>
      <path class="cls-62" d="m136.92,47.51c-.56.07-1.11.14-1.67.21-.84-2.68.12-5.37,0-8.07-.04-.91-.1-1.67-.68-2.35l.32-.05c.47-.57.99-.62,1.56-.17.06.28.12.56.19.84-.42,3.21-.31,6.4.28,9.58Z"/>
      <path class="cls-44" d="m148.55,61.11c-.44,1.77-.48,3.64-1.41,5.39-.93-3.09-.68-4.43,1.13-6.43.27.18.4.39.39.64,0,.26-.05.39-.12.4Z"/>
      <path class="cls-49" d="m148.55,61.11c-.09-.35-.18-.69-.27-1.04-.73-.97-1.37-1.98-1.26-3.28.52-.37,1.05-.74,1.57-1.12,1.55,1.82.58,3.63-.03,5.44Z"/>
      <path class="cls-13" d="m142.7,50.61c.18.16.48.3.5.47.05.47-.27.73-.72.61-.17-.05-.36-.43-.33-.63.03-.18.35-.3.54-.45Z"/>
      <path class="cls-33" d="m142.57,58.6c.26.07.51.14.77.21-.07.26-.07.64-.24.73-.17.09-.49-.11-.75-.18.07-.26.15-.51.22-.77Z"/>
      <path class="cls-25" d="m138.89,66.23c-.11.08-.21.21-.32.22-.11,0-.22-.12-.33-.19.21-.3.43-.31.65-.03Z"/>
      <path class="cls-15" d="m136.02,34.38c-.05-1.77-.04-3.52,1.48-5.53.66,2.37-.87,3.86-.56,5.52-.3.33-.61.32-.92,0Z"/>
      <path class="cls-27" d="m141.63,28.37c.71,1.54.73,2.65.09,4.48-.88-1.71-1.35-2.79-.09-4.48Z"/>
      <path class="cls-65" d="m142.42,42.42c-.03-.27-.07-.54-.1-.81-.06-.55-.04-1.13.47-1.44.4-.24.78.04.99.4.32.53.22,1.1-.23,1.47-.29.24-.76.26-1.15.38h0Z"/>
      <path class="cls-44" d="m146.55,40.08c0-.84-.14-1.82,1.2-1.54.27.06.71.72.63.89-.36.76-1.18.53-1.84.65h.02Z"/>
      <path class="cls-3" d="m136.45,37.09c-.52.06-1.04.11-1.56.17-.29-.71-.16-1.34.36-1.91.89-.3,1.3.02,1.25.96,0,.26-.01.52-.04.78Z"/>
      <path class="cls-2" d="m146.01,30.42c-.29.02-.58.08-.86.04-.65-.1-.98-.52-1-1.17,0-.13.07-.35.16-.38.73-.25.92.4,1.23.8.17.22.29.5.43.75,0,0,.03-.04.03-.04Z"/>
      <path class="cls-76" d="m136.49,36.31c-.42-.32-.83-.64-1.25-.96.26-.32.52-.65.78-.97.31,0,.61,0,.92,0,.08.57.16,1.14.24,1.72-.24.05-.47.12-.69.22Z"/>
      <path class="cls-76" d="m138.37,36.2c-.1.18-.19.49-.28.48-.24-.01-.52-.1-.71-.25-.37-.29-.28-.47.19-.4.26.04.51.1.8.17Z"/>
      <path class="cls-56" d="m143.34,16.72c-.41-.14-.9-.71-.71-.8.96-.46.41.58.7.84l.02-.04Z"/>
      <path class="cls-50" d="m148.52,52.79c.09,0,.22-.04.26,0,.07.07.13.22.11.3-.12.35-.29.36-.43.01-.03-.08.04-.21.07-.32Z"/>
    </g>
  </g>
</svg>