<?xml version="1.0" encoding="UTF-8"?>
<svg id="Calque_1" data-name="Calque 1" xmlns="http://www.w3.org/2000/svg" viewBox="0 0 300 300">
  <defs>
    <style>
      .cls-1 {
        fill: #ffc971;
      }

      .cls-2 {
        fill: #9bb3bb;
      }

      .cls-3 {
        fill: #8fc28c;
      }

      .cls-4 {
        fill: #bdcdd2;
      }

      .cls-5 {
        fill: #dee6e8;
      }

      .cls-6 {
        fill: #43616b;
      }

      .cls-7 {
        fill: #59818e;
      }

      .cls-8 {
        fill: #7a9aa5;
      }
    </style>
  </defs>
  <circle class="cls-5" cx="107.86" cy="202.81" r="51.23"/>
  <circle class="cls-5" cx="177.55" cy="111.77" r="65.82"/>
  <circle class="cls-5" cx="184.67" cy="246.14" r="6.92"/>
  <circle class="cls-5" cx="153.85" cy="238.12" r="3.88"/>
  <circle class="cls-5" cx="88.27" cy="65.8" r="6.89"/>
  <circle class="cls-5" cx="117.25" cy="71.09" r="3.87"/>
  <rect class="cls-1" x="77.05" y="81.41" width="138.23" height="144.3" rx="11.96" ry="11.96" transform="translate(-8.24 8.29) rotate(-3.16)"/>
  <rect class="cls-3" x="92.63" y="86.9" width="138.23" height="144.3" rx="11.96" ry="11.96" transform="translate(-20.7 24.25) rotate(-8.06)"/>
  <rect class="cls-7" x="84.08" y="77.26" width="138.23" height="144.3" rx="11.96" ry="11.96"/>
  <path class="cls-8" d="m151.79,165.85l18.6-32.31c2.04-3.55,7.16-3.55,9.21-.01l18.68,32.26-46.49.05Z"/>
  <path class="cls-2" d="m108.35,165.9l13.76-23.9c8.38-14.56,29.39-14.58,37.8-.04l13.82,23.87-65.38.07Z"/>
  <circle class="cls-4" cx="174.97" cy="105.44" r="11.21"/>
  <path class="cls-4" d="m196.04,188.28h-85.16c-.55,0-.99-.44-.99-.99h0c0-.55.44-.99.99-.99h85.16c.55,0,.99.44.99.99h0c0,.55-.44.99-.99.99Z"/>
  <path class="cls-4" d="m196.04,196.54h-85.16c-.55,0-.99-.44-.99-.99h0c0-.55.44-.99.99-.99h85.16c.55,0,.99.44.99.99h0c0,.55-.44.99-.99.99Z"/>
  <path class="cls-4" d="m167.02,204.79h-56.13c-.55,0-.99-.44-.99-.99h0c0-.55.44-.99.99-.99h56.13c.55,0,.99.44.99.99h0c0,.55-.44.99-.99.99Z"/>
  <path class="cls-6" d="m214.67,71.71c-.52-.7-1.18-1.29-1.94-1.73-.46-.26-.96-.47-1.48-.61-.52-.14-1.07-.22-1.64-.22-1.74,0-3.31.7-4.45,1.84-1.14,1.14-1.85,2.71-1.85,4.45v18.08c0,3.37,2.65,6.13,5.98,6.29.1,0,.21,0,.32,0,.39,0,.77-.03,1.13-.1.87-.16,1.68-.49,2.38-.97,1.68-1.13,2.79-3.05,2.79-5.23v-18.08c0-1.4-.46-2.7-1.23-3.74Zm-9.93,21.52v-17.44c0-1.34.55-2.56,1.43-3.44.54-.54,1.21-.96,1.96-1.2-.08.07-.15.14-.23.22-1.14,1.14-1.85,2.71-1.85,4.45v18.08c0,1.3.4,2.51,1.07,3.52-1.43-.85-2.39-2.41-2.39-4.19Zm9.74,0c0,1.08-.35,2.08-.95,2.88v-10c0-.08,0-.15,0-.23h-1.43v11.52c-.34.2-.71.37-1.1.48-.21.06-.42.11-.64.14-.31-.14-.6-.31-.88-.51-1.22-.89-2.01-2.32-2.01-3.94v-17.44c0-1.34.55-2.56,1.43-3.44.56-.56,1.26-.99,2.05-1.22.21-.06.42-.11.64-.14.31.14.6.31.87.51,1.22.89,2.01,2.32,2.01,3.94v17.44Z"/>
</svg>